<?xml version="1.0" standalone="no"?>
<!DOCTYPE svg PUBLIC "-//W3C//DTD SVG 1.1//EN" "http://www.w3.org/Graphics/SVG/1.1/DTD/svg11.dtd" >
<svg>
<metadata>
Created by FontForge 20090914 at Thu Jul 29 20:49:59 2021
 By www-data
&#194;&#169; 2018, Copyright by Lineto. All rights reserved.
</metadata>
<defs>
<font id="Circular" horiz-adv-x="587" >
  <font-face 
    font-family="Circular Cyrilic"
    font-weight="900"
    font-stretch="normal"
    units-per-em="1000"
    panose-1="2 11 10 4 2 1 1 1 1 2"
    ascent="750"
    descent="-250"
    x-height="497"
    cap-height="709"
    bbox="-200 -377.997 4910 1049"
    underline-thickness="50"
    underline-position="-50"
    unicode-range="U+0020-U+FEFF"
  />
<missing-glyph horiz-adv-x="591" 
d="M64 709h463v-709h-463v709zM403 124v461h-215v-461h215z" />
    <glyph glyph-name="f_f" unicode="ff" horiz-adv-x="715" 
d="M589 369l0.000976562 -368.998h-152v369h-175v-369h-152v369h-79v128h79v43c0 28.667 4.16699 54.667 12.5 78s20.666 43.5 36.999 60.5s36.333 30.167 60 39.5s50.5 14 80.5 14c12.667 0 26 -1 40 -3s24.667 -4.66699 32 -8v-124c-4 1.33301 -9.66699 2.5 -17 3.5
s-16.666 1.5 -27.999 1.5c-6.66699 0 -13.834 -0.833008 -21.501 -2.5s-14.667 -4.83398 -21 -9.50098s-11.666 -11 -15.999 -19s-6.5 -18.333 -6.5 -31v-43h175v43c0 28.667 4.16699 54.667 12.5 78s20.666 43.5 36.999 60.5s36.166 30.167 59.499 39.5s50 14 80 14
c13.333 0 27 -0.833008 41 -2.5s24.667 -4.16699 32 -7.5v-125c-4 1.33301 -9.66699 2.5 -17 3.5s-16.666 1.5 -27.999 1.5c-6.66699 0 -13.834 -0.833008 -21.501 -2.5s-14.667 -4.83398 -21 -9.50098s-11.666 -11 -15.999 -19s-6.5 -18.333 -6.5 -31v-43h108v-128h-108z
" />
    <glyph glyph-name="f_f_i" unicode="ffi" horiz-adv-x="992" 
d="M300 732c12.667 0 26.001 -1.16602 40.001 -3.49902s24.667 -5.16602 32 -8.49902v-123c-4 1.33301 -9.66699 2.5 -17 3.5s-16.666 1.5 -27.999 1.5c-7.33301 0 -14.833 -0.833008 -22.5 -2.5s-14.667 -4.83398 -21 -9.50098s-11.5 -11 -15.5 -19s-6 -18.333 -6 -31v-43
h175v43c0 28.667 4.16699 54.667 12.5 78s20.666 43.5 36.999 60.5s36.166 30.167 59.499 39.5s50 14 80 14c13.333 0 27 -1 41 -3s24.667 -4.66699 32 -8v-124c-4 1.33301 -9.66699 2.5 -17 3.5s-16.666 1.5 -27.999 1.5c-6.66699 0 -13.834 -0.833008 -21.501 -2.5
s-14.667 -4.83398 -21 -9.50098s-11.666 -11 -15.999 -19s-6.5 -18.333 -6.5 -31v-43h339v-497h-153v369h-186v-369h-152v369h-175v-369h-152v369h-79v128h79v43c0 28.667 4.16699 54.667 12.5 78s20.666 43.5 36.999 60.5s36.333 30.167 60 39.5s50.5 14 80.5 14z
M762.001 649.001c0 25.333 8.66699 46.5 26 63.5s38.333 25.5 63 25.5c25.333 0 46.5 -8.5 63.5 -25.5s25.5 -38.167 25.5 -63.5c0 -24.667 -8.5 -45.667 -25.5 -63s-38.167 -26 -63.5 -26c-24.667 0 -45.667 8.66699 -63 26s-26 38.333 -26 63z" />
    <glyph glyph-name="f_f_l" unicode="ffl" horiz-adv-x="992" 
d="M327 602c-6.66699 0 -13.833 -0.831055 -21.5 -2.49805s-14.667 -4.83398 -21 -9.50098s-11.666 -11 -15.999 -19s-6.5 -18.333 -6.5 -31v-43h175v43c0 28.667 4.16699 54.667 12.5 78s20.666 43.5 36.999 60.5s36.166 30.167 59.499 39.5s50 14 80 14
c13.333 0 27 -1 41 -3s24.667 -4.66699 32 -8v-124c-4 1.33301 -9.66699 2.5 -17 3.5s-16.666 1.5 -27.999 1.5c-6.66699 0 -13.834 -0.833008 -21.501 -2.5s-14.667 -4.83398 -21 -9.50098s-11.666 -11 -15.999 -19s-6.5 -18.333 -6.5 -31v-43h187v227h152v-724h-152v369
h-187v-369h-152v369h-175v-369h-152v369h-79v128h79v43c0 28.667 4.16699 54.667 12.5 78s20.666 43.5 36.999 60.5s36.333 30.167 60 39.5s50.5 14 80.5 14c12.667 0 26 -1 40 -3s24.667 -4.66699 32 -8v-124c-4 1.33301 -9.66699 2.5 -17 3.5s-16.666 1.5 -27.999 1.5z
" />
    <glyph glyph-name="f_i" unicode="fi" horiz-adv-x="661" 
d="M262 369l0.00195312 -368.999h-152v369h-79v128h79v43c0 28.667 4.16699 54.667 12.5 78s20.666 43.5 36.999 60.5s36.333 30.167 60 39.5s50.5 14 80.5 14c12.667 0 25.667 -1 39 -3s23.666 -4.66699 30.999 -8v-124c-3.33301 1.33301 -8.5 2.5 -15.5 3.5
s-16.167 1.5 -27.5 1.5c-6.66699 0 -13.834 -0.833008 -21.501 -2.5s-14.667 -4.83398 -21 -9.50098s-11.666 -11 -15.999 -19s-6.5 -18.333 -6.5 -31v-43h335v-497h-152v369h-183zM432.002 649.001c0 25.333 8.66699 46.5 26 63.5s38 25.5 62 25.5
c25.333 0 46.666 -8.5 63.999 -25.5s26 -38.167 26 -63.5c0 -24.667 -8.66699 -45.667 -26 -63s-38.666 -26 -63.999 -26c-12 0 -23.333 2.33301 -34 7s-20 11 -28 19s-14.333 17.5 -19 28.5s-7 22.5 -7 34.5z" />
    <glyph glyph-name="f_l" unicode="fl" horiz-adv-x="661" 
d="M327 602c-6.66699 0 -13.832 -0.832031 -21.499 -2.49902s-14.667 -4.83398 -21 -9.50098s-11.666 -11 -15.999 -19s-6.5 -18.333 -6.5 -31v-43h182v227h153v-724h-153v369h-182v-369h-152v369h-79v128h79v43c0 28.667 4.16699 54.667 12.5 78s20.666 43.5 36.999 60.5
s36.333 30.167 60 39.5s50.5 14 80.5 14c12.667 0 25.667 -1 39 -3s23.666 -4.66699 30.999 -8v-124c-3.33301 1.33301 -8.5 2.5 -15.5 3.5s-16.167 1.5 -27.5 1.5z" />
    <glyph glyph-name="f_y" unicode="fy" horiz-adv-x="945" 
d="M473 -191l113.001 258l-147 302h-177v-369h-152v369h-79v128h79v43c0 28.667 4.16699 54.667 12.5 78s20.666 43.5 36.999 60.5s36.333 30.167 60 39.5s50.5 14 80.5 14c15.333 0 29.333 -1 42 -3s22.667 -4.66699 30 -8v-124c-4 1.33301 -9.5 2.5 -16.5 3.5
s-16.5 1.5 -28.5 1.5c-6.66699 0 -13.834 -0.833008 -21.501 -2.5s-14.667 -5 -21 -10s-11.666 -11.833 -15.999 -20.5s-6.5 -20 -6.5 -34v-38h285l121 -266l110 266h161l-306 -688h-160z" />
    <glyph glyph-name=".notdef" horiz-adv-x="591" 
d="M64 709h463v-709h-463v709zM403 124v461h-215v-461h215z" />
    <glyph glyph-name="space" unicode=" " horiz-adv-x="232" 
 />
    <glyph glyph-name="exclam" unicode="!" horiz-adv-x="288" 
d="M200 222h-112l-35 487h182zM57 76c0 24 8.33496 44.5 25.002 61.5s37 25.5 61 25.5s44.5 -8.5 61.5 -25.5s25.5 -37.5 25.5 -61.5c0 -12 -2.33301 -23.167 -7 -33.5s-10.834 -19.333 -18.501 -27s-16.834 -13.834 -27.501 -18.501s-22 -7 -34 -7s-23.167 2.33301 -33.5 7
s-19.5 10.834 -27.5 18.501s-14.167 16.667 -18.5 27s-6.5 21.5 -6.5 33.5z" />
    <glyph glyph-name="quotedbl" unicode="&#x22;" horiz-adv-x="431" 
d="M38 637c0 23.333 7.83398 43 23.501 59s35.167 24 58.5 24s42.666 -8 57.999 -24s23 -35.667 23 -59c0 -4.66699 -0.333008 -10 -1 -16s-1.66699 -10.667 -3 -14l-50 -181h-54l-50 181c-0.666992 3.33301 -1.66699 7.83301 -3 13.5s-2 11.167 -2 16.5zM229.001 637
c0 23.333 7.83398 43 23.501 59s35.167 24 58.5 24s42.666 -8 57.999 -24s23 -35.667 23 -59c0 -4.66699 -0.333008 -10 -1 -16s-1.66699 -10.667 -3 -14l-50 -181h-54l-50 181c-0.666992 3.33301 -1.66699 7.83301 -3 13.5s-2 11.167 -2 16.5z" />
    <glyph glyph-name="numbersign" unicode="#" horiz-adv-x="737" 
d="M339 527h122l36 182h117l-36 -182h126v-105h-146l-32 -160h127v-106h-148l-30 -156h-117l30 156h-122l-30 -156h-116l30 156h-117v106h138l32 160h-121v105h141l36 182h116zM287 262h122l32 160h-122z" />
    <glyph glyph-name="dollar" unicode="$" horiz-adv-x="593" 
d="M410 489c-1.33301 8 -4.16406 16.9941 -8.49707 26.9941s-10.833 19.167 -19.5 27.5s-19.834 15.5 -33.501 21.5s-30.834 9 -51.501 9c-28.667 0 -51.5 -7.33301 -68.5 -22s-25.5 -31.667 -25.5 -51c0 -16 5.5 -29.667 16.5 -41s28.167 -19.333 51.5 -24l91 -17
c32.667 -6 61.167 -15.5 85.5 -28.5s44.833 -28.5 61.5 -46.5s29.167 -38 37.5 -60s12.5 -45 12.5 -69c0 -23.333 -4.16699 -46.5 -12.5 -69.5s-20.833 -44 -37.5 -63s-37 -35.333 -61 -49s-51.667 -23.167 -83 -28.5v-122h-115v121c-37.333 5.33301 -69.333 15.5 -96 30.5
s-49 32.333 -67 52s-31.667 41 -41 64s-15 45.167 -17 66.5l139 34c1.33301 -15.333 5.16602 -30.166 11.499 -44.499s15.166 -26.833 26.499 -37.5s25.5 -19.167 42.5 -25.5s37.167 -9.5 60.5 -9.5c30 0 53.5 6.5 70.5 19.5s25.5 30.167 25.5 51.5
c0 17.333 -6.5 31.833 -19.5 43.5s-30.833 19.834 -53.5 24.501l-93 17c-58 11.333 -103.333 34.833 -136 70.5s-49 78.834 -49 129.501c0 28 5 54 15 78s23.833 45.333 41.5 64s38.5 34.334 62.5 47.001s49.667 21.334 77 26.001v121h115v-123c30 -6 55.667 -15.333 77 -28
s39.333 -27.167 54 -43.5s25.834 -33.666 33.501 -51.999s13.167 -35.833 16.5 -52.5z" />
    <glyph glyph-name="percent" unicode="%" horiz-adv-x="855" 
d="M138 555c0 -20 5.83301 -35.999 17.5 -47.999s26.167 -18 43.5 -18s31.666 6.16699 42.999 18.5s17 28.166 17 47.499s-5.66699 34.833 -17 46.5s-25.666 17.5 -42.999 17.5s-31.833 -5.83301 -43.5 -17.5s-17.5 -27.167 -17.5 -46.5zM30 555.001
c0 23.333 4.49902 45 13.499 65s21.167 37.5 36.5 52.5s33.166 26.833 53.499 35.5s42.166 13 65.499 13c22.667 0 44.334 -4.33301 65.001 -13s38.667 -20.5 54 -35.5s27.5 -32.5 36.5 -52.5s13.5 -41.667 13.5 -65c0 -24 -4.5 -46.167 -13.5 -66.5
s-21.167 -37.833 -36.5 -52.5s-33.333 -26.167 -54 -34.5s-42.667 -12.5 -66 -12.5s-45.166 4.33301 -65.499 13s-38.166 20.5 -53.499 35.5s-27.333 32.5 -36 52.5s-13 41.667 -13 65zM594.999 153.001c0 -20 5.83301 -35.999 17.5 -47.999s26.167 -18 43.5 -18
s31.666 6.16699 42.999 18.5s17 28.166 17 47.499s-5.66699 34.833 -17 46.5s-25.666 17.5 -42.999 17.5s-31.833 -5.83301 -43.5 -17.5s-17.5 -27.167 -17.5 -46.5zM486.999 153.002c0 23.333 4.49902 45 13.499 65s21.167 37.5 36.5 52.5s33.166 26.833 53.499 35.5
s42.166 13 65.499 13c22.667 0 44.334 -4.33301 65.001 -13s38.667 -20.5 54 -35.5s27.5 -32.5 36.5 -52.5s13.5 -41.667 13.5 -65c0 -24 -4.5 -46.167 -13.5 -66.5s-21.167 -37.833 -36.5 -52.5s-33.333 -26.167 -54 -34.5s-42.667 -12.5 -66 -12.5
s-45.166 4.33301 -65.499 13s-38.166 20.5 -53.499 35.5s-27.333 32.5 -36 52.5s-13 41.667 -13 65zM136.998 0.00195312l453 709h130l-454 -709h-129z" />
    <glyph glyph-name="ampersand" unicode="&#x26;" horiz-adv-x="708" 
d="M445 69c-24.667 -25.333 -52.3311 -45.499 -82.998 -60.499s-65 -22.5 -103 -22.5c-35.333 0 -66.5 5.5 -93.5 16.5s-49.833 25.667 -68.5 44s-32.834 39.166 -42.501 62.499s-14.5 47.333 -14.5 72c0 43.333 10.667 79.5 32 108.5s51 57.167 89 84.5l-10 11
c-8.66699 9.33301 -17.334 19.5 -26.001 30.5s-16.5 22.667 -23.5 35s-12.833 25.666 -17.5 39.999s-7 29.5 -7 45.5c0 30 5.83301 56.667 17.5 80s27 43 46 59s40.5 28.167 64.5 36.5s48.333 12.5 73 12.5c29.333 0 56.333 -4.5 81 -13.5s46 -21.5 64 -37.5
s32.167 -35.167 42.5 -57.5s15.5 -46.833 15.5 -73.5c0 -35.333 -10.167 -66.666 -30.5 -93.999s-43.5 -50.333 -69.5 -69l-23 -17l95 -100l189 193v-186l-100 -101l159 -168h-192zM263.003 116.001c17.333 0 33.667 4 49 12s30.333 19.667 45 35l-110 118l-5 -4
c-16.667 -12 -30 -24.833 -40 -38.5s-15 -30.167 -15 -49.5c0 -18.667 6.83301 -35.5 20.5 -50.5s32.167 -22.5 55.5 -22.5zM218.004 541.001c0 -14 3.83105 -26.668 11.498 -38.001s15.834 -21.666 24.501 -30.999l17 -18l28 20c14.667 10.667 25.167 21.834 31.5 33.501
s9.5 23.167 9.5 34.5c0 17.333 -6 31.666 -18 42.999s-26.667 17 -44 17c-15.333 0 -29.166 -4.83301 -41.499 -14.5s-18.5 -25.167 -18.5 -46.5z" />
    <glyph glyph-name="quotesingle" unicode="'" horiz-adv-x="240" 
d="M38 637c0 23.333 7.83398 43 23.501 59s35.167 24 58.5 24s42.666 -8 57.999 -24s23 -35.667 23 -59c0 -4.66699 -0.333008 -10 -1 -16s-1.66699 -10.667 -3 -14l-50 -181h-54l-50 181c-0.666992 3.33301 -1.66699 7.83301 -3 13.5s-2 11.167 -2 16.5z" />
    <glyph glyph-name="parenleft" unicode="(" horiz-adv-x="353" 
d="M39 324c0 58.667 5.66699 112.503 17 161.503s27 94.333 47 136s43.333 79.667 70 114s55.334 66.166 86.001 95.499l86 -81c-27.333 -28.667 -52 -58.334 -74 -89.001s-40.833 -63.334 -56.5 -98.001s-27.667 -71.667 -36 -111s-12.5 -82 -12.5 -128
c0 -45.333 4.16699 -87.666 12.5 -126.999s20.333 -76.5 36 -111.5s34.5 -67.833 56.5 -98.5s46.667 -60.334 74 -89.001l-86 -81c-30.667 29.333 -59.334 61.333 -86.001 96s-50 72.667 -70 114s-35.667 86.5 -47 135.5s-17 102.833 -17 161.5z" />
    <glyph glyph-name="parenright" unicode=")" horiz-adv-x="353" 
d="M314 324c0 -58.667 -5.66699 -112.503 -17 -161.503s-26.833 -94.167 -46.5 -135.5s-42.834 -79.333 -69.501 -114s-55.334 -66.667 -86.001 -96l-87 81c27.333 28.667 52 58.334 74 89.001s40.833 63.5 56.5 98.5s27.834 72.167 36.501 111.5s13 81.666 13 126.999
c0 46 -4.33301 88.667 -13 128s-20.834 76.333 -36.501 111s-34.5 67.334 -56.5 98.001s-46.667 60.334 -74 89.001l87 81c30.667 -29.333 59.334 -61.166 86.001 -95.499s49.834 -72.333 69.501 -114s35.167 -87 46.5 -136s17 -102.833 17 -161.5z" />
    <glyph glyph-name="asterisk" unicode="*" horiz-adv-x="487" 
d="M303 586l114 37l38 -110l-115 -38l70 -97l-94 -69l-73 98l-72 -98l-94 69l70 97l-115 38l37 110l114 -37v123h120v-123z" />
    <glyph glyph-name="plus" unicode="+" horiz-adv-x="575" 
d="M224 421v195h128v-195h189v-124h-189v-195h-128v195h-190v124h190z" />
    <glyph glyph-name="comma" unicode="," horiz-adv-x="296" 
d="M44 88c0 26.667 9.49805 48.8359 28.498 66.5029s42.833 26.5 71.5 26.5c17.333 0 32.833 -3.5 46.5 -10.5s25 -16.167 34 -27.5s15.833 -24.5 20.5 -39.5s7 -30.833 7 -47.5c0 -38.667 -6.16699 -72 -18.5 -100s-27.833 -51.333 -46.5 -70
s-39.167 -32.834 -61.5 -42.501s-43.5 -15.5 -63.5 -17.5v71c10.667 2 21.834 6 33.501 12s22.334 13.5 32.001 22.5s17.667 19.667 24 32s9.83301 26.166 10.5 41.499c-6 -4.66699 -15.333 -7 -28 -7c-28 0 -50 8.66699 -66 26s-24 38.666 -24 63.999z" />
    <glyph glyph-name="hyphen" unicode="-" horiz-adv-x="420" 
d="M60 233v137h300v-137h-300z" />
    <glyph glyph-name="period" unicode="." horiz-adv-x="289" 
d="M42 94c0 14 2.66699 27.167 8 39.5s12.666 23.166 21.999 32.499s20.166 16.666 32.499 21.999s25.5 8 39.5 8s27.167 -2.66699 39.5 -8s23.333 -12.666 33 -21.999s17.167 -20.166 22.5 -32.499s8 -25.5 8 -39.5s-2.66699 -27.167 -8 -39.5
s-12.833 -23.166 -22.5 -32.499s-20.667 -16.833 -33 -22.5s-25.5 -8.5 -39.5 -8.5s-27.167 2.83301 -39.5 8.5s-23.166 13.167 -32.499 22.5s-16.666 20.166 -21.999 32.499s-8 25.5 -8 39.5z" />
    <glyph glyph-name="slash" unicode="/" horiz-adv-x="528" 
d="M159 0h-135l345 709h136z" />
    <glyph glyph-name="zero" unicode="0" horiz-adv-x="672" 
d="M203 355c0 -35.333 2.33301 -67.5 7 -96.5s12.334 -53.667 23.001 -74s24.5 -36.166 41.5 -47.499s37.5 -17 61.5 -17s44.5 5.66699 61.5 17s30.833 27.166 41.5 47.499s18.334 45 23.001 74s7 61.167 7 96.5s-2.33301 67.333 -7 96s-12.334 53.334 -23.001 74.001
s-24.5 36.5 -41.5 47.5s-37.5 16.5 -61.5 16.5s-44.5 -5.5 -61.5 -16.5s-30.833 -26.833 -41.5 -47.5s-18.334 -45.334 -23.001 -74.001s-7 -60.667 -7 -96zM44 355c0 48.667 5.16699 95.334 15.5 140.001s27.166 84 50.499 118s53.5 61 90.5 81s82.167 30 135.5 30
s98.5 -10 135.5 -30s67.167 -47 90.5 -81s40.166 -73.333 50.499 -118s15.5 -91.334 15.5 -140.001s-5.16699 -95.334 -15.5 -140.001s-27.166 -84 -50.499 -118s-53.5 -61.167 -90.5 -81.5s-82.167 -30.5 -135.5 -30.5s-98.5 10.167 -135.5 30.5s-67.167 47.5 -90.5 81.5
s-40.166 73.333 -50.499 118s-15.5 91.334 -15.5 140.001z" />
    <glyph glyph-name="one" unicode="1" horiz-adv-x="403" 
d="M180 0v470.001h-159v106c52 1.33301 93.5 14.666 124.5 39.999s49.833 56.333 56.5 93h135v-709h-157z" />
    <glyph glyph-name="two" unicode="2" horiz-adv-x="608" 
d="M53 437c-1.33301 5.33301 -2.50195 13 -3.50195 23s-1.5 19.667 -1.5 29c0 31.333 5.83301 61.166 17.5 89.499s28.667 53.333 51 75s49.333 38.834 81 51.501s67.5 19 107.5 19c38.667 0 73.834 -6.16699 105.501 -18.5s58.5 -29 80.5 -50s39 -45.667 51 -74
s18 -58.166 18 -89.499c0 -45.333 -11.167 -86.5 -33.5 -123.5s-56.833 -68.833 -103.5 -95.5l-140 -80c-13.333 -8 -24.666 -17 -33.999 -27s-15.666 -21 -18.999 -33h328v-133h-517c0 32 2.66699 62.5 8 91.5s14.166 56.5 26.499 82.5s29 50.167 50 72.5
s47.5 42.5 79.5 60.5l115 66c30 17.333 51.167 34.666 63.5 51.999s18.5 38.666 18.5 63.999c0 26.667 -9.16699 49 -27.5 67s-41.5 27 -69.5 27c-32.667 0 -58.667 -10.167 -78 -30.5s-29 -47.166 -29 -80.499c0 -5.33301 0.333008 -11.5 1 -18.5s2 -13.833 4 -20.5z" />
    <glyph glyph-name="three" unicode="3" horiz-adv-x="613" 
d="M173 418l178.002 157.997h-295v133h491v-128l-171 -148c25.333 -1.33301 49.666 -7.16602 72.999 -17.499s43.833 -24.666 61.5 -42.999s31.667 -40.333 42 -66s15.5 -54.834 15.5 -87.501c0 -31.333 -6.16699 -61.166 -18.5 -89.499s-30 -53.166 -53 -74.499
s-51 -38.333 -84 -51s-70.167 -19 -111.5 -19c-40 0 -75.833 6 -107.5 18s-59 28.333 -82 49s-41 44.5 -54 71.5s-20.833 55.167 -23.5 84.5l150 31c1.33301 -34.667 12.5 -63.167 33.5 -85.5s48.5 -33.5 82.5 -33.5c17.333 0 32.833 2.83301 46.5 8.5
s25.167 13.167 34.5 22.5s16.333 20.333 21 33s7 25.667 7 39c0 34.667 -10.667 60.334 -32 77.001s-46 25 -74 25c-10.667 0 -21.834 -1.33301 -33.501 -4s-21.167 -6.33398 -28.5 -11.001z" />
    <glyph glyph-name="four" unicode="4" horiz-adv-x="638" 
d="M27 309l284 400h193v-425h105v-134h-105v-150h-157v150h-320v159zM347 543l-182 -259h182v259z" />
    <glyph glyph-name="five" unicode="5" horiz-adv-x="594" 
d="M175 228c1.33301 -14.667 4.83398 -28.5 10.501 -41.5s13.5 -24.5 23.5 -34.5s21.833 -17.833 35.5 -23.5s29.167 -8.5 46.5 -8.5c14.667 0 28.5 2.5 41.5 7.5s24.5 12.333 34.5 22s18 21.167 24 34.5s9 28.666 9 45.999c0 19.333 -3 36.166 -9 50.499s-14 26.333 -24 36
s-21.667 16.834 -35 21.501s-27 7 -41 7c-23.333 0 -43.666 -4.83301 -60.999 -14.5s-30.333 -20.834 -39 -33.501c-2.66699 0.666992 -11 3.5 -25 8.5l-45 15.5l-45 15c-14 4.66699 -22 7.66699 -24 9l72 364h399v-133h-290l-30 -149
c15.333 14.667 34.166 25.334 56.499 32.001s45.166 10 68.499 10c34.667 0 66.167 -5.33301 94.5 -16s52.5 -26.167 72.5 -46.5s35.333 -45.166 46 -74.499s16 -62.666 16 -99.999c0 -32.667 -6 -63.834 -18 -93.501s-29.5 -55.834 -52.5 -78.501
s-50.833 -40.834 -83.5 -54.501s-70 -20.5 -112 -20.5c-38 0 -72.5 5.83301 -103.5 17.5s-57.833 27.334 -80.5 47.001s-40.667 42.334 -54 68.001s-21 52.167 -23 79.5z" />
    <glyph glyph-name="six" unicode="6" horiz-adv-x="624" 
d="M526 564c-14.667 7.33301 -30.8311 13.333 -48.498 18s-37.834 7 -60.501 7c-58 0 -106.167 -16.167 -144.5 -48.5s-62.833 -79.833 -73.5 -142.5c14 20 34.5 36.833 61.5 50.5s60.167 20.5 99.5 20.5c34.667 0 66 -5.66699 94 -17s51.833 -27.166 71.5 -47.499
s34.834 -45 45.501 -74s16 -61.167 16 -96.5c0 -36.667 -6.83301 -70.167 -20.5 -100.5s-32.334 -56.5 -56.001 -78.5s-51.667 -39.167 -84 -51.5s-67.5 -18.5 -105.5 -18.5s-73.833 7.16699 -107.5 21.5s-63.334 35.166 -89.001 62.499s-45.834 61.333 -60.501 102
s-22 87 -22 139c0 64.667 9.33301 122.5 28 173.5s44.834 94.333 78.501 130s74 63 121 82s98.833 28.5 155.5 28.5c32 0 60.333 -3 85 -9s44 -13.667 58 -23zM210.003 229c0 -17.333 3 -32.832 9 -46.499s14.167 -25.334 24.5 -35.001s22 -17 35 -22s26.5 -7.5 40.5 -7.5
c14.667 0 28.834 2.5 42.501 7.5s25.667 12.167 36 21.5s18.5 20.833 24.5 34.5s9 29.5 9 47.5s-3 34 -9 48s-14.167 25.667 -24.5 35s-22.333 16.5 -36 21.5s-27.834 7.5 -42.501 7.5c-14 0 -27.667 -2.5 -41 -7.5s-25 -12.167 -35 -21.5s-18 -21 -24 -35s-9 -30 -9 -48z
" />
    <glyph glyph-name="seven" unicode="7" horiz-adv-x="564" 
d="M549 566c-17.333 -15.333 -39.5 -38.1699 -66.5 -68.5029s-54.167 -68.666 -81.5 -114.999s-52.166 -101.333 -74.499 -165s-36.833 -136.167 -43.5 -217.5h-164c4 46.667 10.667 90.834 20 132.501s20.5 80.334 33.5 116.001s27.167 68.667 42.5 99
s30.666 57.5 45.999 81.5c36 56.667 75.667 105.667 119 147h-358v133h527v-143z" />
    <glyph glyph-name="eight" unicode="8" horiz-adv-x="627" 
d="M314 -15c-40 0 -76.666 5 -109.999 15s-61.833 24.167 -85.5 42.5s-42 40.166 -55 65.499s-19.5 53.333 -19.5 84c0 38 11.167 72.667 33.5 104s52.166 54 89.499 68c-18 6.66699 -33.667 15.667 -47 27s-24.666 24.166 -33.999 38.499s-16.333 29.333 -21 45
s-7 31.167 -7 46.5c0 29.333 6.33301 56.5 19 81.5s30.334 46.5 53.001 64.5s49.667 32 81 42s65.666 15 102.999 15s71.666 -5 102.999 -15s58.166 -24 80.499 -42s39.833 -39.5 52.5 -64.5s19 -52.167 19 -81.5c0 -15.333 -2.33301 -30.833 -7 -46.5
s-11.667 -30.667 -21 -45s-20.833 -27.166 -34.5 -38.499s-29.5 -20.333 -47.5 -27c37.333 -14 67.333 -36.667 90 -68s34 -66 34 -104c0 -30.667 -6.5 -58.667 -19.5 -84s-31.167 -47.166 -54.5 -65.499s-51.666 -32.5 -84.999 -42.5s-70 -15 -110 -15zM314.001 419
c32 1.33301 56.332 10.666 72.999 27.999s25 38 25 62c0 10.667 -2.16699 21 -6.5 31s-10.666 19 -18.999 27s-18.5 14.333 -30.5 19s-26 7 -42 7s-30.167 -2.33301 -42.5 -7s-22.833 -11 -31.5 -19s-15.167 -17 -19.5 -27s-6.5 -20.333 -6.5 -31
c0 -24 8.66699 -44.667 26 -62s42 -26.666 74 -27.999zM314 114c18.667 0 35.166 2.66699 49.499 8s26.166 12.5 35.499 21.5s16.5 19.167 21.5 30.5s7.5 23 7.5 35s-2.33301 23.833 -7 35.5s-11.667 22 -21 31s-21.166 16.167 -35.499 21.5s-31.166 8 -50.499 8
s-36.166 -2.66699 -50.499 -8s-26.333 -12.5 -36 -21.5s-16.834 -19.333 -21.501 -31s-7 -23.5 -7 -35.5s2.5 -23.667 7.5 -35s12.333 -21.5 22 -30.5s21.667 -16.167 36 -21.5s30.833 -8 49.5 -8z" />
    <glyph glyph-name="nine" unicode="9" horiz-adv-x="621" 
d="M405 480c0 16 -2.83301 30.8369 -8.5 44.5039s-13.5 25.5 -23.5 35.5s-21.667 17.667 -35 23s-27.333 8 -42 8s-28.667 -2.66699 -42 -8s-25 -12.833 -35 -22.5s-17.833 -21.334 -23.5 -35.001s-8.5 -28.834 -8.5 -45.501s2.83301 -31.834 8.5 -45.501
s13.5 -25.334 23.5 -35.001s21.667 -17.167 35 -22.5s27.333 -8 42 -8s28.667 2.66699 42 8s25 13 35 23s17.833 21.833 23.5 35.5s8.5 28.5 8.5 44.5zM92 149.004c13.333 -6.66699 30.999 -12.999 52.999 -18.999s45 -9 69 -9c29.333 0 56.5 3.83301 81.5 11.5
s46.667 19.5 65 35.5s33.166 35.833 44.499 59.5s18 51.5 20 83.5c-11.333 -21.333 -30.666 -38.833 -57.999 -52.5s-58 -20.5 -92 -20.5c-32 0 -62.5 5.5 -91.5 16.5s-54.333 26.833 -76 47.5s-39 45.667 -52 75s-19.5 62 -19.5 98s6.66699 69.333 20 100
s31.833 57 55.5 79s51.834 39.167 84.501 51.5s68.334 18.5 107.001 18.5c38 0 73.667 -7 107 -21s62.5 -35 87.5 -63s44.667 -63.167 59 -105.5s21.5 -91.5 21.5 -147.5c0 -63.333 -7.83301 -119.833 -23.5 -169.5s-38.834 -91.834 -69.501 -126.501s-68.5 -61 -113.5 -79
s-96.833 -27 -155.5 -27c-29.333 0 -59 3.5 -89 10.5s-53.667 16.167 -71 27.5z" />
    <glyph glyph-name="colon" unicode=":" horiz-adv-x="309" 
d="M55 91c0 14 2.5 27 7.5 39s12.167 22.5 21.5 31.5s20 16.167 32 21.5s24.667 8 38 8c14 0 27 -2.66699 39 -8s22.667 -12.5 32 -21.5s16.5 -19.5 21.5 -31.5s7.5 -25 7.5 -39c0 -13.333 -2.5 -26 -7.5 -38s-12.167 -22.5 -21.5 -31.5s-20 -16.333 -32 -22
s-25 -8.5 -39 -8.5c-13.333 0 -26 2.83301 -38 8.5s-22.667 13 -32 22s-16.5 19.5 -21.5 31.5s-7.5 24.667 -7.5 38zM55 406c0 14 2.5 27 7.5 39s12.167 22.5 21.5 31.5s20 16.167 32 21.5s24.667 8 38 8c14 0 27 -2.66699 39 -8s22.667 -12.5 32 -21.5
s16.5 -19.5 21.5 -31.5s7.5 -25 7.5 -39c0 -13.333 -2.5 -26 -7.5 -38s-12.167 -22.5 -21.5 -31.5s-20 -16.333 -32 -22s-25 -8.5 -39 -8.5c-13.333 0 -26 2.83301 -38 8.5s-22.667 13 -32 22s-16.5 19.5 -21.5 31.5s-7.5 24.667 -7.5 38z" />
    <glyph glyph-name="semicolon" unicode=";" horiz-adv-x="312" 
d="M58 82c0 25.333 9.00098 46.333 27.001 63s40.667 25 68 25c16 0 30.5 -3.33301 43.5 -10s23.833 -15.334 32.5 -26.001s15.167 -23.167 19.5 -37.5s6.5 -29.5 6.5 -45.5c0 -36.667 -5.83301 -68.334 -17.5 -95.001s-26.334 -48.834 -44.001 -66.501
s-37.167 -31 -58.5 -40s-41.333 -14.5 -60 -16.5v67c10 2 20.5 5.83301 31.5 11.5s21.167 12.834 30.5 21.501s17 18.834 23 30.501s9.33301 24.834 10 39.501c-6 -4.66699 -15 -7 -27 -7c-26.667 0 -47.5 8.16699 -62.5 24.5s-22.5 36.833 -22.5 61.5zM55.001 406
c0 14 2.5 27 7.5 39s12.167 22.5 21.5 31.5s20 16.167 32 21.5s24.667 8 38 8c14 0 27 -2.66699 39 -8s22.667 -12.5 32 -21.5s16.5 -19.5 21.5 -31.5s7.5 -25 7.5 -39c0 -13.333 -2.5 -26 -7.5 -38s-12.167 -22.5 -21.5 -31.5s-20 -16.333 -32 -22s-25 -8.5 -39 -8.5
c-13.333 0 -26 2.83301 -38 8.5s-22.667 13 -32 22s-16.5 19.5 -21.5 31.5s-7.5 24.667 -7.5 38z" />
    <glyph glyph-name="less" unicode="&#x3c;" horiz-adv-x="536" 
d="M32 413l439 224v-138l-288 -137l288 -139v-140l-439 222v108z" />
    <glyph glyph-name="equal" unicode="=" horiz-adv-x="615" 
d="M60 400v122h495v-122h-495zM60 199v122h495v-122h-495z" />
    <glyph glyph-name="greater" unicode="&#x3e;" horiz-adv-x="536" 
d="M504 306l-439 -223v137l288 138l-288 139v140l439 -223v-108z" />
    <glyph glyph-name="question" unicode="?" horiz-adv-x="536" 
d="M193 222c-2.66699 12.667 -4 27.334 -4 44.001c0 23.333 5.5 47.333 16.5 72s30.833 47.667 59.5 69l51 38c13.333 10 22.666 20.833 27.999 32.5s8 24.167 8 37.5c0 19.333 -7.33301 37 -22 53s-37 24 -67 24c-14.667 0 -27.667 -2.66699 -39 -8s-21 -12.5 -29 -21.5
s-14 -19 -18 -30s-6 -22.5 -6 -34.5c0 -11.333 0.333008 -19.833 1 -25.5s1.33398 -9.5 2.00098 -11.5l-140 5c-1.33301 7.33301 -2.33301 14.5 -3 21.5s-1 13.833 -1 20.5c0 29.333 5.33301 57 16 83s26 48.833 46 68.5s44.333 35.334 73 47.001s61.334 17.5 98.001 17.5
c40.667 0 76.167 -5.5 106.5 -16.5s55.666 -25.833 75.999 -44.5s35.5 -39.834 45.5 -63.501s15 -47.834 15 -72.501c0 -40 -8.66699 -74.333 -26 -103s-41 -54.334 -71 -77.001l-38 -28c-17.333 -13.333 -31.5 -27.166 -42.5 -41.499s-16.5 -32.833 -16.5 -55.5h-119z
M170 76c0 24 8.33496 44.5 25.002 61.5s37 25.5 61 25.5s44.5 -8.5 61.5 -25.5s25.5 -37.5 25.5 -61.5c0 -12 -2.33301 -23.167 -7 -33.5s-10.834 -19.333 -18.501 -27s-16.834 -13.834 -27.501 -18.501s-22 -7 -34 -7s-23.167 2.33301 -33.5 7s-19.5 10.834 -27.5 18.501
s-14.167 16.667 -18.5 27s-6.5 21.5 -6.5 33.5z" />
    <glyph glyph-name="at" unicode="@" horiz-adv-x="831" 
d="M587 141c-28 0 -49.334 6.16602 -64.001 18.499s-24 25.5 -28 39.5c-11.333 -20 -27.5 -35 -48.5 -45s-43.167 -15 -66.5 -15c-21.333 0 -41.166 4.16699 -59.499 12.5s-34.166 20.166 -47.499 35.499s-24 33.5 -32 54.5s-12 44.167 -12 69.5
c0 32.667 5.33301 62.667 16 90s25 50.833 43 70.5s38.833 35 62.5 46s48.5 16.5 74.5 16.5c17.333 0 35 -4.33301 53 -13s30.667 -22 38 -40l8 40h103l-52 -243c-0.666992 -2.66699 -1 -6.66699 -1 -12c0 -7.33301 2.5 -14 7.5 -20s11.833 -9 20.5 -9
c12 0 23.5 3.83301 34.5 11.5s21 18.334 30 32.001s16.167 30.167 21.5 49.5s8 41 8 65c0 34.667 -6.33301 66.167 -19 94.5s-30.334 52.666 -53.001 72.999s-49.667 36 -81 47s-65.333 16.5 -102 16.5c-40.667 0 -78.5 -7 -113.5 -21s-65.167 -33.833 -90.5 -59.5
s-45.333 -56.5 -60 -92.5s-22 -76 -22 -120c0 -40.667 6.66699 -78.334 20 -113.001s32.5 -64.667 57.5 -90s55.667 -45.166 92 -59.499s77.5 -21.5 123.5 -21.5c28 0 57 3.83301 87 11.5s58.667 21.167 86 40.5l51 -73c-13.333 -11.333 -28.833 -21.666 -46.5 -30.999
s-36.5 -17.333 -56.5 -24s-40.5 -11.834 -61.5 -15.501s-40.833 -5.5 -59.5 -5.5c-58.667 0 -112.667 9 -162 27s-92 43.5 -128 76.5s-64 72.833 -84 119.5s-30 98.334 -30 155.001c0 58.667 10.5 112.167 31.5 160.5s49.5 89.833 85.5 124.5s78 61.667 126 81s99 29 153 29
c52 0 100 -8.33301 144 -25s82 -39.667 114 -69s57 -64.166 75 -104.499s27 -83.833 27 -130.5c0 -38 -6 -72.667 -18 -104s-27.833 -58 -47.5 -80s-42 -39.167 -67 -51.5s-50.5 -18.833 -76.5 -19.5h-4zM493.999 364.999c0 21.333 -5.00195 38.333 -15.002 51
s-24.667 19 -44 19c-14 0 -26.667 -3 -38 -9s-21 -14.167 -29 -24.5s-14.167 -22.5 -18.5 -36.5s-6.5 -29 -6.5 -45c0 -24.667 5 -44.667 15 -60s26 -23 48 -23c24.667 0 45.334 11.833 62.001 35.5s25.334 54.5 26.001 92.5z" />
    <glyph glyph-name="A" unicode="A" horiz-adv-x="729" 
d="M498 144h-274l-51 -144h-166l267 709h183l264 -709h-172zM276 288h172l-85 245z" />
    <glyph glyph-name="B" unicode="B" horiz-adv-x="629" 
d="M345 709c34.667 0 65.8301 -4.83301 93.4971 -14.5s50.834 -23 69.501 -40s33 -37 43 -60s15 -48.167 15 -75.5c0 -36.667 -10 -68.834 -30 -96.501s-44.667 -46.167 -74 -55.5c16 -4 31.5 -10.5 46.5 -19.5s28.5 -20.5 40.5 -34.5s21.5 -30.5 28.5 -49.5
s10.5 -39.833 10.5 -62.5c0 -29.333 -5.33301 -56.166 -16 -80.499s-25.667 -45.5 -45 -63.5s-42.666 -32 -69.999 -42s-57.666 -15 -90.999 -15h-286v709h265zM319.996 425c28 0 50.166 6.83301 66.499 20.5s24.5 32.5 24.5 56.5c0 23.333 -7.66699 41.833 -23 55.5
s-38.666 20.5 -69.999 20.5h-84v-153h86zM332.995 129c30.667 0 54.667 7.5 72 22.5s26 35.167 26 60.5c0 24.667 -8.5 44.667 -25.5 60s-41.167 23 -72.5 23h-99v-166h99z" />
    <glyph glyph-name="C" unicode="C" horiz-adv-x="765" 
d="M407 -15c-51.333 0 -99.3301 8.83496 -143.997 26.502s-83.5 42.5 -116.5 74.5s-59.167 70.667 -78.5 116s-29 95.666 -29 150.999s9.83301 105.833 29.5 151.5s46.167 84.667 79.5 117s72.166 57.5 116.499 75.5s91.166 27 140.499 27c53.333 0 99.333 -7.66699 138 -23
s71.334 -34.833 98.001 -58.5s47.5 -49.5 62.5 -77.5s25.5 -54.667 31.5 -80l-149 -47c-2.66699 12 -7.83398 25.667 -15.501 41s-18.5 29.833 -32.5 43.5s-31.833 25 -53.5 34s-48.167 13.5 -79.5 13.5c-24 0 -48 -4.33301 -72 -13s-45.667 -21.834 -65 -39.501
s-35 -40.167 -47 -67.5s-18 -59.666 -18 -96.999c0 -33.333 5.66699 -63 17 -89s26.5 -48 45.5 -66s40.667 -31.667 65 -41s49.833 -14 76.5 -14c30.667 0 57 4.5 79 13.5s40.333 20.333 55 34s26.167 28.167 34.5 43.5s14.166 29.333 17.499 42l151 -43
c-6 -24.667 -16.5 -51.334 -31.5 -80.001s-36 -55.5 -63 -80.5s-60.5 -45.833 -100.5 -62.5s-87.333 -25 -142 -25z" />
    <glyph glyph-name="D" unicode="D" horiz-adv-x="734" 
d="M330 149c27.333 0 53 4 77 12s45 20.333 63 37s32.167 38 42.5 64s15.5 56.667 15.5 92s-5.16699 66 -15.5 92s-24.5 47.5 -42.5 64.5s-39 29.5 -63 37.5s-49.667 12 -77 12h-92v-411h92zM80 0v709.002h257c53.333 0 101.833 -8.16699 145.5 -24.5
s81.167 -39.833 112.5 -70.5s55.5 -68 72.5 -112s25.5 -93.333 25.5 -148s-8.5 -103.834 -25.5 -147.501s-41.167 -80.834 -72.5 -111.501s-69 -54.167 -113 -70.5s-92.667 -24.5 -146 -24.5h-256z" />
    <glyph glyph-name="E" unicode="E" horiz-adv-x="581" 
d="M80 0v709h449v-149h-291v-135h264v-139h-264v-136h292v-150h-450z" />
    <glyph glyph-name="F" unicode="F" horiz-adv-x="573" 
d="M80 0v709h457v-150h-299v-150h263v-144h-262v-265h-159z" />
    <glyph glyph-name="G" unicode="G" horiz-adv-x="789" 
d="M607 0l-10.0049 72.0049c-15.333 -22.667 -39.666 -42.834 -72.999 -60.501s-75.333 -26.5 -126 -26.5c-49.333 0 -95.833 8.66699 -139.5 26s-81.667 42.166 -114 74.499s-58 71.166 -77 116.499s-28.5 96 -28.5 152s9.83301 106.667 29.5 152
s46.334 84.166 80.001 116.499s72.834 57.333 117.501 75s92 26.5 142 26.5c50.667 0 94.834 -6.83301 132.501 -20.5s69.667 -31 96 -52s47.5 -44.5 63.5 -70.5s28 -51.333 36 -76l-152 -53c-2.66699 10.667 -7.83398 23.167 -15.501 37.5s-18.5 28 -32.5 41
s-31.5 23.833 -52.5 32.5s-46.167 13 -75.5 13c-24 0 -48.333 -4.16699 -73 -12.5s-47.167 -21.5 -67.5 -39.5s-36.833 -41 -49.5 -69s-19 -61.667 -19 -101c0 -37.333 5.66699 -70 17 -98s26.833 -51.333 46.5 -70s42.334 -32.834 68.001 -42.501
s52.834 -14.5 81.501 -14.5c29.333 0 54.5 4.16699 75.5 12.5s38.5 18.5 52.5 30.5s24.833 24.667 32.5 38s12.5 25 14.5 35h-213v134h361v-379h-128z" />
    <glyph glyph-name="H" unicode="H" horiz-adv-x="760" 
d="M521 0v282h-283v-282h-158v709h158v-278h283v278h159v-709h-159z" />
    <glyph glyph-name="I" unicode="I" horiz-adv-x="320" 
d="M80 0v709h160v-709h-160z" />
    <glyph glyph-name="J" unicode="J" horiz-adv-x="570" 
d="M19 266l149.999 25.999v-65c0 -32 8.5 -55.333 25.5 -70s37.167 -22 60.5 -22c26 0 46.333 8.5 61 25.5s22 38.833 22 65.5v483h158v-487c0 -32 -5.83301 -62.5 -17.5 -91.5s-28.167 -54.167 -49.5 -75.5s-46.666 -38.333 -75.999 -51s-61.666 -19 -96.999 -19
s-67.5 5.5 -96.5 16.5s-53.833 26.833 -74.5 47.5s-36.834 45.334 -48.501 74.001s-17.5 60.667 -17.5 96v47z" />
    <glyph glyph-name="K" unicode="K" horiz-adv-x="705" 
d="M318 279l-80 -89v-190h-158v709h158v-298l259 298h208l-276 -307l277 -402h-197z" />
    <glyph glyph-name="L" unicode="L" horiz-adv-x="560" 
d="M80 0v709h158v-558h306v-151h-464z" />
    <glyph glyph-name="M" unicode="M" horiz-adv-x="963" 
d="M728 0v470l-185 -470h-128l-185 464v-464h-150v709h206l195 -479l185 479h217v-709h-155z" />
    <glyph glyph-name="N" unicode="N" horiz-adv-x="776" 
d="M529 0l-292 466v-466h-157v709h192l266 -431v431h158v-709h-167z" />
    <glyph glyph-name="O" unicode="O" horiz-adv-x="815" 
d="M203 355c0 -37.333 6 -69.333 18 -96s27.833 -48.834 47.5 -66.501s41.667 -30.667 66 -39s48.833 -12.5 73.5 -12.5s49.167 4.16699 73.5 12.5s46.166 21.333 65.499 39s35 39.834 47 66.501s18 58.667 18 96c0 36.667 -6 68.667 -18 96s-27.667 49.666 -47 66.999
s-41.166 30.333 -65.499 39s-48.833 13 -73.5 13s-49.167 -4.33301 -73.5 -13s-46.333 -21.667 -66 -39s-35.5 -39.666 -47.5 -66.999s-18 -59.333 -18 -96zM39 354c0 56 9.83301 106.833 29.5 152.5s46.334 84.667 80.001 117s72.834 57.166 117.501 74.499s92 26 142 26
s97.167 -8.66699 141.5 -26s83.333 -42.166 117 -74.499s60.334 -71.333 80.001 -117s29.5 -96.5 29.5 -152.5s-9.83301 -106.667 -29.5 -152s-46.334 -84.166 -80.001 -116.499s-72.667 -57.166 -117 -74.499s-91.5 -26 -141.5 -26s-97.333 8.66699 -142 26
s-83.834 42.166 -117.501 74.499s-60.334 71.166 -80.001 116.499s-29.5 96 -29.5 152z" />
    <glyph glyph-name="P" unicode="P" horiz-adv-x="612" 
d="M331 391c30 0 54.333 8 73 24s28 38 28 66c0 28.667 -9.33301 51 -28 67s-43 24 -73 24h-92v-181h92zM238 255v-255h-158v709h267c36 0 68.833 -5.66699 98.5 -17s55.334 -27 77.001 -47s38.334 -44 50.001 -72s17.5 -58.333 17.5 -91c0 -33.333 -5.83301 -64 -17.5 -92
s-28.334 -52 -50.001 -72s-47.334 -35.5 -77.001 -46.5s-62.5 -16.5 -98.5 -16.5h-109z" />
    <glyph glyph-name="Q" unicode="Q" horiz-adv-x="815" 
d="M39 354c0 56 9.83105 106.835 29.498 152.502s46.334 84.667 80.001 117s72.834 57.166 117.501 74.499s92 26 142 26s97.167 -8.66699 141.5 -26s83.333 -42.166 117 -74.499s60.334 -71.333 80.001 -117s29.5 -96.5 29.5 -152.5c0 -48 -7 -91.667 -21 -131
s-33.667 -74.333 -59 -105l87 -95l-104 -88l-87 96c-55.333 -30.667 -116.666 -46 -183.999 -46c-50 0 -97.333 8.66699 -142 26s-83.834 42.166 -117.501 74.499s-60.334 71.166 -80.001 116.499s-29.5 96 -29.5 152zM202.998 355.002
c0 -37.333 5.99805 -69.332 17.998 -95.999s27.833 -48.834 47.5 -66.501s41.667 -30.667 66 -39s48.833 -12.5 73.5 -12.5c24 0 48 4 72 12l-104 114l105 88l104 -114c8.66699 15.333 15.334 32.333 20.001 51s7 39.667 7 63c0 36.667 -6 68.667 -18 96
s-27.667 49.666 -47 66.999s-41.166 30.333 -65.499 39s-48.833 13 -73.5 13s-49.167 -4.33301 -73.5 -13s-46.333 -21.667 -66 -39s-35.5 -39.666 -47.5 -66.999s-18 -59.333 -18 -96z" />
    <glyph glyph-name="R" unicode="R" horiz-adv-x="634" 
d="M294 264h-56v-264h-158v709h281c34.667 0 66.167 -5.66699 94.5 -17s52.5 -27 72.5 -47s35.5 -43.5 46.5 -70.5s16.5 -56.167 16.5 -87.5c0 -48 -12.333 -89.5 -37 -124.5s-59 -60.167 -103 -75.5l144 -287h-174zM331 400c32.667 0 57.5 8 74.5 24s25.5 36.667 25.5 62
c0 26.667 -8.5 47.667 -25.5 63s-41.833 23 -74.5 23h-93v-172h93z" />
    <glyph glyph-name="S" unicode="S" horiz-adv-x="623" 
d="M429 495c-1.33301 8 -4.16699 17.1689 -8.5 27.502s-11 20 -20 29s-20.833 16.667 -35.5 23s-32.667 9.5 -54 9.5c-29.333 0 -52.833 -7.83301 -70.5 -23.5s-26.5 -33.167 -26.5 -52.5c0 -17.333 5.5 -31.833 16.5 -43.5s28.833 -19.834 53.5 -24.501l95 -18
c34 -6 63.667 -15.833 89 -29.5s46.666 -29.834 63.999 -48.501s30.333 -39.5 39 -62.5s13 -47.167 13 -72.5c0 -28 -5.66699 -55.333 -17 -82s-28.166 -50.5 -50.499 -71.5s-49.833 -38 -82.5 -51s-70 -19.5 -112 -19.5c-49.333 0 -91.666 7.16699 -126.999 21.5
s-64.666 32.5 -87.999 54.5s-41 46.333 -53 73s-19.333 52.667 -22 78l145 35c1.33301 -16 5.16602 -31.5 11.499 -46.5s15.5 -28 27.5 -39s27 -19.833 45 -26.5s39 -10 63 -10c31.333 0 55.833 6.83301 73.5 20.5s26.5 31.5 26.5 53.5c0 18 -6.83301 33.167 -20.5 45.5
s-32.167 20.833 -55.5 25.5l-97 18c-60.667 11.333 -108 35.666 -142 72.999s-51 82.333 -51 135c0 33.333 6.83301 64 20.5 92s32.167 52 55.5 72s50.333 35.667 81 47s63 17 97 17c44 0 81.667 -6 113 -18s57.166 -27.167 77.499 -45.5s35.833 -38.666 46.5 -60.999
s18 -43.833 22 -64.5z" />
    <glyph glyph-name="T" unicode="T" horiz-adv-x="629" 
d="M393 558v-558h-158v558h-218v151h595v-151h-219z" />
    <glyph glyph-name="U" unicode="U" horiz-adv-x="708" 
d="M354 -16c-39.333 0 -76.001 5.83301 -110.001 17.5s-63.667 29 -89 52s-45.333 51.333 -60 85s-22 72.834 -22 117.501v453h158v-440c0 -43.333 11 -75.666 33 -96.999s52 -32 90 -32s68 10.667 90 32s33 53.666 33 96.999v440h158v-453
c0 -44.667 -7.33301 -83.834 -22 -117.501s-34.667 -62 -60 -85s-55.166 -40.333 -89.499 -52s-70.833 -17.5 -109.5 -17.5z" />
    <glyph glyph-name="V" unicode="V" horiz-adv-x="699" 
d="M522 709h168l-259 -709h-163l-260 709h174l171 -499z" />
    <glyph glyph-name="W" unicode="W" horiz-adv-x="1052" 
d="M873 709h162l-193 -709h-163l-151 470l-152 -470h-166l-193 709h168l117 -454l147 454h162l147 -455z" />
    <glyph glyph-name="X" unicode="X" horiz-adv-x="668" 
d="M433 353l230 -353h-192l-140 230l-139 -230h-186l229 355l-229 354h190l140 -230l140 230h185z" />
    <glyph glyph-name="Y" unicode="Y" horiz-adv-x="671" 
d="M10 709h185l145 -263l147 263h176l-249 -413v-296h-158v296z" />
    <glyph glyph-name="Z" unicode="Z" horiz-adv-x="649" 
d="M41 0v152l342 406h-327v151h544v-146l-350 -412h354v-151h-563z" />
    <glyph glyph-name="bracketleft" unicode="[" horiz-adv-x="341" 
d="M66 -171v994h249v-114h-123v-764h123v-116h-249z" />
    <glyph glyph-name="backslash" unicode="\" horiz-adv-x="530" 
d="M23 709h138l345 -709h-137z" />
    <glyph glyph-name="bracketright" unicode="]" horiz-adv-x="342" 
d="M26 -171v116h124v764h-124v114h250v-994h-250z" />
    <glyph glyph-name="asciicircum" unicode="^" horiz-adv-x="575" 
d="M405 350l-116 217l-117 -217h-140l199 359h112l200 -359h-138z" />
    <glyph glyph-name="underscore" unicode="_" horiz-adv-x="520" 
d="M5 -124v124h510v-124h-510z" />
    <glyph glyph-name="grave" unicode="`" horiz-adv-x="308" 
d="M21 707h173l93 -151h-124z" />
    <glyph glyph-name="a" unicode="a" horiz-adv-x="545" 
d="M37 137c0 22 3.82715 41.667 11.4941 59s18.167 32.166 31.5 44.499s28.833 22.333 46.5 30s36.834 13.167 57.501 16.5l117 18c13.333 2 22.666 6 27.999 12s8 13.333 8 22c0 14.667 -6.16699 27.334 -18.5 38.001s-30.5 16 -54.5 16
c-26.667 0 -47.167 -7.5 -61.5 -22.5s-22.166 -31.833 -23.499 -50.5l-132 27c1.33301 18 6.66602 36.667 15.999 56s22.833 37 40.5 53s39.834 29.333 66.501 40s58.334 16 95.001 16c40 0 74 -5.16699 102 -15.5s50.833 -24.333 68.5 -42s30.334 -38.167 38.001 -61.5
s11.5 -47.666 11.5 -72.999v-243c0 -19.333 0.833008 -36.333 2.5 -51s2.83398 -23.334 3.50098 -26.001h-137c-0.666992 2 -1.66699 7.5 -3 16.5s-2 22.167 -2 39.5c-13.333 -21.333 -31.666 -38.333 -54.999 -51s-51.666 -19 -84.999 -19
c-27.333 0 -51.666 4.16699 -72.999 12.5s-39.333 19.5 -54 33.5s-25.834 30 -33.501 48s-11.5 37 -11.5 57zM245.994 96c11.333 0 22.501 1.49707 33.501 4.49707s20.667 8.33301 29 16s15.166 17.834 20.499 30.501s8 28.667 8 48v22l-94 -15
c-16 -2.66699 -29.333 -8.16699 -40 -16.5s-16 -21.166 -16 -38.499c0 -13.333 4.5 -25.166 13.5 -35.499s24.167 -15.5 45.5 -15.5z" />
    <glyph glyph-name="b" unicode="b" horiz-adv-x="625" 
d="M64 0l-0.00488281 724h149v-274c10.667 15.333 28.834 29 54.501 41s55.5 18 89.5 18c36 0 68.333 -6.5 97 -19.5s52.834 -31 72.501 -54s34.834 -50.333 45.501 -82s16 -66.167 16 -103.5c0 -38 -5.83301 -73 -17.5 -105s-28 -59.5 -49 -82.5s-46 -41 -75 -54
s-60.833 -19.5 -95.5 -19.5c-33.333 0 -62.166 6.33301 -86.499 19s-42.166 28.667 -53.499 48v-56h-147zM435.995 249c0 20.667 -3 38.8311 -9 54.498s-14.167 28.5 -24.5 38.5s-22.333 17.5 -36 22.5s-27.834 7.5 -42.501 7.5s-28.834 -2.5 -42.501 -7.5
s-25.667 -12.5 -36 -22.5s-18.666 -22.833 -24.999 -38.5s-9.5 -33.834 -9.5 -54.501s3.16699 -38.667 9.5 -54s14.666 -28.166 24.999 -38.499s22.333 -18.166 36 -23.499s27.834 -8 42.501 -8s28.834 2.5 42.501 7.5s25.667 12.667 36 23s18.5 23.333 24.5 39
s9 33.834 9 54.501z" />
    <glyph glyph-name="c" unicode="c" horiz-adv-x="567" 
d="M301 372c-16 0 -30.8359 -2.66602 -44.5029 -7.99902s-25.667 -13.333 -36 -24s-18.5 -23.667 -24.5 -39s-9 -33 -9 -53s3.16699 -37.5 9.5 -52.5s14.666 -27.833 24.999 -38.5s22.5 -18.667 36.5 -24s29 -8 45 -8c29.333 0 52.5 7.66699 69.5 23s28.167 32.333 33.5 51
l134 -41c-5.33301 -22 -14.5 -43.333 -27.5 -64s-29.5 -39 -49.5 -55s-43.333 -29 -70 -39s-56.667 -15 -90 -15c-37.333 0 -72.166 6.5 -104.499 19.5s-60.5 31.167 -84.5 54.5s-43 51 -57 83s-21 67.333 -21 106s6.83301 74.167 20.5 106.5s32.334 60.166 56.001 83.499
s51.334 41.5 83.001 54.5s65.834 19.5 102.501 19.5c34 0 64.667 -4.83301 92 -14.5s51 -22.5 71 -38.5s36.333 -34.5 49 -55.5s21.667 -42.5 27 -64.5l-136 -41c-2.66699 9.33301 -6.66699 18.5 -12 27.5s-12 17 -20 24s-17.667 12.5 -29 16.5s-24.333 6 -39 6z" />
    <glyph glyph-name="d" unicode="d" horiz-adv-x="627" 
d="M562 89c0 -22.667 0.503906 -41.833 1.50391 -57.5s1.83301 -26.167 2.5 -31.5h-146c-0.666992 3.33301 -1.5 9.66602 -2.5 18.999s-1.5 19 -1.5 29c-11.333 -17.333 -28.833 -31.5 -52.5 -42.5s-50.5 -16.5 -80.5 -16.5c-35.333 0 -68 6.5 -98 19.5s-56 31 -78 54
s-39.167 50.5 -51.5 82.5s-18.5 67 -18.5 105c0 36.667 6 70.834 18 102.501s28.667 59.167 50 82.5s46.666 41.5 75.999 54.5s61.666 19.5 96.999 19.5c21.333 0 39.666 -1.83301 54.999 -5.5s28.333 -8 39 -13s19.167 -10.5 25.5 -16.5s11.166 -11.333 14.499 -16v266h150
v-635zM190.004 249.001c0 -20.667 3 -38.667 9 -54s14.167 -28.166 24.5 -38.499s22.333 -18.166 36 -23.499s27.834 -8 42.501 -8s28.834 2.66699 42.501 8s25.667 13.166 36 23.499s18.5 23.166 24.5 38.499s9 33.333 9 54s-3 38.667 -9 54s-14.167 28.166 -24.5 38.499
s-22.333 18 -36 23s-27.834 7.5 -42.501 7.5s-28.834 -2.5 -42.501 -7.5s-25.667 -12.667 -36 -23s-18.5 -23.166 -24.5 -38.499s-9 -33.333 -9 -54z" />
    <glyph glyph-name="e" unicode="e" horiz-adv-x="570" 
d="M386 308c-0.666992 9.33301 -2.83398 19 -6.50098 29s-9.5 19 -17.5 27s-18.167 14.667 -30.5 20s-27.5 8 -45.5 8c-16 0 -30 -2.66699 -42 -8s-22.167 -12 -30.5 -20s-14.666 -17 -18.999 -27s-6.83301 -19.667 -7.5 -29h199zM524 143
c-6 -21.333 -15.3291 -41.666 -27.9961 -60.999s-28.667 -36.166 -48 -50.499s-41.833 -25.666 -67.5 -33.999s-54.167 -12.5 -85.5 -12.5c-34 0 -66.667 6 -98 18s-59 29.333 -83 52s-43 50.334 -57 83.001s-21 70 -21 112c0 40 6.83301 76.167 20.5 108.5
s32 59.833 55 82.5s49.5 40.167 79.5 52.5s61 18.5 93 18.5c77.333 0 138.166 -22.333 182.499 -67s66.5 -107.334 66.5 -188.001c0 -10.667 -0.333008 -20.834 -1 -30.501s-1.33398 -15.167 -2.00098 -16.5h-346c0.666992 -14 4.16699 -26.833 10.5 -38.5
s14.666 -21.834 24.999 -30.501s22.166 -15.334 35.499 -20.001s27.333 -7 42 -7c28 0 49.833 6 65.5 18s27.167 27.667 34.5 47z" />
    <glyph glyph-name="f" unicode="f" horiz-adv-x="388" 
d="M262 369l0.000976562 -369h-152v369h-79v128h79v43c0 28.667 4.16699 54.667 12.5 78s20.666 43.5 36.999 60.5s36.333 30.167 60 39.5s50.5 14 80.5 14c15.333 0 29.333 -1 42 -3s22.667 -4.66699 30 -8v-124c-4 1.33301 -9.5 2.5 -16.5 3.5s-16.5 1.5 -28.5 1.5
c-6.66699 0 -13.834 -0.833008 -21.501 -2.5s-14.667 -5 -21 -10s-11.666 -11.833 -15.999 -20.5s-6.5 -20 -6.5 -34v-38h108v-128h-108z" />
    <glyph glyph-name="g" unicode="g" horiz-adv-x="614" 
d="M170 10c5.33301 -24 17.3369 -43.832 36.0039 -59.499s42.334 -23.5 71.001 -23.5c38 0 68 9.83301 90 29.5s33 52.167 33 97.5v23c-9.33301 -13.333 -24.833 -26 -46.5 -38s-50.5 -18 -86.5 -18c-33.333 0 -64 6.16699 -92 18.5s-52.333 29.333 -73 51
s-36.834 47.167 -48.501 76.5s-17.5 61.333 -17.5 96c0 32.667 5.66699 63.667 17 93s27.166 55.166 47.499 77.499s44.666 40 72.999 53s59.5 19.5 93.5 19.5c20 0 37.833 -2 53.5 -6s29.167 -9 40.5 -15s20.666 -12.667 27.999 -20s12.666 -14.333 15.999 -21v53h145v-435
c0 -36 -5.16699 -70 -15.5 -102s-26.333 -60.333 -48 -85s-49.167 -44.167 -82.5 -58.5s-73.333 -21.5 -120 -21.5c-36 0 -68.5 5 -97.5 15s-54 23.333 -75 40s-38 35.667 -51 57s-21.167 43 -24.5 65zM295.004 153.001c31.333 0 56.834 9.83301 76.501 29.5
s29.5 46.5 29.5 80.5c0 16.667 -2.83301 31.834 -8.5 45.501s-13.334 25.334 -23.001 35.001s-21 17 -34 22s-26.5 7.5 -40.5 7.5s-27.5 -2.5 -40.5 -7.5s-24.5 -12.333 -34.5 -22s-17.833 -21.334 -23.5 -35.001s-8.5 -28.834 -8.5 -45.501
c0 -34 10.167 -60.833 30.5 -80.5s45.833 -29.5 76.5 -29.5z" />
    <glyph glyph-name="h" unicode="h" horiz-adv-x="590" 
d="M216 0l-152 0.000976562v724h152v-259c15.333 15.333 34.833 26.666 58.5 33.999s46.5 11 68.5 11c32.667 0 60.834 -5.16699 84.501 -15.5s43.167 -24.5 58.5 -42.5s26.666 -39 33.999 -63s11 -49.667 11 -77v-312h-152v286c0 24.667 -6.5 45.167 -19.5 61.5
s-33.5 24.5 -61.5 24.5c-24 0 -43.333 -7.5 -58 -22.5s-22.667 -34.167 -24 -57.5v-292z" />
    <glyph glyph-name="i" unicode="i" horiz-adv-x="280" 
d="M64 0v497h152v-497h-152zM51 649c0 12 2.33301 23.5 7 34.5s11 20.5 19 28.5s17.333 14.333 28 19s22 7 34 7c25.333 0 46.666 -8.66699 63.999 -26s26 -38.333 26 -63s-8.66699 -45.667 -26 -63s-38.666 -26 -63.999 -26c-12 0 -23.333 2.33301 -34 7s-20 11 -28 19
s-14.333 17.5 -19 28.5s-7 22.5 -7 34.5z" />
    <glyph glyph-name="j" unicode="j" horiz-adv-x="280" 
d="M64 497l152 0.000976562v-533c0 -25.333 -3.83301 -48.333 -11.5 -69s-18.5 -38.334 -32.5 -53.001s-31.167 -26.167 -51.5 -34.5s-43.166 -12.5 -68.499 -12.5c-26.667 0 -46.5 2 -59.5 6s-21.167 6.66699 -24.5 8v126c3.33301 -1.33301 8.83301 -2.66602 16.5 -3.99902
s17.167 -2 28.5 -2c17.333 0 30.166 4.66699 38.499 14s12.5 21.666 12.5 36.999v517zM51 649.001c0 25.333 8.66699 46.5 26 63.5s38 25.5 62 25.5c25.333 0 46.666 -8.5 63.999 -25.5s26 -38.167 26 -63.5c0 -24.667 -8.66699 -45.667 -26 -63s-38.666 -26 -63.999 -26
c-12 0 -23.333 2.33301 -34 7s-20 11 -28 19s-14.333 17.5 -19 28.5s-7 22.5 -7 34.5z" />
    <glyph glyph-name="k" unicode="k" horiz-adv-x="575" 
d="M370 288l198 -288h-186l-117 175l-49 -53v-122h-152v724h152v-394l151 167h197z" />
    <glyph glyph-name="l" unicode="l" horiz-adv-x="280" 
d="M64 0v724h152v-724h-152z" />
    <glyph glyph-name="m" unicode="m" horiz-adv-x="897" 
d="M64 0l0.000976562 497.004h145v-57c6 10.667 14.333 20.5 25 29.5s22.5 16.667 35.5 23s26.667 11.166 41 14.499s28.166 5 41.499 5c36 0 66.333 -6.83301 91 -20.5s43.334 -32.834 56.001 -57.501c19.333 28 41.333 48 66 60s54 18 88 18
c23.333 0 46.166 -3.5 68.499 -10.5s42 -18.167 59 -33.5s30.667 -35 41 -59s15.5 -53 15.5 -87v-322h-147v288c0 23.333 -6.33301 43.166 -19 59.499s-32.667 24.5 -60 24.5s-48 -8.66699 -62 -26s-21 -37 -21 -59v-287h-150v288c0 23.333 -6.33301 43.166 -19 59.499
s-33 24.5 -61 24.5c-26.667 0 -47 -8.66699 -61 -26s-21 -37.333 -21 -60v-286h-152z" />
    <glyph glyph-name="n" unicode="n" horiz-adv-x="590" 
d="M216 0l-152.002 -0.00195312v497h147v-57c6.66699 12 15.334 22.333 26.001 31s22.167 15.834 34.5 21.501s25.333 10 39 13s26.834 4.5 39.501 4.5c31.333 0 58.333 -5.16699 81 -15.5s41.5 -24.5 56.5 -42.5s26 -39 33 -63s10.5 -49.667 10.5 -77v-312h-152v286
c0 24.667 -6.5 45.167 -19.5 61.5s-33.5 24.5 -61.5 24.5c-25.333 0 -45.333 -8.16699 -60 -24.5s-22 -37.166 -22 -62.499v-285z" />
    <glyph glyph-name="o" unicode="o" horiz-adv-x="600" 
d="M300 125c14.667 0 28.667 2.50293 42 7.50293s25.166 12.667 35.499 23s18.666 23.166 24.999 38.499s9.5 33.666 9.5 54.999c0 20.667 -3.16699 38.834 -9.5 54.501s-14.666 28.5 -24.999 38.5s-22.166 17.5 -35.499 22.5s-27.333 7.5 -42 7.5
c-14 0 -27.833 -2.5 -41.5 -7.5s-25.667 -12.5 -36 -22.5s-18.666 -22.833 -24.999 -38.5s-9.5 -33.834 -9.5 -54.501s3.16699 -38.834 9.5 -54.501s14.666 -28.667 24.999 -39s22.333 -18 36 -23s27.5 -7.5 41.5 -7.5zM300 512.003c37.333 0 72 -6.5 104 -19.5
s59.833 -31.167 83.5 -54.5s42.334 -51 56.001 -83s20.5 -67.333 20.5 -106s-6.83301 -74.167 -20.5 -106.5s-32.334 -60.166 -56.001 -83.499s-51.5 -41.5 -83.5 -54.5s-66.667 -19.5 -104 -19.5s-72 6.5 -104 19.5s-59.833 31.167 -83.5 54.5
s-42.334 51.166 -56.001 83.499s-20.5 67.833 -20.5 106.5s6.83301 74 20.5 106s32.334 59.667 56.001 83s51.5 41.5 83.5 54.5s66.667 19.5 104 19.5z" />
    <glyph glyph-name="p" unicode="p" horiz-adv-x="625" 
d="M64 -190l-0.00292969 687h147v-51c10.667 16 28.667 30.5 54 43.5s56 19.5 92 19.5s68.333 -6.5 97 -19.5s52.834 -31 72.501 -54s34.834 -50.333 45.501 -82s16 -66.167 16 -103.5c0 -38 -5.83301 -73 -17.5 -105s-28 -59.5 -49 -82.5s-46 -41 -75 -54
s-60.833 -19.5 -95.5 -19.5c-32 0 -59.667 4.83301 -83 14.5s-40.666 21.5 -51.999 35.5v-229h-152zM438.997 249c0 20.667 -3 38.6641 -9 53.9971s-14.333 28.166 -25 38.499s-22.834 18 -36.501 23s-27.834 7.5 -42.501 7.5s-28.834 -2.5 -42.501 -7.5
s-25.667 -12.667 -36 -23s-18.5 -23.166 -24.5 -38.499s-9 -33.333 -9 -54s3 -38.667 9 -54s14.167 -28.166 24.5 -38.499s22.333 -18.166 36 -23.499s27.834 -8 42.501 -8s28.834 2.5 42.501 7.5s25.834 12.667 36.501 23s19 23.333 25 39s9 33.834 9 54.501z" />
    <glyph glyph-name="q" unicode="q" horiz-adv-x="626" 
d="M413 -190v229.997c-11.333 -15.333 -28 -27.666 -50 -36.999s-48.667 -14 -80 -14c-35.333 0 -68 6.5 -98 19.5s-56 31 -78 54s-39.167 50.5 -51.5 82.5s-18.5 67 -18.5 105c0 36.667 5.83301 70.834 17.5 102.501s28 59.167 49 82.5s46.333 41.5 76 54.5
s62.167 19.5 97.5 19.5c22 0 41.167 -2.16699 57.5 -6.5s30.166 -9.66602 41.499 -15.999s20.333 -13 27 -20s11.334 -13.167 14.001 -18.5v49h145v-687h-149zM191 248.997c0 -20.667 3 -38.6699 9 -54.0029s14.167 -28.166 24.5 -38.499s22.333 -18.166 36 -23.499
s27.834 -8 42.501 -8s28.834 2.5 42.501 7.5s25.667 12.667 36 23s18.5 23.333 24.5 39s9 33.834 9 54.501s-3 38.667 -9 54s-14.167 28.166 -24.5 38.499s-22.333 18 -36 23s-27.834 7.5 -42.501 7.5s-28.834 -2.5 -42.501 -7.5s-25.667 -12.667 -36 -23
s-18.5 -23.166 -24.5 -38.499s-9 -33.333 -9 -54z" />
    <glyph glyph-name="r" unicode="r" horiz-adv-x="401" 
d="M380 347c-8.66699 2 -16.999 3.33594 -24.999 4.00293s-15.667 1 -23 1c-15.333 0 -30 -2.33301 -44 -7s-26.333 -12.334 -37 -23.001s-19.167 -24.667 -25.5 -42s-9.5 -38.333 -9.5 -63v-217h-152v497h147v-67c6.66699 14 15.167 25.667 25.5 35
s21.5 16.666 33.5 21.999s24.167 9.16602 36.5 11.499s23.5 3.5 33.5 3.5c15.333 0 28.666 -1.66699 39.999 -5v-150z" />
    <glyph glyph-name="s" unicode="s" horiz-adv-x="480" 
d="M163 164c1.33301 -17.333 8.1709 -32.832 20.5039 -46.499s31.5 -20.5 57.5 -20.5c19.333 0 33.833 4.33301 43.5 13s14.5 18.667 14.5 30c0 9.33301 -3.5 17.5 -10.5 24.5s-19.833 12.5 -38.5 16.5l-57 13c-26.667 6 -49.334 14 -68.001 24s-34 21.667 -46 35
s-20.667 28 -26 44s-8 32.667 -8 50c0 22.667 4.66699 44 14 64s22.5 37.5 39.5 52.5s37.167 26.833 60.5 35.5s49 13 77 13c36 0 66.333 -5 91 -15s44.834 -22.5 60.501 -37.5s27.167 -31 34.5 -48s11.666 -32.833 12.999 -47.5l-126 -23c-2 16.667 -8.5 31 -19.5 43
s-28.167 18 -51.5 18c-14.667 0 -27.334 -3.83301 -38.001 -11.5s-16 -18.167 -16 -31.5c0 -10.667 3.66699 -19 11 -25s16.666 -10 27.999 -12l66 -13c52 -10.667 90.5 -30.167 115.5 -58.5s37.5 -60.833 37.5 -97.5c0 -21.333 -4 -42 -12 -62s-20.333 -37.833 -37 -53.5
s-37.334 -28.334 -62.001 -38.001s-53.667 -14.5 -87 -14.5c-39.333 0 -72.166 5.5 -98.499 16.5s-47.5 24.5 -63.5 40.5s-27.833 33 -35.5 51s-11.834 34 -12.501 48z" />
    <glyph glyph-name="t" unicode="t" horiz-adv-x="394" 
d="M258 497l97 0.000976562v-133h-97v-186c0 -20.667 5 -34.5 15 -41.5s23.333 -10.5 40 -10.5c8 0 15.5 0.5 22.5 1.5s12.833 2.16699 17.5 3.5v-126c-3.33301 -1.33301 -11.333 -4 -24 -8s-31 -6 -55 -6c-52 0 -92.667 14.167 -122 42.5s-44 67.5 -44 117.5v213h-88v133
h25c26 0 45.333 7.66699 58 23s19 34.666 19 57.999v64h136v-145z" />
    <glyph glyph-name="u" unicode="u" horiz-adv-x="591" 
d="M385 0c-1.33301 4.66699 -2.33301 12.5 -3 23.5s-1 19.833 -1 26.5c-13.333 -21.333 -32.5 -36.833 -57.5 -46.5s-50.167 -14.5 -75.5 -14.5c-30 0 -56.833 5.16699 -80.5 15.5s-43.5 24.333 -59.5 42s-28.167 38.167 -36.5 61.5s-12.5 48.333 -12.5 75v314h152v-282
c0 -24 6.5 -44.333 19.5 -61s33.167 -25 60.5 -25c25.333 0 45.5 7.83301 60.5 23.5s22.5 36.167 22.5 61.5v283h152v-408c0 -22.667 0.666992 -42.167 2 -58.5s2.33301 -26.5 3 -30.5h-146z" />
    <glyph glyph-name="v" unicode="v" horiz-adv-x="569" 
d="M365 0h-153l-204 497h165l115 -309l106 309h160z" />
    <glyph glyph-name="w" unicode="w" horiz-adv-x="862" 
d="M516 497l97 -295l83 295h149l-154 -497h-151l-108 321l-106 -321h-154l-156 497h158l83 -294l98 294h161z" />
    <glyph glyph-name="x" unicode="x" horiz-adv-x="551" 
d="M185 248l-174 249h179l89 -136l87 136h170l-172 -243l88.5 -127l89.5 -127h-178l-92 140l-22 -33l-24 -36.5l-23.5 -37l-21.5 -33.5h-167z" />
    <glyph glyph-name="y" unicode="y" horiz-adv-x="577" 
d="M105 -191l113 258l-209 430h170l121 -266l110 266h161l-306 -688h-160z" />
    <glyph glyph-name="z" unicode="z" horiz-adv-x="506" 
d="M45 0v134l219 233h-213v130h407v-125l-229 -241h233v-131h-417z" />
    <glyph glyph-name="braceleft" unicode="{" horiz-adv-x="380" 
d="M18 393c28 0 51.001 6.66504 69.001 19.998s27 36 27 68v145c0 66.667 18.167 116.167 54.5 148.5s84.5 48.5 144.5 48.5h40v-114h-37c-18.667 0 -36 -5.83301 -52 -17.5s-24 -32.834 -24 -63.501v-170c0 -30.667 -8.5 -57.167 -25.5 -79.5s-41.5 -38.166 -73.5 -47.499
c32 -9.33301 56.5 -25.166 73.5 -47.499s25.5 -49.166 25.5 -80.499v-170c0 -15.333 2.16699 -28.333 6.5 -39s10.166 -19.167 17.499 -25.5s15.5 -10.833 24.5 -13.5s18.167 -4 27.5 -4h37v-113h-40c-60 0 -108.167 15.833 -144.5 47.5s-54.5 81.167 -54.5 148.5v146
c0 32 -9 54.833 -27 68.5s-41 20.5 -69 20.5v124z" />
    <glyph glyph-name="bar" unicode="|" horiz-adv-x="258" 
d="M66 -162v985h126v-985h-126z" />
    <glyph glyph-name="braceright" unicode="}" horiz-adv-x="380" 
d="M361 269c-28 0 -50.833 -6.82812 -68.5 -20.4951s-26.5 -36.5 -26.5 -68.5v-146c0 -67.333 -18.167 -116.833 -54.5 -148.5s-84.833 -47.5 -145.5 -47.5h-40v113h37c9.33301 0 18.5 1.33301 27.5 4s17.167 7.16699 24.5 13.5s13.333 14.833 18 25.5s7 23.667 7 39v170
c0 31.333 8.33301 58.166 25 80.499s41 38.166 73 47.499c-32 9.33301 -56.333 25.166 -73 47.499s-25 48.833 -25 79.5v170c0 15.333 -2.33301 28.166 -7 38.499s-10.667 18.666 -18 24.999s-15.5 10.833 -24.5 13.5s-18.167 4 -27.5 4h-37v114h40
c60.667 0 109.167 -16 145.5 -48s54.5 -81.667 54.5 -149v-145c0 -32 8.83301 -54.667 26.5 -68s40.5 -20 68.5 -20v-124z" />
    <glyph glyph-name="asciitilde" unicode="~" horiz-adv-x="631" 
d="M259 256c-15.333 8.66699 -31.666 13 -48.999 13c-34.667 0 -63 -16.667 -85 -50l-82 65c18.667 36 43 63.333 73 82s63 28 99 28c36.667 0 73 -9.66699 109 -29l48 -26c17.333 -9.33301 34.333 -14 51 -14c16 0 31.333 4.16699 46 12.5s27.667 20.833 39 37.5l80 -65
c-18.667 -36 -42.834 -63.333 -72.501 -82s-62.5 -28 -98.5 -28c-37.333 0 -74.333 10 -111 30z" />
    <glyph glyph-name="uni00A0" unicode="&#xa0;" horiz-adv-x="232" 
 />
    <glyph glyph-name="exclamdown" unicode="&#xa1;" horiz-adv-x="276" 
d="M229 -206h-182l35 487h112zM52 426c0 24 8.33496 44.333 25.002 61s37 25 61 25s44.5 -8.33301 61.5 -25s25.5 -37 25.5 -61c0 -12 -2.33301 -23.167 -7 -33.5s-10.834 -19.333 -18.501 -27s-16.834 -13.834 -27.501 -18.501s-22 -7 -34 -7s-23.167 2.33301 -33.5 7
s-19.5 10.834 -27.5 18.501s-14.167 16.667 -18.5 27s-6.5 21.5 -6.5 33.5z" />
    <glyph glyph-name="cent" unicode="&#xa2;" horiz-adv-x="575" 
d="M249 0l-0.000976562 96.002c-30 6 -57.833 16.5 -83.5 31.5s-47.667 33.667 -66 56s-32.833 47.833 -43.5 76.5s-16 59.667 -16 93c0 34 5.33301 65.5 16 94.5s25.167 54.667 43.5 77s40.333 41 66 56s53.5 25.5 83.5 31.5v97h115v-99
c24.667 -5.33301 46.834 -13.5 66.501 -24.5s37 -23.833 52 -38.5s27.333 -30.834 37 -48.501s16.834 -35.834 21.501 -54.501l-136 -41c-2.66699 9.33301 -6.66699 18.5 -12 27.5s-12 17 -20 24s-17.667 12.5 -29 16.5s-24.333 6 -39 6c-16 0 -30.833 -2.66699 -44.5 -8
s-25.667 -13.333 -36 -24s-18.5 -23.667 -24.5 -39s-9 -33 -9 -53s3.16699 -37.5 9.5 -52.5s14.666 -27.833 24.999 -38.5s22.5 -18.667 36.5 -24s29 -8 45 -8c29.333 0 52.5 7.66699 69.5 23s28.167 32.333 33.5 51l134 -41c-4.66699 -18.667 -12 -36.834 -22 -54.501
s-22.667 -34 -38 -49s-33 -28.167 -53 -39.5s-42.333 -19.666 -67 -24.999v-95h-115z" />
    <glyph glyph-name="sterling" unicode="&#xa3;" horiz-adv-x="623" 
d="M117 413c-5.33301 15.333 -9.66504 31.8311 -12.998 49.498s-5 38.167 -5 61.5c0 25.333 5 50 15 74s24.667 45.333 44 64s43 33.667 71 45s60 17 96 17c40.667 0 74.667 -6.16699 102 -18.5s49.333 -28.166 66 -47.499s28.667 -40.666 36 -63.999s11 -45.666 11 -66.999
l-132 -19c-0.666992 26.667 -7.33398 48.667 -20.001 66s-33 26 -61 26c-22 0 -41.333 -7.33301 -58 -22s-25 -36 -25 -64c0 -19.333 2.16699 -37.166 6.5 -53.499s9.16602 -32.166 14.499 -47.499h192v-110h-162c0.666992 -4.66699 1.16699 -9.33398 1.5 -14.001
s0.5 -9.33398 0.5 -14.001c0 -26.667 -4.66699 -53.667 -14 -81s-25.333 -48.666 -48 -63.999h140c25.333 0 45.833 7.66699 61.5 23s23.5 35.666 23.5 60.999l132 -8c0 -30.667 -4.5 -58.667 -13.5 -84s-22 -47 -39 -65s-37.667 -32 -62 -42s-51.833 -15 -82.5 -15h-343
v118c32 11.333 57.333 29.666 76 54.999s28 54.333 28 87c0 7.33301 -0.333008 14.5 -1 21.5s-1.66699 14.167 -3 21.5h-97v110h62z" />
    <glyph glyph-name="currency" unicode="&#xa4;" horiz-adv-x="619" 
d="M92 354c0 36 8.33496 69.667 25.002 101l-71 72l91 90l74 -74c30.667 15.333 63.667 23 99 23c17.333 0 34.666 -2 51.999 -6s32.666 -9.66699 45.999 -17l74 74l91 -90l-71 -72c8 -13.333 14.333 -28.833 19 -46.5s7 -35.834 7 -54.501
c0 -19.333 -2.33301 -37.333 -7 -54s-11 -32.667 -19 -48l71 -70l-91 -91l-73 74c-30.667 -15.333 -63.667 -23 -99 -23s-68.333 7.66699 -99 23l-74 -74l-91 91l72 71c-8 13.333 -14.333 28.833 -19 46.5s-7 35.834 -7 54.501zM217.002 354c0 -26.667 8.5 -48.5 25.5 -65.5
s39.5 -25.5 67.5 -25.5s50.5 8.5 67.5 25.5s25.5 38.833 25.5 65.5s-8.5 48.5 -25.5 65.5s-39.5 25.5 -67.5 25.5s-50.5 -8.5 -67.5 -25.5s-25.5 -38.833 -25.5 -65.5z" />
    <glyph glyph-name="yen" unicode="&#xa5;" horiz-adv-x="690" 
d="M422 125v-125h-146v125h-195v106h195v63h-195v106h134l-179 309h169l150 -273l148 273h162l-184 -309h93v-106h-152v-63h152v-106h-152z" />
    <glyph glyph-name="brokenbar" unicode="&#xa6;" horiz-adv-x="270" 
d="M198 823v-398h-126v398h126zM198 235v-398h-126v398h126z" />
    <glyph glyph-name="section" unicode="&#xa7;" horiz-adv-x="535" 
d="M484 257c0 -31.333 -7.33496 -57.166 -22.002 -77.499s-31.667 -36.5 -51 -48.5c24 -18.667 42 -40 54 -64s18 -49.333 18 -76c0 -30 -6.16699 -57.167 -18.5 -81.5s-28.5 -45 -48.5 -62s-43 -30.167 -69 -39.5s-52.667 -14 -80 -14c-66 0 -118.167 17.167 -156.5 51.5
s-59.166 79.833 -62.499 136.5l143 22c0 -29.333 7.33301 -50 22 -62s32.667 -18 54 -18c19.333 0 34.666 5.33301 45.999 16s17 24.334 17 41.001c0 10 -3.16699 19.667 -9.5 29s-15.166 16.666 -26.499 21.999l-101 51c-18.667 9.33301 -36.667 19.5 -54 30.5
s-32.5 23.5 -45.5 37.5s-23.333 29.833 -31 47.5s-11.5 38.167 -11.5 61.5c0 32 7.16699 58.167 21.5 78.5s31.5 36.166 51.5 47.499c-24 19.333 -41.833 41 -53.5 65s-17.5 49.667 -17.5 77c0 30 6.16699 57 18.5 81s28.5 44.5 48.5 61.5s43 30.167 69 39.5
s52.667 14 80 14c32.667 0 62.167 -4.5 88.5 -13.5s48.833 -21.833 67.5 -38.5s33.334 -36.5 44.001 -59.5s16.667 -48.5 18 -76.5l-143 -22c0 30 -7.16699 50.833 -21.5 62.5s-32.166 17.5 -53.499 17.5c-19.333 0 -34.833 -5.5 -46.5 -16.5s-17.5 -24.5 -17.5 -40.5
c0 -10 3.16699 -19.5 9.5 -28.5s15.166 -16.167 26.499 -21.5l101 -52c18.667 -10 36.667 -20.333 54 -31s32.5 -23 45.5 -37s23.333 -30 31 -48s11.5 -38.667 11.5 -62zM211.998 336c-7.33301 -6.66699 -13.166 -13.667 -17.499 -21s-6.5 -15.333 -6.5 -24
c0 -12.667 2.16699 -23.167 6.5 -31.5s13.166 -16.166 26.499 -23.499l102 -54c6.66699 6 12.5 12.667 17.5 20s7.5 15.666 7.5 24.999c0 11.333 -2.33301 21.5 -7 30.5s-13.667 17.167 -27 24.5z" />
    <glyph glyph-name="dieresis" unicode="&#xa8;" horiz-adv-x="418" 
d="M22 632c0 21.333 7.33301 39.5 22 54.5s32.667 22.5 54 22.5s39.5 -7.5 54.5 -22.5s22.5 -33.167 22.5 -54.5s-7.5 -39.333 -22.5 -54s-33.167 -22 -54.5 -22s-39.333 7.33301 -54 22s-22 32.667 -22 54zM243 632c0 21.333 7.33301 39.5 22 54.5s32.667 22.5 54 22.5
s39.5 -7.5 54.5 -22.5s22.5 -33.167 22.5 -54.5s-7.5 -39.333 -22.5 -54s-33.167 -22 -54.5 -22s-39.333 7.33301 -54 22s-22 32.667 -22 54z" />
    <glyph glyph-name="copyright" unicode="&#xa9;" horiz-adv-x="821" 
d="M129 354c0 -40 7.16699 -77.5 21.5 -112.5s34.166 -65.5 59.499 -91.5s55 -46.5 89 -61.5s71 -22.5 111 -22.5s77.167 7.5 111.5 22.5s64.166 35.5 89.499 61.5s45.166 56.5 59.499 91.5s21.5 72.5 21.5 112.5s-7.16699 77.667 -21.5 113s-34.166 66 -59.499 92
s-55.166 46.5 -89.499 61.5s-71.5 22.5 -111.5 22.5s-77 -7.5 -111 -22.5s-63.667 -35.5 -89 -61.5s-45.166 -56.667 -59.499 -92s-21.5 -73 -21.5 -113zM40 354c0 50.667 9.66699 98.667 29 144s45.833 84.666 79.5 117.999s72.834 59.833 117.501 79.5
s92.667 29.5 144 29.5c50.667 0 98.667 -9.83301 144 -29.5s84.666 -46.167 117.999 -79.5s59.833 -72.666 79.5 -117.999s29.5 -93.333 29.5 -144c0 -51.333 -9.83301 -99.333 -29.5 -144s-46.167 -83.834 -79.5 -117.501s-72.666 -60.167 -117.999 -79.5
s-93.333 -29 -144 -29c-51.333 0 -99.333 9.66699 -144 29s-83.834 45.833 -117.501 79.5s-60.167 72.834 -79.5 117.501s-29 92.667 -29 144zM415 442c-23.333 0 -43.1641 -7.66797 -59.4971 -23.001s-24.5 -38 -24.5 -68c0 -29.333 8.33301 -51.666 25 -66.999
s36.667 -23 60 -23c22 0 39.167 5.66699 51.5 17s20.5 23.666 24.5 36.999l98 -30c-4 -16 -10.667 -31.667 -20 -47s-21.333 -28.833 -36 -40.5s-31.834 -21.167 -51.501 -28.5s-41.834 -11 -66.501 -11c-27.333 0 -52.833 4.83301 -76.5 14.5s-44.334 23 -62.001 40
s-31.667 37.333 -42 61s-15.5 49.5 -15.5 77.5c0 28.667 5 54.834 15 78.501s23.833 44 41.5 61s38.167 30.333 61.5 40s48.333 14.5 75 14.5c24.667 0 47 -3.5 67 -10.5s37.333 -16.5 52 -28.5s26.667 -25.667 36 -41s16 -31 20 -47l-100 -30
c-4 14 -11.833 26.5 -23.5 37.5s-28.167 16.5 -49.5 16.5z" />
    <glyph glyph-name="ordfeminine" unicode="&#xaa;" horiz-adv-x="422" 
d="M43 457c0 30.667 10.168 54.665 30.501 71.998s44.833 28.333 73.5 33l81 12c16.667 2.66699 25 10.667 25 24c0 9.33301 -4.16699 17.5 -12.5 24.5s-20.5 10.5 -36.5 10.5c-18 0 -31.833 -5.16699 -41.5 -15.5s-15.167 -21.5 -16.5 -33.5l-96 20
c1.33301 12 5.16602 24.667 11.499 38s15.666 25.833 27.999 37.5s28 21.334 47 29.001s41.833 11.5 68.5 11.5c28.667 0 52.834 -3.66699 72.501 -11s35.667 -17.333 48 -30s21.333 -27.167 27 -43.5s8.5 -33.5 8.5 -51.5v-170c0 -13.333 0.5 -24.833 1.5 -34.5
s1.83301 -16.167 2.5 -19.5h-100c-0.666992 2.66699 -1.33398 7.16699 -2.00098 13.5s-1 14.5 -1 24.5c-9.33301 -15.333 -22.166 -27.166 -38.499 -35.499s-35.833 -12.5 -58.5 -12.5c-19.333 0 -36.5 3 -51.5 9s-27.833 13.833 -38.5 23.5s-18.667 21 -24 34
s-8 26.5 -8 40.5zM193.001 428.998c14.667 0 28.333 4.66699 41 14s19 27 19 53v15l-62 -10c-11.333 -1.33301 -20.5 -5 -27.5 -11s-10.5 -14.667 -10.5 -26c0 -9.33301 3 -17.5 9 -24.5s16.333 -10.5 31 -10.5z" />
    <glyph glyph-name="guillemotleft" unicode="&#xab;" horiz-adv-x="572" 
d="M166 102l-138 195l140 200h141l-139 -201l138 -194h-142zM393 102l-138 195l140 200h142l-139 -201l138 -194h-143z" />
    <glyph glyph-name="logicalnot" unicode="&#xac;" horiz-adv-x="604" 
d="M411 190v195h-373v125h503v-320h-130z" />
    <glyph glyph-name="uni00AD" unicode="&#xad;" horiz-adv-x="420" 
d="M60 233v137h300v-137h-300z" />
    <glyph glyph-name="registered" unicode="&#xae;" horiz-adv-x="821" 
d="M40 354c0 50.667 9.66699 98.667 29 144s45.833 84.666 79.5 117.999s72.834 59.833 117.501 79.5s92.667 29.5 144 29.5c50.667 0 98.667 -9.83301 144 -29.5s84.666 -46.167 117.999 -79.5s59.833 -72.666 79.5 -117.999s29.5 -93.333 29.5 -144
c0 -51.333 -9.83301 -99.333 -29.5 -144s-46.167 -83.834 -79.5 -117.501s-72.666 -60.167 -117.999 -79.5s-93.333 -29 -144 -29c-51.333 0 -99.333 9.66699 -144 29s-83.834 45.833 -117.501 79.5s-60.167 72.834 -79.5 117.501s-29 92.667 -29 144zM129 354
c0 -40 7.16699 -77.5 21.5 -112.5s34.166 -65.5 59.499 -91.5s55 -46.5 89 -61.5s71 -22.5 111 -22.5s77.167 7.5 111.5 22.5s64.166 35.5 89.499 61.5s45.166 56.5 59.499 91.5s21.5 72.5 21.5 112.5s-7.16699 77.667 -21.5 113s-34.166 66 -59.499 92
s-55.166 46.5 -89.499 61.5s-71.5 22.5 -111.5 22.5s-77 -7.5 -111 -22.5s-63.667 -35.5 -89 -61.5s-45.166 -56.667 -59.499 -92s-21.5 -73 -21.5 -113zM406 291l-30 -0.000976562v-134h-104v398h167c19.333 0 37.333 -3.33301 54 -10s31.167 -16 43.5 -28s22 -26 29 -42
s10.5 -33 10.5 -51c0 -25.333 -6.5 -48.166 -19.5 -68.499s-30.167 -35.833 -51.5 -46.5l76 -152h-114zM419 374.999c16 0 28.667 4.33301 38 13s14 20.334 14 35.001c0 15.333 -4.66699 27.166 -14 35.499s-22 12.5 -38 12.5h-43v-96h43z" />
    <glyph glyph-name="macron" unicode="&#xaf;" horiz-adv-x="330" 
d="M22 577v105h286v-105h-286z" />
    <glyph glyph-name="degree" unicode="&#xb0;" horiz-adv-x="408" 
d="M143 558c0 -20 5.83301 -35.999 17.5 -47.999s26.167 -18 43.5 -18s31.666 6.16699 42.999 18.5s17 28.166 17 47.499s-5.66699 34.833 -17 46.5s-25.666 17.5 -42.999 17.5s-31.833 -5.83301 -43.5 -17.5s-17.5 -27.167 -17.5 -46.5zM35 558.001
c0 23.333 4.49902 45 13.499 65s21.167 37.5 36.5 52.5s33.166 26.833 53.499 35.5s42.166 13 65.499 13c22.667 0 44.334 -4.33301 65.001 -13s38.667 -20.5 54 -35.5s27.5 -32.5 36.5 -52.5s13.5 -41.667 13.5 -65c0 -24 -4.5 -46.167 -13.5 -66.5
s-21.167 -37.833 -36.5 -52.5s-33.333 -26.167 -54 -34.5s-42.667 -12.5 -66 -12.5s-45.166 4.33301 -65.499 13s-38.166 20.5 -53.499 35.5s-27.333 32.5 -36 52.5s-13 41.667 -13 65z" />
    <glyph glyph-name="plusminus" unicode="&#xb1;" horiz-adv-x="609" 
d="M240 499v117h128v-117h178v-124h-178v-116h-128v116h-177v124h177zM546 225v-124h-483v124h483z" />
    <glyph glyph-name="twosuperior" unicode="&#xb2;" horiz-adv-x="366" 
d="M37 563c-1.33301 4 -2.33398 8.49707 -3.00098 13.4971s-1 9.5 -1 13.5c0 16.667 3 32.834 9 48.501s15.333 29.334 28 41.001s28.167 21 46.5 28s40.166 10.5 65.499 10.5c23.333 0 44.166 -3.33301 62.499 -10s33.833 -15.667 46.5 -27s22.334 -24.666 29.001 -39.999
s10 -31.333 10 -48c0 -24 -7.33301 -45.167 -22 -63.5s-35.334 -35.166 -62.001 -50.499l-67 -39c-3.33301 -2 -5 -3.66699 -5 -5h159v-95h-302v13c0 34 6.5 64.667 19.5 92s36.833 50.666 71.5 69.999l60 34c24 13.333 36 28.333 36 45c0 6.66699 -2.66699 14 -8 22
s-15.666 12 -30.999 12s-26.666 -4.66699 -33.999 -14s-11 -20.666 -11 -33.999c0 -4.66699 0.333008 -8.33398 1 -11.001s1.33398 -4.66699 2.00098 -6h-100z" />
    <glyph glyph-name="threesuperior" unicode="&#xb3;" horiz-adv-x="371" 
d="M128 470c0.666992 -12.667 5.66895 -23.4971 15.002 -32.4971s21.666 -13.5 36.999 -13.5c14.667 0 26.167 3.5 34.5 10.5s12.5 15.833 12.5 26.5c0 14 -4.66699 24.167 -14 30.5s-20 9.5 -32 9.5c-10.667 0 -20.334 -2 -29.001 -6l-35 75l79 47h-158v92h291v-93l-85 -51
c32 -5.33301 56.333 -17.333 73 -36s25 -42.334 25 -71.001c0 -16.667 -3.66699 -32.667 -11 -48s-18 -28.833 -32 -40.5s-31 -21 -51 -28s-42.667 -10.5 -68 -10.5c-23.333 0 -44.333 3.5 -63 10.5s-34.5 16.167 -47.5 27.5s-23.333 24.166 -31 38.499
s-12.167 29.166 -13.5 44.499z" />
    <glyph glyph-name="acute" unicode="&#xb4;" horiz-adv-x="306" 
d="M143 556h-121l92 151h170z" />
    <glyph glyph-name="mu" unicode="&#xb5;" horiz-adv-x="588" 
d="M386 0c-1.33301 4.66699 -2.33301 12.5 -3 23.5s-1 19.833 -1 26.5c-13.333 -21.333 -32.5 -36.833 -57.5 -46.5s-50.167 -14.5 -75.5 -14.5c-12.667 0 -25 1 -37 3v-182h-152v687h152v-282c0 -24 6.5 -44.333 19.5 -61s33.167 -25 60.5 -25
c25.333 0 45.5 7.83301 60.5 23.5s22.5 36.167 22.5 61.5v283h152v-408c0 -22.667 0.666992 -42 2 -58s2.33301 -26.333 3 -31h-146z" />
    <glyph glyph-name="paragraph" unicode="&#xb6;" horiz-adv-x="717" 
d="M369 -191h-114.999v482h-18c-28 0 -54.667 5.33301 -80 16s-47.5 25.167 -66.5 43.5s-34 40 -45 65s-16.5 51.833 -16.5 80.5c0 34.667 6.5 65.167 19.5 91.5s30.5 48.5 52.5 66.5s47.667 31.667 77 41s60.666 14 93.999 14h410v-112h-97v-788h-117v788h-98v-788z" />
    <glyph glyph-name="periodcentered" unicode="&#xb7;" horiz-adv-x="284" 
d="M48 322c0 12.667 2.50098 24.5 7.50098 35.5s11.667 20.667 20 29s18.166 14.833 29.499 19.5s23.666 7 36.999 7c12.667 0 24.834 -2.33301 36.501 -7s21.667 -11.167 30 -19.5s15 -18 20 -29s7.5 -22.833 7.5 -35.5c0 -26.667 -9.16699 -48.667 -27.5 -66
s-40.5 -26 -66.5 -26s-48.167 8.66699 -66.5 26s-27.5 39.333 -27.5 66z" />
    <glyph glyph-name="cedilla" unicode="&#xb8;" horiz-adv-x="299" 
d="M83 -63l48 75h90l-40 -61c30 -1.33301 53.667 -10 71 -26s26 -36.667 26 -62c0 -11.333 -2.33301 -22.833 -7 -34.5s-12.167 -22.167 -22.5 -31.5s-24 -17 -41 -23s-37.833 -9 -62.5 -9c-29.333 0 -55 6.16699 -77 18.5s-37.667 24.5 -47 36.5l47 59
c7.33301 -7.33301 17.333 -15.5 30 -24.5s28 -13.5 46 -13.5c25.333 0 38 8.66699 38 26c0 6.66699 -3 12.5 -9 17.5s-14.667 7.5 -26 7.5c-4 0 -8.5 -0.333008 -13.5 -1s-9.5 -1.66699 -13.5 -3z" />
    <glyph glyph-name="onesuperior" unicode="&#xb9;" horiz-adv-x="268" 
d="M112 341l-0.000976562 211.999h-94v74c17.333 0 32.5 2.66699 45.5 8s23.833 12 32.5 20s15.334 16.833 20.001 26.5s8 18.834 10 27.501h101v-368h-115z" />
    <glyph glyph-name="ordmasculine" unicode="&#xba;" horiz-adv-x="442" 
d="M221 452c19.333 0 36.833 6.66699 52.5 20s23.5 34.333 23.5 63s-7.83301 49.667 -23.5 63s-33.167 20 -52.5 20s-36.666 -6.66699 -51.999 -20s-23 -34.333 -23 -63c0 -28 7.66699 -48.833 23 -62.5s32.666 -20.5 51.999 -20.5zM221 720c26 0 50.333 -4.5 73 -13.5
s42.334 -21.833 59.001 -38.5s29.834 -36.334 39.501 -59.001s14.5 -47.334 14.5 -74.001c0 -27.333 -4.83301 -52.333 -14.5 -75s-22.834 -42.167 -39.501 -58.5s-36.334 -29 -59.001 -38s-47 -13.5 -73 -13.5s-50.333 4.5 -73 13.5s-42.334 21.667 -59.001 38
s-29.834 35.833 -39.501 58.5s-14.5 47.667 -14.5 75c0 26.667 4.83301 51.334 14.5 74.001s22.834 42.334 39.501 59.001s36.334 29.5 59.001 38.5s47 13.5 73 13.5z" />
    <glyph glyph-name="guillemotright" unicode="&#xbb;" horiz-adv-x="572" 
d="M263 102l138 194l-139 201h142l140 -200l-139 -195h-142zM35 102l139 194l-139 201h141l140 -200l-138 -195h-143z" />
    <glyph glyph-name="onequarter" unicode="&#xbc;" horiz-adv-x="806" 
d="M430 183l164 186h121v-213h59v-85h-59v-71h-111v71h-174v112zM604 258l-91 -102h91v102zM124 341l-0.000976562 211.999h-94v74c17.333 0 32.5 2.66699 45.5 8s23.833 12 32.5 20s15.334 16.833 20.001 26.5s8 18.834 10 27.501h101v-368h-115zM95.999 -0.000976562
l452 709h131l-452 -709h-131z" />
    <glyph glyph-name="onehalf" unicode="&#xbd;" horiz-adv-x="831" 
d="M498 223c-1.33301 4 -2.33398 8.49707 -3.00098 13.4971s-1 9.5 -1 13.5c0 16.667 3 32.834 9 48.501s15.333 29.334 28 41.001s28.167 21 46.5 28s40.166 10.5 65.499 10.5c23.333 0 44.166 -3.33301 62.499 -10s33.833 -15.667 46.5 -27s22.334 -24.666 29.001 -39.999
s10 -31.333 10 -48c0 -24 -7.33301 -45.167 -22 -63.5s-35.334 -35.166 -62.001 -50.499l-67 -39c-3.33301 -2 -5 -3.66699 -5 -5h159v-95h-302v13c0 34 6.5 64.667 19.5 92s36.833 50.666 71.5 69.999l60 34c24 13.333 36 28.333 36 45c0 6.66699 -2.66699 14 -8 22
s-15.666 12 -30.999 12s-26.666 -4.66699 -33.999 -14s-11 -20.666 -11 -33.999c0 -4.66699 0.333008 -8.33398 1 -11.001s1.33398 -4.66699 2.00098 -6h-100zM124.999 340.997l-0.000976562 211.999h-94v74c17.333 0 32.5 2.66699 45.5 8s23.833 12 32.5 20
s15.334 16.833 20.001 26.5s8 18.834 10 27.501h101v-368h-115zM90.998 -0.00390625l452 709h131l-452 -709h-131z" />
    <glyph glyph-name="threequarters" unicode="&#xbe;" horiz-adv-x="880" 
d="M505 183l164 186h121v-213h59v-85h-59v-71h-111v71h-174v112zM679 258l-91 -102h91v102zM135 470c0.666992 -12.667 5.66895 -23.4971 15.002 -32.4971s21.666 -13.5 36.999 -13.5c14.667 0 26.167 3.5 34.5 10.5s12.5 15.833 12.5 26.5c0 14 -4.66699 24.167 -14 30.5
s-20 9.5 -32 9.5c-10.667 0 -20.334 -2 -29.001 -6l-35 75l79 47h-158v92h291v-93l-85 -51c32 -5.33301 56.333 -17.333 73 -36s25 -42.334 25 -71.001c0 -16.667 -3.66699 -32.667 -11 -48s-18 -28.833 -32 -40.5s-31 -21 -51 -28s-42.667 -10.5 -68 -10.5
c-23.333 0 -44.333 3.5 -63 10.5s-34.5 16.167 -47.5 27.5s-23.333 24.166 -31 38.499s-12.167 29.166 -13.5 44.499zM165.002 0.00292969l452 709h131l-452 -709h-131z" />
    <glyph glyph-name="questiondown" unicode="&#xbf;" horiz-adv-x="532" 
d="M339 282c1.33301 -7.33301 2.33398 -14.4971 3.00098 -21.4971s1 -14.5 1 -22.5c0 -23.333 -5.16699 -47.333 -15.5 -72s-29.833 -47.667 -58.5 -69l-50 -38c-13.333 -10.667 -22.833 -21.834 -28.5 -33.501s-8.5 -23.834 -8.5 -36.501
c0 -19.333 7.33301 -36.666 22 -51.999s37 -23 67 -23c30.667 0 53.667 9.33301 69 28s23 40.667 23 66c0 12 -1.66699 24.667 -5 38l143 -12c1.33301 -7.33301 2.33301 -14.5 3 -21.5s1 -14.167 1 -21.5c0 -30.667 -5.83301 -58.834 -17.5 -84.501s-27.834 -48 -48.501 -67
s-45.334 -33.833 -74.001 -44.5s-60 -16 -94 -16c-40.667 0 -76.167 5.66699 -106.5 17s-55.666 26.166 -75.999 44.499s-35.5 39.333 -45.5 63s-15 48.167 -15 73.5c0 40 8.5 74.5 25.5 103.5s40.167 54.5 69.5 76.5l38 28c18 13.333 32.333 27.5 43 42.5
s16 33.167 16 54.5h119zM192.001 427.003c0 12 2.33301 23.167 7 33.5s10.834 19.5 18.501 27.5s16.667 14.167 27 18.5s21.5 6.5 33.5 6.5c24 0 44.333 -8.33301 61 -25s25 -37 25 -61c0 -12 -2.16699 -23.167 -6.5 -33.5s-10.5 -19.333 -18.5 -27
s-17.167 -13.834 -27.5 -18.501s-21.5 -7 -33.5 -7s-23.167 2.33301 -33.5 7s-19.333 10.834 -27 18.501s-13.834 16.667 -18.501 27s-7 21.5 -7 33.5z" />
    <glyph glyph-name="Agrave" unicode="&#xc0;" horiz-adv-x="729" 
d="M498 144h-274l-51 -144h-166l267 709h183l264 -709h-172zM276 288h172l-85 245zM161 891h181l104 -132h-135z" />
    <glyph glyph-name="Aacute" unicode="&#xc1;" horiz-adv-x="729" 
d="M498 144h-274l-51 -144h-166l267 709h183l264 -709h-172zM276 288h172l-85 245zM423 759h-135l104 132h181z" />
    <glyph glyph-name="Acircumflex" unicode="&#xc2;" horiz-adv-x="729" 
d="M498 144h-274l-51 -144h-166l267 709h183l264 -709h-172zM276 288h172l-85 245zM167 759l122 132h145l124 -132h-141l-58 65l-57 -65h-135z" />
    <glyph glyph-name="Atilde" unicode="&#xc3;" horiz-adv-x="729" 
d="M498 144h-274l-51 -144h-166l267 709h183l264 -709h-172zM276 288h172l-85 245zM532 861c0 -18 -2.83203 -33.999 -8.49902 -47.999s-13.334 -25.5 -23.001 -34.5s-20.667 -15.833 -33 -20.5s-25.5 -7 -39.5 -7c-15.333 0 -29.5 2.5 -42.5 7.5s-25.167 10.833 -36.5 17.5
l-5 3l-25 14c-7.33301 4 -14.666 6 -21.999 6c-6.66699 0 -12.667 -2.33301 -18 -7s-8 -12 -8 -22v-13h-87v33c0 18 2.83301 33.833 8.5 47.5s13.167 25 22.5 34s20.333 15.667 33 20s25.667 6.5 39 6.5c16 0 30.333 -2.33301 43 -7s24.667 -10.334 36 -17.001l28 -15
c8.66699 -4.66699 16.667 -7 24 -7s13.666 2.33301 18.999 7s8 12 8 22v14h87v-34z" />
    <glyph glyph-name="Adieresis" unicode="&#xc4;" horiz-adv-x="729" 
d="M117 824c0 22.667 7.5 41.667 22.5 57s33.5 23 55.5 23c22.667 0 41.667 -7.66699 57 -23s23 -34.333 23 -57c0 -22 -7.66699 -40.333 -23 -55s-34.333 -22 -57 -22c-22 0 -40.5 7.33301 -55.5 22s-22.5 33 -22.5 55zM450 824c0 22.667 7.33301 41.667 22 57
s33.334 23 56.001 23c22 0 40.667 -7.66699 56 -23s23 -34.333 23 -57c0 -22 -7.66699 -40.333 -23 -55s-34 -22 -56 -22c-22.667 0 -41.334 7.33301 -56.001 22s-22 33 -22 55zM498 144h-274l-51 -144h-166l267 709h183l264 -709h-172zM276 288h172l-85 245z" />
    <glyph glyph-name="Aring" unicode="&#xc5;" horiz-adv-x="729" 
d="M410 757c0 15.333 -4.66699 27.333 -14 36s-20.333 13 -33 13c-13.333 0 -24.833 -4.33301 -34.5 -13s-14.5 -20.667 -14.5 -36s4.83301 -27.166 14.5 -35.499s21.167 -12.5 34.5 -12.5c12.667 0 23.667 4.16699 33 12.5s14 20.166 14 35.499zM276 288h172l-85 243z
M498 144l-274 -0.000976562l-51 -144h-166l250 664c-11.333 12 -20.333 25.833 -27 41.5s-10 32.834 -10 51.501c0 20 3.83301 38.5 11.5 55.5s18 31.667 31 44s28.167 21.833 45.5 28.5s35.333 10 54 10s36.667 -3.33301 54 -10s32.5 -16.167 45.5 -28.5s23.333 -27 31 -44
s11.5 -35.5 11.5 -55.5c0 -17.333 -2.83301 -33.5 -8.5 -48.5s-13.5 -28.167 -23.5 -39.5l249 -669h-172z" />
    <glyph glyph-name="AE" unicode="&#xc6;" horiz-adv-x="1054" 
d="M552 0v153h-274l-97 -153h-189l468 709h542v-149h-292v-135h265v-139h-265v-136h293v-150h-451zM552 282v299l-191 -299h191z" />
    <glyph glyph-name="Ccedilla" unicode="&#xc7;" horiz-adv-x="765" 
d="M335 -63l32.0029 49.999c-46 4.66699 -89 16.667 -129 36s-74.833 44.833 -104.5 76.5s-52.834 68.834 -69.501 111.501s-25 90 -25 142c0 55.333 9.83301 105.833 29.5 151.5s46.167 84.667 79.5 117s72.166 57.5 116.499 75.5s91.166 27 140.499 27
c53.333 0 99.333 -7.66699 138 -23s71.334 -34.833 98.001 -58.5s47.5 -49.5 62.5 -77.5s25.5 -54.667 31.5 -80l-149 -47c-2.66699 12 -7.83398 25.667 -15.501 41s-18.5 29.833 -32.5 43.5s-31.833 25 -53.5 34s-48.167 13.5 -79.5 13.5c-24 0 -48 -4.33301 -72 -13
s-45.667 -21.834 -65 -39.501s-35 -40.167 -47 -67.5s-18 -59.666 -18 -96.999c0 -33.333 5.66699 -63 17 -89s26.5 -48 45.5 -66s40.667 -31.667 65 -41s49.833 -14 76.5 -14c30.667 0 57 4.5 79 13.5s40.333 20.333 55 34s26.167 28.167 34.5 43.5
s14.166 29.333 17.499 42l151 -43c-5.33301 -22.667 -14.666 -47.167 -27.999 -73.5s-31.5 -51.333 -54.5 -75s-51.333 -44.5 -85 -62.5s-73.5 -29.333 -119.5 -34l-24 -37c30 -1.33301 53.667 -10 71 -26s26 -36.667 26 -62c0 -11.333 -2.33301 -22.833 -7 -34.5
s-12.167 -22.167 -22.5 -31.5s-24 -17 -41 -23s-37.833 -9 -62.5 -9c-29.333 0 -55 6.16699 -77 18.5s-37.667 24.5 -47 36.5l47 59c7.33301 -7.33301 17.333 -15.5 30 -24.5s28 -13.5 46 -13.5c25.333 0 38 8.66699 38 26c0 6.66699 -3 12.5 -9 17.5s-14.667 7.5 -26 7.5
c-4 0 -8.5 -0.333008 -13.5 -1s-9.5 -1.66699 -13.5 -3z" />
    <glyph glyph-name="Egrave" unicode="&#xc8;" horiz-adv-x="581" 
d="M120 891h181l104 -132h-135zM80 0v709h449v-149h-291v-135h264v-139h-264v-136h292v-150h-450z" />
    <glyph glyph-name="Eacute" unicode="&#xc9;" horiz-adv-x="581" 
d="M342 759h-135l104 132h181zM80 0v709h449v-149h-291v-135h264v-139h-264v-136h292v-150h-450z" />
    <glyph glyph-name="Ecircumflex" unicode="&#xca;" horiz-adv-x="581" 
d="M107 759l122 132h145l124 -132h-141l-58 65l-57 -65h-135zM80 0v709h449v-149h-291v-135h264v-139h-264v-136h292v-150h-450z" />
    <glyph glyph-name="Edieresis" unicode="&#xcb;" horiz-adv-x="581" 
d="M80 0v709h449v-149h-291v-135h264v-139h-264v-136h292v-150h-450zM129 824c0 22 7.16699 40.5 21.5 55.5s32.166 22.5 53.499 22.5c22 0 40.333 -7.5 55 -22.5s22 -33.5 22 -55.5c0 -21.333 -7.33301 -39.166 -22 -53.499s-33 -21.5 -55 -21.5
c-21.333 0 -39.166 7.16699 -53.499 21.5s-21.5 32.166 -21.5 53.499zM327 824c0 22 7.33301 40.5 22 55.5s32.667 22.5 54 22.5c22 0 40.333 -7.5 55 -22.5s22 -33.5 22 -55.5c0 -21.333 -7.33301 -39.166 -22 -53.499s-33 -21.5 -55 -21.5
c-21.333 0 -39.333 7.16699 -54 21.5s-22 32.166 -22 53.499z" />
    <glyph glyph-name="Igrave" unicode="&#xcc;" horiz-adv-x="320" 
d="M80 0v709h160v-709h-160zM-46 891h181l104 -132h-135z" />
    <glyph glyph-name="Iacute" unicode="&#xcd;" horiz-adv-x="320" 
d="M80 0v709h160v-709h-160zM216 759h-135l104 132h181z" />
    <glyph glyph-name="Icircumflex" unicode="&#xce;" horiz-adv-x="320" 
d="M80 0v709h160v-709h-160zM-33 759l122 132h145l124 -132h-141l-58 65l-57 -65h-135z" />
    <glyph glyph-name="Idieresis" unicode="&#xcf;" horiz-adv-x="320" 
d="M-21 824c0 22.667 7.33301 41.667 22 57s33 23 55 23c22.667 0 41.5 -7.66699 56.5 -23s22.5 -34.333 22.5 -57c0 -22 -7.5 -40.333 -22.5 -55s-33.833 -22 -56.5 -22c-22 0 -40.333 7.33301 -55 22s-22 33 -22 55zM186 824c0 22.667 7.33301 41.667 22 57s33 23 55 23
c22.667 0 41.5 -7.66699 56.5 -23s22.5 -34.333 22.5 -57c0 -22 -7.5 -40.333 -22.5 -55s-33.833 -22 -56.5 -22c-22 0 -40.333 7.33301 -55 22s-22 33 -22 55zM80 0v709h160v-709h-160z" />
    <glyph glyph-name="Eth" unicode="&#xd0;" horiz-adv-x="762" 
d="M108 0v310.002h-94v111h94v288h257c53.333 0 101.833 -8.16699 145.5 -24.5s81.167 -39.833 112.5 -70.5s55.5 -68 72.5 -112s25.5 -93.333 25.5 -148s-8.5 -103.834 -25.5 -147.501s-41.167 -80.834 -72.5 -111.501s-69 -54.167 -113 -70.5s-92.667 -24.5 -146 -24.5
h-256zM358 149.002c27.333 0 53 4 77 12s45 20.333 63 37s32.167 38 42.5 64s15.5 56.667 15.5 92s-5.16699 66 -15.5 92s-24.5 47.5 -42.5 64.5s-39 29.5 -63 37.5s-49.667 12 -77 12h-92v-139h144v-111h-144v-161h92z" />
    <glyph glyph-name="Ntilde" unicode="&#xd1;" horiz-adv-x="776" 
d="M565 861c0 -18 -2.83203 -33.999 -8.49902 -47.999s-13.334 -25.5 -23.001 -34.5s-20.667 -15.833 -33 -20.5s-25.5 -7 -39.5 -7c-15.333 0 -29.5 2.5 -42.5 7.5s-25.167 10.833 -36.5 17.5l-5 3l-25 14c-7.33301 4 -14.666 6 -21.999 6
c-6.66699 0 -12.667 -2.33301 -18 -7s-8 -12 -8 -22v-13h-87v33c0 18 2.83301 33.833 8.5 47.5s13.167 25 22.5 34s20.333 15.667 33 20s25.667 6.5 39 6.5c16 0 30.333 -2.33301 43 -7s24.667 -10.334 36 -17.001l28 -15c8.66699 -4.66699 16.667 -7 24 -7
s13.666 2.33301 18.999 7s8 12 8 22v14h87v-34zM529.001 0.000976562l-292 466v-466h-157v709h192l266 -431v431h158v-709h-167z" />
    <glyph glyph-name="Ograve" unicode="&#xd2;" horiz-adv-x="815" 
d="M191 891h181l104 -132h-135zM203 355c0 -37.333 6 -69.333 18 -96s27.833 -48.834 47.5 -66.501s41.667 -30.667 66 -39s48.833 -12.5 73.5 -12.5s49.167 4.16699 73.5 12.5s46.166 21.333 65.499 39s35 39.834 47 66.501s18 58.667 18 96c0 36.667 -6 68.667 -18 96
s-27.667 49.666 -47 66.999s-41.166 30.333 -65.499 39s-48.833 13 -73.5 13s-49.167 -4.33301 -73.5 -13s-46.333 -21.667 -66 -39s-35.5 -39.666 -47.5 -66.999s-18 -59.333 -18 -96zM39 354c0 56 9.83301 106.833 29.5 152.5s46.334 84.667 80.001 117
s72.834 57.166 117.501 74.499s92 26 142 26s97.167 -8.66699 141.5 -26s83.333 -42.166 117 -74.499s60.334 -71.333 80.001 -117s29.5 -96.5 29.5 -152.5s-9.83301 -106.667 -29.5 -152s-46.334 -84.166 -80.001 -116.499s-72.667 -57.166 -117 -74.499
s-91.5 -26 -141.5 -26s-97.333 8.66699 -142 26s-83.834 42.166 -117.501 74.499s-60.334 71.166 -80.001 116.499s-29.5 96 -29.5 152z" />
    <glyph glyph-name="Oacute" unicode="&#xd3;" horiz-adv-x="815" 
d="M463 759h-135l104 132h181zM203 355c0 -37.333 6 -69.333 18 -96s27.833 -48.834 47.5 -66.501s41.667 -30.667 66 -39s48.833 -12.5 73.5 -12.5s49.167 4.16699 73.5 12.5s46.166 21.333 65.499 39s35 39.834 47 66.501s18 58.667 18 96c0 36.667 -6 68.667 -18 96
s-27.667 49.666 -47 66.999s-41.166 30.333 -65.499 39s-48.833 13 -73.5 13s-49.167 -4.33301 -73.5 -13s-46.333 -21.667 -66 -39s-35.5 -39.666 -47.5 -66.999s-18 -59.333 -18 -96zM39 354c0 56 9.83301 106.833 29.5 152.5s46.334 84.667 80.001 117
s72.834 57.166 117.501 74.499s92 26 142 26s97.167 -8.66699 141.5 -26s83.333 -42.166 117 -74.499s60.334 -71.333 80.001 -117s29.5 -96.5 29.5 -152.5s-9.83301 -106.667 -29.5 -152s-46.334 -84.166 -80.001 -116.499s-72.667 -57.166 -117 -74.499
s-91.5 -26 -141.5 -26s-97.333 8.66699 -142 26s-83.834 42.166 -117.501 74.499s-60.334 71.166 -80.001 116.499s-29.5 96 -29.5 152z" />
    <glyph glyph-name="Ocircumflex" unicode="&#xd4;" horiz-adv-x="815" 
d="M212 759l122 132h145l124 -132h-141l-58 65l-57 -65h-135zM203 355c0 -37.333 6 -69.333 18 -96s27.833 -48.834 47.5 -66.501s41.667 -30.667 66 -39s48.833 -12.5 73.5 -12.5s49.167 4.16699 73.5 12.5s46.166 21.333 65.499 39s35 39.834 47 66.501s18 58.667 18 96
c0 36.667 -6 68.667 -18 96s-27.667 49.666 -47 66.999s-41.166 30.333 -65.499 39s-48.833 13 -73.5 13s-49.167 -4.33301 -73.5 -13s-46.333 -21.667 -66 -39s-35.5 -39.666 -47.5 -66.999s-18 -59.333 -18 -96zM39 354c0 56 9.83301 106.833 29.5 152.5
s46.334 84.667 80.001 117s72.834 57.166 117.501 74.499s92 26 142 26s97.167 -8.66699 141.5 -26s83.333 -42.166 117 -74.499s60.334 -71.333 80.001 -117s29.5 -96.5 29.5 -152.5s-9.83301 -106.667 -29.5 -152s-46.334 -84.166 -80.001 -116.499
s-72.667 -57.166 -117 -74.499s-91.5 -26 -141.5 -26s-97.333 8.66699 -142 26s-83.834 42.166 -117.501 74.499s-60.334 71.166 -80.001 116.499s-29.5 96 -29.5 152z" />
    <glyph glyph-name="Otilde" unicode="&#xd5;" horiz-adv-x="815" 
d="M576 861c0 -18 -2.83203 -33.999 -8.49902 -47.999s-13.334 -25.5 -23.001 -34.5s-20.667 -15.833 -33 -20.5s-25.5 -7 -39.5 -7c-15.333 0 -29.5 2.5 -42.5 7.5s-25.167 10.833 -36.5 17.5l-5 3l-25 14c-7.33301 4 -14.666 6 -21.999 6
c-6.66699 0 -12.667 -2.33301 -18 -7s-8 -12 -8 -22v-13h-87v33c0 18 2.83301 33.833 8.5 47.5s13.167 25 22.5 34s20.333 15.667 33 20s25.667 6.5 39 6.5c16 0 30.333 -2.33301 43 -7s24.667 -10.334 36 -17.001l28 -15c8.66699 -4.66699 16.667 -7 24 -7
s13.666 2.33301 18.999 7s8 12 8 22v14h87v-34zM203.001 355.001c0 -37.333 6 -69.333 18 -96s27.833 -48.834 47.5 -66.501s41.667 -30.667 66 -39s48.833 -12.5 73.5 -12.5s49.167 4.16699 73.5 12.5s46.166 21.333 65.499 39s35 39.834 47 66.501s18 58.667 18 96
c0 36.667 -6 68.667 -18 96s-27.667 49.666 -47 66.999s-41.166 30.333 -65.499 39s-48.833 13 -73.5 13s-49.167 -4.33301 -73.5 -13s-46.333 -21.667 -66 -39s-35.5 -39.666 -47.5 -66.999s-18 -59.333 -18 -96zM39.001 354.001c0 56 9.83301 106.833 29.5 152.5
s46.334 84.667 80.001 117s72.834 57.166 117.501 74.499s92 26 142 26s97.167 -8.66699 141.5 -26s83.333 -42.166 117 -74.499s60.334 -71.333 80.001 -117s29.5 -96.5 29.5 -152.5s-9.83301 -106.667 -29.5 -152s-46.334 -84.166 -80.001 -116.499
s-72.667 -57.166 -117 -74.499s-91.5 -26 -141.5 -26s-97.333 8.66699 -142 26s-83.834 42.166 -117.501 74.499s-60.334 71.166 -80.001 116.499s-29.5 96 -29.5 152z" />
    <glyph glyph-name="Odieresis" unicode="&#xd6;" horiz-adv-x="815" 
d="M153 824c0 22.667 7.33301 41.667 22 57s33.334 23 56.001 23c22 0 40.667 -7.66699 56 -23s23 -34.333 23 -57c0 -22 -7.66699 -40.333 -23 -55s-34 -22 -56 -22c-22.667 0 -41.334 7.33301 -56.001 22s-22 33 -22 55zM506 824c0 22.667 7.33301 41.667 22 57
s33.334 23 56.001 23s41.667 -7.66699 57 -23s23 -34.333 23 -57c0 -22 -7.66699 -40.333 -23 -55s-34.333 -22 -57 -22s-41.334 7.33301 -56.001 22s-22 33 -22 55zM203 355c0 -37.333 6 -69.333 18 -96s27.833 -48.834 47.5 -66.501s41.667 -30.667 66 -39
s48.833 -12.5 73.5 -12.5s49.167 4.16699 73.5 12.5s46.166 21.333 65.499 39s35 39.834 47 66.501s18 58.667 18 96c0 36.667 -6 68.667 -18 96s-27.667 49.666 -47 66.999s-41.166 30.333 -65.499 39s-48.833 13 -73.5 13s-49.167 -4.33301 -73.5 -13
s-46.333 -21.667 -66 -39s-35.5 -39.666 -47.5 -66.999s-18 -59.333 -18 -96zM39 354c0 56 9.83301 106.833 29.5 152.5s46.334 84.667 80.001 117s72.834 57.166 117.501 74.499s92 26 142 26s97.167 -8.66699 141.5 -26s83.333 -42.166 117 -74.499
s60.334 -71.333 80.001 -117s29.5 -96.5 29.5 -152.5s-9.83301 -106.667 -29.5 -152s-46.334 -84.166 -80.001 -116.499s-72.667 -57.166 -117 -74.499s-91.5 -26 -141.5 -26s-97.333 8.66699 -142 26s-83.834 42.166 -117.501 74.499s-60.334 71.166 -80.001 116.499
s-29.5 96 -29.5 152z" />
    <glyph glyph-name="multiply" unicode="&#xd7;" horiz-adv-x="596" 
d="M298 269l-164 -165l-90 92l163 164l-163 165l90 90l164 -165l164 165l90 -90l-164 -165l164 -164l-90 -92z" />
    <glyph glyph-name="Oslash" unicode="&#xd8;" horiz-adv-x="815" 
d="M39 354c0 56 9.83203 106.832 29.499 152.499s46.334 84.667 80.001 117s72.834 57.166 117.501 74.499s92 26 142 26c32 0 62.667 -3.66699 92 -11s57 -17.666 83 -30.999l70 90l96 -74l-69 -89c30 -32 53.5 -69.5 70.5 -112.5s25.5 -90.5 25.5 -142.5
c0 -56 -9.83301 -106.667 -29.5 -152s-46.334 -84.166 -80.001 -116.499s-72.667 -57.166 -117 -74.499s-91.5 -26 -141.5 -26c-32 0 -63 3.66699 -93 11s-58.333 17.666 -85 30.999l-69 -89l-98 73l70 90c-29.333 32 -52.333 69.167 -69 111.5s-25 89.5 -25 141.5z
M611.999 354.999c0 49.333 -10.998 90.666 -32.998 123.999l-250 -324c12.667 -5.33301 25.667 -9 39 -11s26.666 -3 39.999 -3c24.667 0 49.167 4.16699 73.5 12.5s46.166 21.333 65.499 39s35 39.834 47 66.501s18 58.667 18 96zM203.001 354.999
c0 -25.333 2.83301 -48.001 8.5 -68.001s13.5 -38 23.5 -54l250 322c-25.333 10 -51 15 -77 15c-24.667 0 -49.167 -4.33301 -73.5 -13s-46.333 -21.667 -66 -39s-35.5 -39.666 -47.5 -66.999s-18 -59.333 -18 -96z" />
    <glyph glyph-name="Ugrave" unicode="&#xd9;" horiz-adv-x="708" 
d="M152 891h181l104 -132h-135zM354 -16c-39.333 0 -76.001 5.83301 -110.001 17.5s-63.667 29 -89 52s-45.333 51.333 -60 85s-22 72.834 -22 117.501v453h158v-440c0 -43.333 11 -75.666 33 -96.999s52 -32 90 -32s68 10.667 90 32s33 53.666 33 96.999v440h158v-453
c0 -44.667 -7.33301 -83.834 -22 -117.501s-34.667 -62 -60 -85s-55.166 -40.333 -89.499 -52s-70.833 -17.5 -109.5 -17.5z" />
    <glyph glyph-name="Uacute" unicode="&#xda;" horiz-adv-x="708" 
d="M397 759h-135l104 132h181zM354 -16c-39.333 0 -76.001 5.83301 -110.001 17.5s-63.667 29 -89 52s-45.333 51.333 -60 85s-22 72.834 -22 117.501v453h158v-440c0 -43.333 11 -75.666 33 -96.999s52 -32 90 -32s68 10.667 90 32s33 53.666 33 96.999v440h158v-453
c0 -44.667 -7.33301 -83.834 -22 -117.501s-34.667 -62 -60 -85s-55.166 -40.333 -89.499 -52s-70.833 -17.5 -109.5 -17.5z" />
    <glyph glyph-name="Ucircumflex" unicode="&#xdb;" horiz-adv-x="708" 
d="M159 759l122 132h145l124 -132h-141l-58 65l-57 -65h-135zM354 -16c-39.333 0 -76.001 5.83301 -110.001 17.5s-63.667 29 -89 52s-45.333 51.333 -60 85s-22 72.834 -22 117.501v453h158v-440c0 -43.333 11 -75.666 33 -96.999s52 -32 90 -32s68 10.667 90 32
s33 53.666 33 96.999v440h158v-453c0 -44.667 -7.33301 -83.834 -22 -117.501s-34.667 -62 -60 -85s-55.166 -40.333 -89.499 -52s-70.833 -17.5 -109.5 -17.5z" />
    <glyph glyph-name="Udieresis" unicode="&#xdc;" horiz-adv-x="708" 
d="M154 824c0 22.667 7.33301 41.667 22 57s33.334 23 56.001 23s41.667 -7.66699 57 -23s23 -34.333 23 -57c0 -22 -7.66699 -40.333 -23 -55s-34.333 -22 -57 -22s-41.334 7.33301 -56.001 22s-22 33 -22 55zM399 824c0 22.667 7.33301 41.667 22 57s33 23 55 23
c22.667 0 41.667 -7.66699 57 -23s23 -34.333 23 -57c0 -22 -7.66699 -40.333 -23 -55s-34.333 -22 -57 -22c-22 0 -40.333 7.33301 -55 22s-22 33 -22 55zM354 -16c-39.333 0 -76.001 5.83301 -110.001 17.5s-63.667 29 -89 52s-45.333 51.333 -60 85
s-22 72.834 -22 117.501v453h158v-440c0 -43.333 11 -75.666 33 -96.999s52 -32 90 -32s68 10.667 90 32s33 53.666 33 96.999v440h158v-453c0 -44.667 -7.33301 -83.834 -22 -117.501s-34.667 -62 -60 -85s-55.166 -40.333 -89.499 -52s-70.833 -17.5 -109.5 -17.5z" />
    <glyph glyph-name="Yacute" unicode="&#xdd;" horiz-adv-x="671" 
d="M10 709h185l145 -263l147 263h176l-249 -413v-296h-158v296zM390 759h-135l104 132h181z" />
    <glyph glyph-name="Thorn" unicode="&#xde;" horiz-adv-x="612" 
d="M331 264c30 0 54 8.33203 72 24.999s27 39 27 67c0 28.667 -9 51.334 -27 68.001s-42 25 -72 25h-92v-185h92zM238 129.999v-130h-158v709h158v-125h105c34.667 0 67 -5.83301 97 -17.5s56 -27.667 78 -48s39.167 -44.333 51.5 -72s18.5 -57.5 18.5 -89.5
c0 -32.667 -6.16699 -62.834 -18.5 -90.501s-29.5 -51.667 -51.5 -72s-48 -36.166 -78 -47.499s-62.333 -17 -97 -17h-105z" />
    <glyph glyph-name="germandbls" unicode="&#xdf;" horiz-adv-x="628" 
d="M421 343c0.666992 -7.33301 3.32812 -13.002 7.99512 -17.002s12.334 -8 23.001 -12l28 -11c36 -14 64.5 -34.5 85.5 -61.5s31.5 -58.833 31.5 -95.5c0 -17.333 -3.5 -35.333 -10.5 -54s-18 -36 -33 -52s-34.167 -29.167 -57.5 -39.5s-51.666 -15.5 -84.999 -15.5
c-30.667 0 -56.667 4.83301 -78 14.5s-38.833 21.667 -52.5 36s-23.834 30 -30.501 47s-10 32.833 -10 47.5l119 20c0.666992 -11.333 4.83398 -22.833 12.501 -34.5s21.167 -17.5 40.5 -17.5c13.333 0 24 3.83301 32 11.5s12 16.834 12 27.501s-3.5 19.667 -10.5 27
s-19.167 14.333 -36.5 21l-26 10c-13.333 4.66699 -26.666 10.667 -39.999 18s-25.333 16.5 -36 27.5s-19.5 23.833 -26.5 38.5s-10.5 31.667 -10.5 51c0 17.333 2.33301 32.5 7 45.5s10.334 24.333 17.001 34s14 17.834 22 24.501s15.667 12.334 23 17.001l15 10
c14.667 9.33301 25.667 19.166 33 29.499s11 22.166 11 35.499c0 15.333 -6.66699 29.833 -20 43.5s-35.666 20.5 -66.999 20.5c-12.667 0 -24.834 -2 -36.501 -6s-22.167 -10.667 -31.5 -20s-16.833 -21.5 -22.5 -36.5s-8.5 -33.5 -8.5 -55.5v-472h-148v483
c0 42 6.83301 78.333 20.5 109s32 55.667 55 75s49.333 33.666 79 42.999s60.5 14 92.5 14c36.667 0 69.667 -5 99 -15s54.333 -23.667 75 -41s36.334 -37.5 47.001 -60.5s16 -47.5 16 -73.5c0 -19.333 -2.33301 -36.666 -7 -51.999s-11 -29 -19 -41
s-17.333 -22.667 -28 -32s-22 -17.666 -34 -24.999l-16 -10c-7.33301 -5.33301 -13 -10 -17 -14s-6 -9.66699 -6 -17z" />
    <glyph glyph-name="agrave" unicode="&#xe0;" horiz-adv-x="545" 
d="M37 137c0 22 3.82715 41.667 11.4941 59s18.167 32.166 31.5 44.499s28.833 22.333 46.5 30s36.834 13.167 57.501 16.5l117 18c13.333 2 22.666 6 27.999 12s8 13.333 8 22c0 14.667 -6.16699 27.334 -18.5 38.001s-30.5 16 -54.5 16
c-26.667 0 -47.167 -7.5 -61.5 -22.5s-22.166 -31.833 -23.499 -50.5l-132 27c1.33301 18 6.66602 36.667 15.999 56s22.833 37 40.5 53s39.834 29.333 66.501 40s58.334 16 95.001 16c40 0 74 -5.16699 102 -15.5s50.833 -24.333 68.5 -42s30.334 -38.167 38.001 -61.5
s11.5 -47.666 11.5 -72.999v-243c0 -19.333 0.833008 -36.333 2.5 -51s2.83398 -23.334 3.50098 -26.001h-137c-0.666992 2 -1.66699 7.5 -3 16.5s-2 22.167 -2 39.5c-13.333 -21.333 -31.666 -38.333 -54.999 -51s-51.666 -19 -84.999 -19
c-27.333 0 -51.666 4.16699 -72.999 12.5s-39.333 19.5 -54 33.5s-25.834 30 -33.501 48s-11.5 37 -11.5 57zM245.994 96c11.333 0 22.501 1.49707 33.501 4.49707s20.667 8.33301 29 16s15.166 17.834 20.499 30.501s8 28.667 8 48v22l-94 -15
c-16 -2.66699 -29.333 -8.16699 -40 -16.5s-16 -21.166 -16 -38.499c0 -13.333 4.5 -25.166 13.5 -35.499s24.167 -15.5 45.5 -15.5zM80.9951 706.997h173l93 -151h-124z" />
    <glyph glyph-name="aacute" unicode="&#xe1;" horiz-adv-x="545" 
d="M37 137c0 22 3.82715 41.667 11.4941 59s18.167 32.166 31.5 44.499s28.833 22.333 46.5 30s36.834 13.167 57.501 16.5l117 18c13.333 2 22.666 6 27.999 12s8 13.333 8 22c0 14.667 -6.16699 27.334 -18.5 38.001s-30.5 16 -54.5 16
c-26.667 0 -47.167 -7.5 -61.5 -22.5s-22.166 -31.833 -23.499 -50.5l-132 27c1.33301 18 6.66602 36.667 15.999 56s22.833 37 40.5 53s39.834 29.333 66.501 40s58.334 16 95.001 16c40 0 74 -5.16699 102 -15.5s50.833 -24.333 68.5 -42s30.334 -38.167 38.001 -61.5
s11.5 -47.666 11.5 -72.999v-243c0 -19.333 0.833008 -36.333 2.5 -51s2.83398 -23.334 3.50098 -26.001h-137c-0.666992 2 -1.66699 7.5 -3 16.5s-2 22.167 -2 39.5c-13.333 -21.333 -31.666 -38.333 -54.999 -51s-51.666 -19 -84.999 -19
c-27.333 0 -51.666 4.16699 -72.999 12.5s-39.333 19.5 -54 33.5s-25.834 30 -33.501 48s-11.5 37 -11.5 57zM245.994 96c11.333 0 22.501 1.49707 33.501 4.49707s20.667 8.33301 29 16s15.166 17.834 20.499 30.501s8 28.667 8 48v22l-94 -15
c-16 -2.66699 -29.333 -8.16699 -40 -16.5s-16 -21.166 -16 -38.499c0 -13.333 4.5 -25.166 13.5 -35.499s24.167 -15.5 45.5 -15.5zM310.995 555.997h-121l92 151h170z" />
    <glyph glyph-name="acircumflex" unicode="&#xe2;" horiz-adv-x="545" 
d="M37 137c0 22 3.82715 41.667 11.4941 59s18.167 32.166 31.5 44.499s28.833 22.333 46.5 30s36.834 13.167 57.501 16.5l117 18c13.333 2 22.666 6 27.999 12s8 13.333 8 22c0 14.667 -6.16699 27.334 -18.5 38.001s-30.5 16 -54.5 16
c-26.667 0 -47.167 -7.5 -61.5 -22.5s-22.166 -31.833 -23.499 -50.5l-132 27c1.33301 18 6.66602 36.667 15.999 56s22.833 37 40.5 53s39.834 29.333 66.501 40s58.334 16 95.001 16c40 0 74 -5.16699 102 -15.5s50.833 -24.333 68.5 -42s30.334 -38.167 38.001 -61.5
s11.5 -47.666 11.5 -72.999v-243c0 -19.333 0.833008 -36.333 2.5 -51s2.83398 -23.334 3.50098 -26.001h-137c-0.666992 2 -1.66699 7.5 -3 16.5s-2 22.167 -2 39.5c-13.333 -21.333 -31.666 -38.333 -54.999 -51s-51.666 -19 -84.999 -19
c-27.333 0 -51.666 4.16699 -72.999 12.5s-39.333 19.5 -54 33.5s-25.834 30 -33.501 48s-11.5 37 -11.5 57zM245.994 96c11.333 0 22.501 1.49707 33.501 4.49707s20.667 8.33301 29 16s15.166 17.834 20.499 30.501s8 28.667 8 48v22l-94 -15
c-16 -2.66699 -29.333 -8.16699 -40 -16.5s-16 -21.166 -16 -38.499c0 -13.333 4.5 -25.166 13.5 -35.499s24.167 -15.5 45.5 -15.5zM80.9951 555.997l113 151h143l114 -151h-116l-71 71l-70 -71h-113z" />
    <glyph glyph-name="atilde" unicode="&#xe3;" horiz-adv-x="545" 
d="M37 137c0 22 3.82715 41.667 11.4941 59s18.167 32.166 31.5 44.499s28.833 22.333 46.5 30s36.834 13.167 57.501 16.5l117 18c13.333 2 22.666 6 27.999 12s8 13.333 8 22c0 14.667 -6.16699 27.334 -18.5 38.001s-30.5 16 -54.5 16
c-26.667 0 -47.167 -7.5 -61.5 -22.5s-22.166 -31.833 -23.499 -50.5l-132 27c1.33301 18 6.66602 36.667 15.999 56s22.833 37 40.5 53s39.834 29.333 66.501 40s58.334 16 95.001 16c40 0 74 -5.16699 102 -15.5s50.833 -24.333 68.5 -42s30.334 -38.167 38.001 -61.5
s11.5 -47.666 11.5 -72.999v-243c0 -19.333 0.833008 -36.333 2.5 -51s2.83398 -23.334 3.50098 -26.001h-137c-0.666992 2 -1.66699 7.5 -3 16.5s-2 22.167 -2 39.5c-13.333 -21.333 -31.666 -38.333 -54.999 -51s-51.666 -19 -84.999 -19
c-27.333 0 -51.666 4.16699 -72.999 12.5s-39.333 19.5 -54 33.5s-25.834 30 -33.501 48s-11.5 37 -11.5 57zM245.994 96c11.333 0 22.501 1.49707 33.501 4.49707s20.667 8.33301 29 16s15.166 17.834 20.499 30.501s8 28.667 8 48v22l-94 -15
c-16 -2.66699 -29.333 -8.16699 -40 -16.5s-16 -21.166 -16 -38.499c0 -13.333 4.5 -25.166 13.5 -35.499s24.167 -15.5 45.5 -15.5zM453.995 685.997c0 -44 -10.5 -76.666 -31.5 -97.999s-47.833 -32 -80.5 -32c-15.333 0 -29 2.33301 -41 7s-23.667 10 -35 16
c-10 5.33301 -19.5 10.166 -28.5 14.499s-18.167 6.5 -27.5 6.5c-10 0 -18 -3.33301 -24 -10s-9.33301 -17.667 -10 -33h-86v23c0 42.667 11 74.5 33 95.5s48.667 31.5 80 31.5c15.333 0 29 -2.33301 41 -7s23.667 -10 35 -16c10 -6 19.333 -11.167 28 -15.5
s17.667 -6.5 27 -6.5c22 0 33.667 14.667 35 44h85v-20z" />
    <glyph glyph-name="adieresis" unicode="&#xe4;" horiz-adv-x="545" 
d="M37 137c0 22 3.82715 41.667 11.4941 59s18.167 32.166 31.5 44.499s28.833 22.333 46.5 30s36.834 13.167 57.501 16.5l117 18c13.333 2 22.666 6 27.999 12s8 13.333 8 22c0 14.667 -6.16699 27.334 -18.5 38.001s-30.5 16 -54.5 16
c-26.667 0 -47.167 -7.5 -61.5 -22.5s-22.166 -31.833 -23.499 -50.5l-132 27c1.33301 18 6.66602 36.667 15.999 56s22.833 37 40.5 53s39.834 29.333 66.501 40s58.334 16 95.001 16c40 0 74 -5.16699 102 -15.5s50.833 -24.333 68.5 -42s30.334 -38.167 38.001 -61.5
s11.5 -47.666 11.5 -72.999v-243c0 -19.333 0.833008 -36.333 2.5 -51s2.83398 -23.334 3.50098 -26.001h-137c-0.666992 2 -1.66699 7.5 -3 16.5s-2 22.167 -2 39.5c-13.333 -21.333 -31.666 -38.333 -54.999 -51s-51.666 -19 -84.999 -19
c-27.333 0 -51.666 4.16699 -72.999 12.5s-39.333 19.5 -54 33.5s-25.834 30 -33.501 48s-11.5 37 -11.5 57zM245.994 96c11.333 0 22.501 1.49707 33.501 4.49707s20.667 8.33301 29 16s15.166 17.834 20.499 30.501s8 28.667 8 48v22l-94 -15
c-16 -2.66699 -29.333 -8.16699 -40 -16.5s-16 -21.166 -16 -38.499c0 -13.333 4.5 -25.166 13.5 -35.499s24.167 -15.5 45.5 -15.5zM80.9951 631.997c0 21.333 7.33301 39.5 22 54.5s32.667 22.5 54 22.5s39.5 -7.5 54.5 -22.5s22.5 -33.167 22.5 -54.5
s-7.5 -39.333 -22.5 -54s-33.167 -22 -54.5 -22s-39.333 7.33301 -54 22s-22 32.667 -22 54zM301.995 631.997c0 21.333 7.33301 39.5 22 54.5s32.667 22.5 54 22.5s39.5 -7.5 54.5 -22.5s22.5 -33.167 22.5 -54.5s-7.5 -39.333 -22.5 -54s-33.167 -22 -54.5 -22
s-39.333 7.33301 -54 22s-22 32.667 -22 54z" />
    <glyph glyph-name="aring" unicode="&#xe5;" horiz-adv-x="545" 
d="M37 137c0 22 3.82715 41.667 11.4941 59s18.167 32.166 31.5 44.499s28.833 22.333 46.5 30s36.834 13.167 57.501 16.5l117 18c13.333 2 22.666 6 27.999 12s8 13.333 8 22c0 14.667 -6.16699 27.334 -18.5 38.001s-30.5 16 -54.5 16
c-26.667 0 -47.167 -7.5 -61.5 -22.5s-22.166 -31.833 -23.499 -50.5l-132 27c1.33301 18 6.66602 36.667 15.999 56s22.833 37 40.5 53s39.834 29.333 66.501 40s58.334 16 95.001 16c40 0 74 -5.16699 102 -15.5s50.833 -24.333 68.5 -42s30.334 -38.167 38.001 -61.5
s11.5 -47.666 11.5 -72.999v-243c0 -19.333 0.833008 -36.333 2.5 -51s2.83398 -23.334 3.50098 -26.001h-137c-0.666992 2 -1.66699 7.5 -3 16.5s-2 22.167 -2 39.5c-13.333 -21.333 -31.666 -38.333 -54.999 -51s-51.666 -19 -84.999 -19
c-27.333 0 -51.666 4.16699 -72.999 12.5s-39.333 19.5 -54 33.5s-25.834 30 -33.501 48s-11.5 37 -11.5 57zM245.994 96c11.333 0 22.501 1.49707 33.501 4.49707s20.667 8.33301 29 16s15.166 17.834 20.499 30.501s8 28.667 8 48v22l-94 -15
c-16 -2.66699 -29.333 -8.16699 -40 -16.5s-16 -21.166 -16 -38.499c0 -13.333 4.5 -25.166 13.5 -35.499s24.167 -15.5 45.5 -15.5zM376.995 659.997c0 -16.667 -3.16699 -31.834 -9.5 -45.501s-14.833 -25.334 -25.5 -35.001s-23 -17.167 -37 -22.5s-28.667 -8 -44 -8
s-30 2.66699 -44 8s-26.333 12.833 -37 22.5s-19.167 21.334 -25.5 35.001s-9.5 28.834 -9.5 45.501s3.16699 31.834 9.5 45.501s14.833 25.5 25.5 35.5s23 17.833 37 23.5s28.667 8.5 44 8.5s30 -2.83301 44 -8.5s26.333 -13.5 37 -23.5s19.167 -21.833 25.5 -35.5
s9.5 -28.834 9.5 -45.501zM297.995 659.997c0 11.333 -3.5 20.5 -10.5 27.5s-15.833 10.5 -26.5 10.5s-19.5 -3.5 -26.5 -10.5s-10.5 -16.167 -10.5 -27.5s3.5 -20.5 10.5 -27.5s15.833 -10.5 26.5 -10.5s19.5 3.5 26.5 10.5s10.5 16.167 10.5 27.5z" />
    <glyph glyph-name="ae" unicode="&#xe6;" horiz-adv-x="871" 
d="M825 143c-6 -21.333 -15.667 -41.667 -29 -61s-29.666 -36.166 -48.999 -50.499s-41.833 -25.666 -67.5 -33.999s-54.167 -12.5 -85.5 -12.5c-36.667 0 -70.834 6.83301 -102.501 20.5s-59.167 33.167 -82.5 58.5c-18 -21.333 -42 -39.833 -72 -55.5
s-66 -23.5 -108 -23.5c-32 0 -60 4.16699 -84 12.5s-44 19.5 -60 33.5s-28 30.167 -36 48.5s-12 37.5 -12 57.5c0 22 3.83301 41.667 11.5 59s18.167 32.166 31.5 44.499s28.833 22.333 46.5 30s36.834 13.167 57.501 16.5l120 18c14 2 23.667 6 29 12s8 13.333 8 22
c0 14.667 -6.16699 27.334 -18.5 38.001s-30.833 16 -55.5 16c-28 0 -49.333 -7.5 -64 -22.5s-23 -31.833 -25 -50.5l-131 27c1.33301 18 6.83301 36.667 16.5 56s23.5 37 41.5 53s40.5 29.333 67.5 40s58.833 16 95.5 16c40 0 73.5 -5.16699 100.5 -15.5
s48.5 -24.166 64.5 -41.499c22 18 46.333 32 73 42s54.667 15 84 15c76.667 0 136.5 -22.333 179.5 -67s64.5 -107.334 64.5 -188.001c0 -10.667 -0.333008 -20.834 -1 -30.501s-1.33398 -15.167 -2.00098 -16.5h-349c0.666992 -15.333 4.33398 -28.833 11.001 -40.5
s15.167 -21.834 25.5 -30.501s22.166 -15.167 35.499 -19.5s27.333 -6.5 42 -6.5c28 0 50.333 6.33301 67 19s28.667 29 36 49zM248 95.999c10.667 0 21.666 1.5 32.999 4.5s21.333 8.33301 30 16s15.834 17.834 21.501 30.501s8.5 28.667 8.5 48v22l-98 -15
c-16 -2.66699 -29.5 -8.33398 -40.5 -17.001s-16.5 -21.667 -16.5 -39c0 -12 5 -23.333 15 -34s25.667 -16 47 -16zM686.999 307.999c-0.666992 9.33301 -2.83398 19 -6.50098 29s-9.5 19 -17.5 27s-18.333 14.667 -31 20s-28.334 8 -47.001 8
c-16 0 -30.167 -2.66699 -42.5 -8s-22.666 -12 -30.999 -20s-14.666 -17 -18.999 -27s-6.83301 -19.667 -7.5 -29h202z" />
    <glyph glyph-name="ccedilla" unicode="&#xe7;" horiz-adv-x="567" 
d="M301 372c-16 0 -30.8359 -2.67188 -44.5029 -8.00488s-25.667 -13.333 -36 -24s-18.5 -23.667 -24.5 -39s-9 -33 -9 -53s3.16699 -37.5 9.5 -52.5s14.666 -27.833 24.999 -38.5s22.5 -18.667 36.5 -24s29 -8 45 -8c29.333 0 52.5 7.66699 69.5 23s28.167 32.333 33.5 51
l134 -41c-5.33301 -19.333 -13.166 -38.166 -23.499 -56.499s-23.5 -35.166 -39.5 -50.499s-34.667 -28.5 -56 -39.5s-45 -18.5 -71 -22.5l-25 -38c30 -1.33301 53.667 -10 71 -26s26 -36.667 26 -62c0 -11.333 -2.33301 -22.833 -7 -34.5s-12.167 -22.167 -22.5 -31.5
s-24 -17 -41 -23s-37.833 -9 -62.5 -9c-29.333 0 -55 6.16699 -77 18.5s-37.667 24.5 -47 36.5l47 59c7.33301 -7.33301 17.333 -15.5 30 -24.5s28 -13.5 46 -13.5c25.333 0 38 8.66699 38 26c0 6.66699 -3 12.5 -9 17.5s-14.667 7.5 -26 7.5c-4 0 -8.5 -0.333008 -13.5 -1
s-9.5 -1.66699 -13.5 -3l-37 49l33 51c-32 4.66699 -61.667 14.334 -89 29.001s-51 33.334 -71 56.001s-35.667 48.834 -47 78.501s-17 61.834 -17 96.501c0 38.667 6.83301 74.167 20.5 106.5s32.334 60.166 56.001 83.499s51.334 41.5 83.001 54.5
s65.834 19.5 102.501 19.5c34 0 64.667 -4.83301 92 -14.5s51 -22.5 71 -38.5s36.333 -34.5 49 -55.5s21.667 -42.5 27 -64.5l-136 -41c-2.66699 9.33301 -6.66699 18.5 -12 27.5s-12 17 -20 24s-17.667 12.5 -29 16.5s-24.333 6 -39 6z" />
    <glyph glyph-name="egrave" unicode="&#xe8;" horiz-adv-x="570" 
d="M386 308c-0.666992 9.33301 -2.83398 19 -6.50098 29s-9.5 19 -17.5 27s-18.167 14.667 -30.5 20s-27.5 8 -45.5 8c-16 0 -30 -2.66699 -42 -8s-22.167 -12 -30.5 -20s-14.666 -17 -18.999 -27s-6.83301 -19.667 -7.5 -29h199zM524 143
c-6 -21.333 -15.3291 -41.666 -27.9961 -60.999s-28.667 -36.166 -48 -50.499s-41.833 -25.666 -67.5 -33.999s-54.167 -12.5 -85.5 -12.5c-34 0 -66.667 6 -98 18s-59 29.333 -83 52s-43 50.334 -57 83.001s-21 70 -21 112c0 40 6.83301 76.167 20.5 108.5
s32 59.833 55 82.5s49.5 40.167 79.5 52.5s61 18.5 93 18.5c77.333 0 138.166 -22.333 182.499 -67s66.5 -107.334 66.5 -188.001c0 -10.667 -0.333008 -20.834 -1 -30.501s-1.33398 -15.167 -2.00098 -16.5h-346c0.666992 -14 4.16699 -26.833 10.5 -38.5
s14.666 -21.834 24.999 -30.501s22.166 -15.334 35.499 -20.001s27.333 -7 42 -7c28 0 49.833 6 65.5 18s27.167 27.667 34.5 47zM98.0039 707h173l93 -151h-124z" />
    <glyph glyph-name="eacute" unicode="&#xe9;" horiz-adv-x="570" 
d="M334 556h-121l92 151h170zM386 308c-0.666992 9.33301 -2.83398 19 -6.50098 29s-9.5 19 -17.5 27s-18.167 14.667 -30.5 20s-27.5 8 -45.5 8c-16 0 -30 -2.66699 -42 -8s-22.167 -12 -30.5 -20s-14.666 -17 -18.999 -27s-6.83301 -19.667 -7.5 -29h199zM524 143
c-6 -21.333 -15.3291 -41.666 -27.9961 -60.999s-28.667 -36.166 -48 -50.499s-41.833 -25.666 -67.5 -33.999s-54.167 -12.5 -85.5 -12.5c-34 0 -66.667 6 -98 18s-59 29.333 -83 52s-43 50.334 -57 83.001s-21 70 -21 112c0 40 6.83301 76.167 20.5 108.5
s32 59.833 55 82.5s49.5 40.167 79.5 52.5s61 18.5 93 18.5c77.333 0 138.166 -22.333 182.499 -67s66.5 -107.334 66.5 -188.001c0 -10.667 -0.333008 -20.834 -1 -30.501s-1.33398 -15.167 -2.00098 -16.5h-346c0.666992 -14 4.16699 -26.833 10.5 -38.5
s14.666 -21.834 24.999 -30.501s22.166 -15.334 35.499 -20.001s27.333 -7 42 -7c28 0 49.833 6 65.5 18s27.167 27.667 34.5 47z" />
    <glyph glyph-name="ecircumflex" unicode="&#xea;" horiz-adv-x="570" 
d="M103 556l113 151h143l114 -151h-116l-71 71l-70 -71h-113zM386 308c-0.666992 9.33301 -2.83398 19 -6.50098 29s-9.5 19 -17.5 27s-18.167 14.667 -30.5 20s-27.5 8 -45.5 8c-16 0 -30 -2.66699 -42 -8s-22.167 -12 -30.5 -20s-14.666 -17 -18.999 -27
s-6.83301 -19.667 -7.5 -29h199zM524 143c-6 -21.333 -15.3291 -41.666 -27.9961 -60.999s-28.667 -36.166 -48 -50.499s-41.833 -25.666 -67.5 -33.999s-54.167 -12.5 -85.5 -12.5c-34 0 -66.667 6 -98 18s-59 29.333 -83 52s-43 50.334 -57 83.001s-21 70 -21 112
c0 40 6.83301 76.167 20.5 108.5s32 59.833 55 82.5s49.5 40.167 79.5 52.5s61 18.5 93 18.5c77.333 0 138.166 -22.333 182.499 -67s66.5 -107.334 66.5 -188.001c0 -10.667 -0.333008 -20.834 -1 -30.501s-1.33398 -15.167 -2.00098 -16.5h-346
c0.666992 -14 4.16699 -26.833 10.5 -38.5s14.666 -21.834 24.999 -30.501s22.166 -15.334 35.499 -20.001s27.333 -7 42 -7c28 0 49.833 6 65.5 18s27.167 27.667 34.5 47z" />
    <glyph glyph-name="edieresis" unicode="&#xeb;" horiz-adv-x="570" 
d="M102 632c0 21.333 7.33301 39.5 22 54.5s32.667 22.5 54 22.5s39.5 -7.5 54.5 -22.5s22.5 -33.167 22.5 -54.5s-7.5 -39.333 -22.5 -54s-33.167 -22 -54.5 -22s-39.333 7.33301 -54 22s-22 32.667 -22 54zM323 632c0 21.333 7.33301 39.5 22 54.5s32.667 22.5 54 22.5
s39.5 -7.5 54.5 -22.5s22.5 -33.167 22.5 -54.5s-7.5 -39.333 -22.5 -54s-33.167 -22 -54.5 -22s-39.333 7.33301 -54 22s-22 32.667 -22 54zM386 308c-0.666992 9.33301 -2.83398 19 -6.50098 29s-9.5 19 -17.5 27s-18.167 14.667 -30.5 20s-27.5 8 -45.5 8
c-16 0 -30 -2.66699 -42 -8s-22.167 -12 -30.5 -20s-14.666 -17 -18.999 -27s-6.83301 -19.667 -7.5 -29h199zM524 143c-6 -21.333 -15.3291 -41.666 -27.9961 -60.999s-28.667 -36.166 -48 -50.499s-41.833 -25.666 -67.5 -33.999s-54.167 -12.5 -85.5 -12.5
c-34 0 -66.667 6 -98 18s-59 29.333 -83 52s-43 50.334 -57 83.001s-21 70 -21 112c0 40 6.83301 76.167 20.5 108.5s32 59.833 55 82.5s49.5 40.167 79.5 52.5s61 18.5 93 18.5c77.333 0 138.166 -22.333 182.499 -67s66.5 -107.334 66.5 -188.001
c0 -10.667 -0.333008 -20.834 -1 -30.501s-1.33398 -15.167 -2.00098 -16.5h-346c0.666992 -14 4.16699 -26.833 10.5 -38.5s14.666 -21.834 24.999 -30.501s22.166 -15.334 35.499 -20.001s27.333 -7 42 -7c28 0 49.833 6 65.5 18s27.167 27.667 34.5 47z" />
    <glyph glyph-name="igrave" unicode="&#xec;" horiz-adv-x="280" 
d="M64 0v497h152v-497h-152zM-55 707h173l93 -151h-124z" />
    <glyph glyph-name="iacute" unicode="&#xed;" horiz-adv-x="280" 
d="M187 556h-121l92 151h170zM64 0v497h152v-497h-152z" />
    <glyph glyph-name="icircumflex" unicode="&#xee;" horiz-adv-x="280" 
d="M-44 556l113 151h143l114 -151h-116l-71 71l-70 -71h-113zM64 0v497h152v-497h-152z" />
    <glyph glyph-name="idieresis" unicode="&#xef;" horiz-adv-x="280" 
d="M64 0v497h152v-497h-152zM-25 633c0 20.667 7.16699 38.167 21.5 52.5s32.166 21.5 53.499 21.5c20.667 0 38.167 -7.16699 52.5 -21.5s21.5 -31.833 21.5 -52.5c0 -21.333 -7.16699 -39.166 -21.5 -53.499s-31.833 -21.5 -52.5 -21.5
c-21.333 0 -39.166 7.16699 -53.499 21.5s-21.5 32.166 -21.5 53.499zM156 633c0 20.667 7 38.167 21 52.5s31.333 21.5 52 21.5c21.333 0 39.166 -7.16699 53.499 -21.5s21.5 -31.833 21.5 -52.5c0 -21.333 -7.16699 -39.166 -21.5 -53.499s-32.166 -21.5 -53.499 -21.5
c-20.667 0 -38 7.16699 -52 21.5s-21 32.166 -21 53.499z" />
    <glyph glyph-name="eth" unicode="&#xf0;" horiz-adv-x="602" 
d="M459 584c32 -38.667 56.8369 -83 74.5039 -133s26.5 -105.333 26.5 -166c0 -39.333 -5.33301 -77 -16 -113s-26.834 -67.833 -48.501 -95.5s-49 -49.834 -82 -66.501s-71.833 -25 -116.5 -25c-36.667 0 -71 6.16699 -103 18.5s-59.667 29.5 -83 51.5s-41.833 48 -55.5 78
s-20.5 62.667 -20.5 98c0 38.667 7.16699 72.334 21.5 101.001s33.166 52.5 56.499 71.5s49.666 33.333 78.999 43s59 14.5 89 14.5c9.33301 0 19.166 -0.666992 29.499 -2s20.333 -3.5 30 -6.5s18.5 -6.5 26.5 -10.5s14.333 -8.66699 19 -14
c-6 20.667 -14.333 39.5 -25 56.5s-22.667 32.833 -36 47.5l-139 -53l-34 88l83 33c-18 10 -36.333 18.5 -55 25.5s-36.667 13.167 -54 18.5l46 112c40 -10 78 -23.333 114 -40s68.333 -36 97 -58l116 45l35 -90zM297.004 122c14.667 0 28.667 2.33496 42 7.00195
s25.166 11.667 35.499 21s18.666 20.833 24.999 34.5s9.5 29.5 9.5 47.5c0 18.667 -3.16699 35 -9.5 49s-14.666 25.667 -24.999 35s-22.166 16.333 -35.499 21s-27.333 7 -42 7c-14 0 -27.667 -2.33301 -41 -7s-25.166 -11.834 -35.499 -21.501
s-18.666 -21.334 -24.999 -35.001s-9.5 -29.5 -9.5 -47.5c0 -17.333 3.16699 -33 9.5 -47s14.666 -25.667 24.999 -35s22.166 -16.5 35.499 -21.5s27 -7.5 41 -7.5z" />
    <glyph glyph-name="ntilde" unicode="&#xf1;" horiz-adv-x="590" 
d="M216 0l-152.002 -0.00195312v497h147v-57c6.66699 12 15.334 22.333 26.001 31s22.167 15.834 34.5 21.501s25.333 10 39 13s26.834 4.5 39.501 4.5c31.333 0 58.333 -5.16699 81 -15.5s41.5 -24.5 56.5 -42.5s26 -39 33 -63s10.5 -49.667 10.5 -77v-312h-152v286
c0 24.667 -6.5 45.167 -19.5 61.5s-33.5 24.5 -61.5 24.5c-25.333 0 -45.333 -8.16699 -60 -24.5s-22 -37.166 -22 -62.499v-285zM482.998 685.998c0 -44 -10.5 -76.666 -31.5 -97.999s-47.833 -32 -80.5 -32c-15.333 0 -29 2.33301 -41 7s-23.667 10 -35 16
c-10 5.33301 -19.5 10.166 -28.5 14.499s-18.167 6.5 -27.5 6.5c-10 0 -18 -3.33301 -24 -10s-9.33301 -17.667 -10 -33h-86v23c0 42.667 11 74.5 33 95.5s48.667 31.5 80 31.5c15.333 0 29 -2.33301 41 -7s23.667 -10 35 -16c10 -6 19.333 -11.167 28 -15.5
s17.667 -6.5 27 -6.5c22 0 33.667 14.667 35 44h85v-20z" />
    <glyph glyph-name="ograve" unicode="&#xf2;" horiz-adv-x="600" 
d="M300 125c14.667 0 28.667 2.50293 42 7.50293s25.166 12.667 35.499 23s18.666 23.166 24.999 38.499s9.5 33.666 9.5 54.999c0 20.667 -3.16699 38.834 -9.5 54.501s-14.666 28.5 -24.999 38.5s-22.166 17.5 -35.499 22.5s-27.333 7.5 -42 7.5
c-14 0 -27.833 -2.5 -41.5 -7.5s-25.667 -12.5 -36 -22.5s-18.666 -22.833 -24.999 -38.5s-9.5 -33.834 -9.5 -54.501s3.16699 -38.834 9.5 -54.501s14.666 -28.667 24.999 -39s22.333 -18 36 -23s27.5 -7.5 41.5 -7.5zM300 512.003c37.333 0 72 -6.5 104 -19.5
s59.833 -31.167 83.5 -54.5s42.334 -51 56.001 -83s20.5 -67.333 20.5 -106s-6.83301 -74.167 -20.5 -106.5s-32.334 -60.166 -56.001 -83.499s-51.5 -41.5 -83.5 -54.5s-66.667 -19.5 -104 -19.5s-72 6.5 -104 19.5s-59.833 31.167 -83.5 54.5
s-42.334 51.166 -56.001 83.499s-20.5 67.833 -20.5 106.5s6.83301 74 20.5 106s32.334 59.667 56.001 83s51.5 41.5 83.5 54.5s66.667 19.5 104 19.5zM104 707.003h173l93 -151h-124z" />
    <glyph glyph-name="oacute" unicode="&#xf3;" horiz-adv-x="600" 
d="M348 556h-121l92 151h170zM300 125c14.667 0 28.667 2.50293 42 7.50293s25.166 12.667 35.499 23s18.666 23.166 24.999 38.499s9.5 33.666 9.5 54.999c0 20.667 -3.16699 38.834 -9.5 54.501s-14.666 28.5 -24.999 38.5s-22.166 17.5 -35.499 22.5s-27.333 7.5 -42 7.5
c-14 0 -27.833 -2.5 -41.5 -7.5s-25.667 -12.5 -36 -22.5s-18.666 -22.833 -24.999 -38.5s-9.5 -33.834 -9.5 -54.501s3.16699 -38.834 9.5 -54.501s14.666 -28.667 24.999 -39s22.333 -18 36 -23s27.5 -7.5 41.5 -7.5zM300 512.003c37.333 0 72 -6.5 104 -19.5
s59.833 -31.167 83.5 -54.5s42.334 -51 56.001 -83s20.5 -67.333 20.5 -106s-6.83301 -74.167 -20.5 -106.5s-32.334 -60.166 -56.001 -83.499s-51.5 -41.5 -83.5 -54.5s-66.667 -19.5 -104 -19.5s-72 6.5 -104 19.5s-59.833 31.167 -83.5 54.5
s-42.334 51.166 -56.001 83.499s-20.5 67.833 -20.5 106.5s6.83301 74 20.5 106s32.334 59.667 56.001 83s51.5 41.5 83.5 54.5s66.667 19.5 104 19.5z" />
    <glyph glyph-name="ocircumflex" unicode="&#xf4;" horiz-adv-x="600" 
d="M117 556l113 151h143l114 -151h-116l-71 71l-70 -71h-113zM300 125c14.667 0 28.667 2.50293 42 7.50293s25.166 12.667 35.499 23s18.666 23.166 24.999 38.499s9.5 33.666 9.5 54.999c0 20.667 -3.16699 38.834 -9.5 54.501s-14.666 28.5 -24.999 38.5
s-22.166 17.5 -35.499 22.5s-27.333 7.5 -42 7.5c-14 0 -27.833 -2.5 -41.5 -7.5s-25.667 -12.5 -36 -22.5s-18.666 -22.833 -24.999 -38.5s-9.5 -33.834 -9.5 -54.501s3.16699 -38.834 9.5 -54.501s14.666 -28.667 24.999 -39s22.333 -18 36 -23s27.5 -7.5 41.5 -7.5z
M300 512.003c37.333 0 72 -6.5 104 -19.5s59.833 -31.167 83.5 -54.5s42.334 -51 56.001 -83s20.5 -67.333 20.5 -106s-6.83301 -74.167 -20.5 -106.5s-32.334 -60.166 -56.001 -83.499s-51.5 -41.5 -83.5 -54.5s-66.667 -19.5 -104 -19.5s-72 6.5 -104 19.5
s-59.833 31.167 -83.5 54.5s-42.334 51.166 -56.001 83.499s-20.5 67.833 -20.5 106.5s6.83301 74 20.5 106s32.334 59.667 56.001 83s51.5 41.5 83.5 54.5s66.667 19.5 104 19.5z" />
    <glyph glyph-name="otilde" unicode="&#xf5;" horiz-adv-x="600" 
d="M300 125c14.667 0 28.667 2.50293 42 7.50293s25.166 12.667 35.499 23s18.666 23.166 24.999 38.499s9.5 33.666 9.5 54.999c0 20.667 -3.16699 38.834 -9.5 54.501s-14.666 28.5 -24.999 38.5s-22.166 17.5 -35.499 22.5s-27.333 7.5 -42 7.5
c-14 0 -27.833 -2.5 -41.5 -7.5s-25.667 -12.5 -36 -22.5s-18.666 -22.833 -24.999 -38.5s-9.5 -33.834 -9.5 -54.501s3.16699 -38.834 9.5 -54.501s14.666 -28.667 24.999 -39s22.333 -18 36 -23s27.5 -7.5 41.5 -7.5zM300 512.003c37.333 0 72 -6.5 104 -19.5
s59.833 -31.167 83.5 -54.5s42.334 -51 56.001 -83s20.5 -67.333 20.5 -106s-6.83301 -74.167 -20.5 -106.5s-32.334 -60.166 -56.001 -83.499s-51.5 -41.5 -83.5 -54.5s-66.667 -19.5 -104 -19.5s-72 6.5 -104 19.5s-59.833 31.167 -83.5 54.5
s-42.334 51.166 -56.001 83.499s-20.5 67.833 -20.5 106.5s6.83301 74 20.5 106s32.334 59.667 56.001 83s51.5 41.5 83.5 54.5s66.667 19.5 104 19.5zM484 686.003c0 -44 -10.5 -76.666 -31.5 -97.999s-47.833 -32 -80.5 -32c-15.333 0 -29 2.33301 -41 7
s-23.667 10 -35 16c-10 5.33301 -19.5 10.166 -28.5 14.499s-18.167 6.5 -27.5 6.5c-10 0 -18 -3.33301 -24 -10s-9.33301 -17.667 -10 -33h-86v23c0 42.667 11 74.5 33 95.5s48.667 31.5 80 31.5c15.333 0 29 -2.33301 41 -7s23.667 -10 35 -16
c10 -6 19.333 -11.167 28 -15.5s17.667 -6.5 27 -6.5c22 0 33.667 14.667 35 44h85v-20z" />
    <glyph glyph-name="odieresis" unicode="&#xf6;" horiz-adv-x="600" 
d="M113 632c0 21.333 7.33301 39.5 22 54.5s32.667 22.5 54 22.5s39.5 -7.5 54.5 -22.5s22.5 -33.167 22.5 -54.5s-7.5 -39.333 -22.5 -54s-33.167 -22 -54.5 -22s-39.333 7.33301 -54 22s-22 32.667 -22 54zM334 632c0 21.333 7.33301 39.5 22 54.5s32.667 22.5 54 22.5
s39.5 -7.5 54.5 -22.5s22.5 -33.167 22.5 -54.5s-7.5 -39.333 -22.5 -54s-33.167 -22 -54.5 -22s-39.333 7.33301 -54 22s-22 32.667 -22 54zM300 125c14.667 0 28.667 2.50293 42 7.50293s25.166 12.667 35.499 23s18.666 23.166 24.999 38.499s9.5 33.666 9.5 54.999
c0 20.667 -3.16699 38.834 -9.5 54.501s-14.666 28.5 -24.999 38.5s-22.166 17.5 -35.499 22.5s-27.333 7.5 -42 7.5c-14 0 -27.833 -2.5 -41.5 -7.5s-25.667 -12.5 -36 -22.5s-18.666 -22.833 -24.999 -38.5s-9.5 -33.834 -9.5 -54.501s3.16699 -38.834 9.5 -54.501
s14.666 -28.667 24.999 -39s22.333 -18 36 -23s27.5 -7.5 41.5 -7.5zM300 512.003c37.333 0 72 -6.5 104 -19.5s59.833 -31.167 83.5 -54.5s42.334 -51 56.001 -83s20.5 -67.333 20.5 -106s-6.83301 -74.167 -20.5 -106.5s-32.334 -60.166 -56.001 -83.499
s-51.5 -41.5 -83.5 -54.5s-66.667 -19.5 -104 -19.5s-72 6.5 -104 19.5s-59.833 31.167 -83.5 54.5s-42.334 51.166 -56.001 83.499s-20.5 67.833 -20.5 106.5s6.83301 74 20.5 106s32.334 59.667 56.001 83s51.5 41.5 83.5 54.5s66.667 19.5 104 19.5z" />
    <glyph glyph-name="divide" unicode="&#xf7;" horiz-adv-x="579" 
d="M201 174c0 11.333 2.16699 22.166 6.5 32.499s10.333 19.333 18 27s16.667 13.667 27 18s21.5 6.5 33.5 6.5c23.333 0 43.166 -8.16699 59.499 -24.5s24.5 -36.166 24.5 -59.499s-8.16699 -43.333 -24.5 -60s-36.166 -25 -59.499 -25c-12 0 -23.167 2.33301 -33.5 7
s-19.333 10.834 -27 18.501s-13.667 16.667 -18 27s-6.5 21.166 -6.5 32.499zM201 546c0 11.333 2.16699 22.166 6.5 32.499s10.333 19.333 18 27s16.667 13.667 27 18s21.5 6.5 33.5 6.5c23.333 0 43.166 -8.16699 59.499 -24.5s24.5 -36.166 24.5 -59.499
s-8.16699 -43.333 -24.5 -60s-36.166 -25 -59.499 -25c-12 0 -23.167 2.33301 -33.5 7s-19.333 10.834 -27 18.501s-13.667 16.667 -18 27s-6.5 21.166 -6.5 32.499zM37 422h505v-125h-505v125z" />
    <glyph glyph-name="oslash" unicode="&#xf8;" horiz-adv-x="600" 
d="M300 512c50 0 95.001 -11.334 135.001 -34.001l54 65l68 -57l-53 -64c19.333 -22.667 34.166 -48.667 44.499 -78s15.5 -61 15.5 -95c0 -38.667 -6.83301 -74.167 -20.5 -106.5s-32.334 -60.166 -56.001 -83.499s-51.5 -41.5 -83.5 -54.5s-66.667 -19.5 -104 -19.5
c-24 0 -46.833 2.83301 -68.5 8.5s-42.167 13.5 -61.5 23.5l-51 -62l-69 57l50 60c-20 23.333 -35.667 49.833 -47 79.5s-17 62.167 -17 97.5c0 38.667 6.83301 74 20.5 106s32.334 59.667 56.001 83s51.5 41.5 83.5 54.5s66.667 19.5 104 19.5zM188.001 248.999
c0 -11.333 0.832031 -21.666 2.49902 -30.999s4.16699 -18 7.5 -26l143 172c-14 5.33301 -27.667 8 -41 8c-14 0 -27.833 -2.5 -41.5 -7.5s-25.667 -12.5 -36 -22.5s-18.666 -22.833 -24.999 -38.5s-9.5 -33.834 -9.5 -54.501zM300 124.999
c14.667 0 28.6689 2.50195 42.002 7.50195s25.166 12.667 35.499 23s18.666 23.166 24.999 38.499s9.5 33.666 9.5 54.999c0 18 -2.66699 35 -8 51l-140 -169c10.667 -4 22.667 -6 36 -6z" />
    <glyph glyph-name="ugrave" unicode="&#xf9;" horiz-adv-x="591" 
d="M385 0c-1.33301 4.66699 -2.33301 12.5 -3 23.5s-1 19.833 -1 26.5c-13.333 -21.333 -32.5 -36.833 -57.5 -46.5s-50.167 -14.5 -75.5 -14.5c-30 0 -56.833 5.16699 -80.5 15.5s-43.5 24.333 -59.5 42s-28.167 38.167 -36.5 61.5s-12.5 48.333 -12.5 75v314h152v-282
c0 -24 6.5 -44.333 19.5 -61s33.167 -25 60.5 -25c25.333 0 45.5 7.83301 60.5 23.5s22.5 36.167 22.5 61.5v283h152v-408c0 -22.667 0.666992 -42.167 2 -58.5s2.33301 -26.5 3 -30.5h-146zM114 707h173l93 -151h-124z" />
    <glyph glyph-name="uacute" unicode="&#xfa;" horiz-adv-x="591" 
d="M323 556h-121l92 151h170zM385 0c-1.33301 4.66699 -2.33301 12.5 -3 23.5s-1 19.833 -1 26.5c-13.333 -21.333 -32.5 -36.833 -57.5 -46.5s-50.167 -14.5 -75.5 -14.5c-30 0 -56.833 5.16699 -80.5 15.5s-43.5 24.333 -59.5 42s-28.167 38.167 -36.5 61.5
s-12.5 48.333 -12.5 75v314h152v-282c0 -24 6.5 -44.333 19.5 -61s33.167 -25 60.5 -25c25.333 0 45.5 7.83301 60.5 23.5s22.5 36.167 22.5 61.5v283h152v-408c0 -22.667 0.666992 -42.167 2 -58.5s2.33301 -26.5 3 -30.5h-146z" />
    <glyph glyph-name="ucircumflex" unicode="&#xfb;" horiz-adv-x="591" 
d="M110 556l113 151h143l114 -151h-116l-71 71l-70 -71h-113zM385 0c-1.33301 4.66699 -2.33301 12.5 -3 23.5s-1 19.833 -1 26.5c-13.333 -21.333 -32.5 -36.833 -57.5 -46.5s-50.167 -14.5 -75.5 -14.5c-30 0 -56.833 5.16699 -80.5 15.5s-43.5 24.333 -59.5 42
s-28.167 38.167 -36.5 61.5s-12.5 48.333 -12.5 75v314h152v-282c0 -24 6.5 -44.333 19.5 -61s33.167 -25 60.5 -25c25.333 0 45.5 7.83301 60.5 23.5s22.5 36.167 22.5 61.5v283h152v-408c0 -22.667 0.666992 -42.167 2 -58.5s2.33301 -26.5 3 -30.5h-146z" />
    <glyph glyph-name="udieresis" unicode="&#xfc;" horiz-adv-x="591" 
d="M110 632c0 21.333 7.33301 39.5 22 54.5s32.667 22.5 54 22.5s39.5 -7.5 54.5 -22.5s22.5 -33.167 22.5 -54.5s-7.5 -39.333 -22.5 -54s-33.167 -22 -54.5 -22s-39.333 7.33301 -54 22s-22 32.667 -22 54zM331 632c0 21.333 7.33301 39.5 22 54.5s32.667 22.5 54 22.5
s39.5 -7.5 54.5 -22.5s22.5 -33.167 22.5 -54.5s-7.5 -39.333 -22.5 -54s-33.167 -22 -54.5 -22s-39.333 7.33301 -54 22s-22 32.667 -22 54zM385 0c-1.33301 4.66699 -2.33301 12.5 -3 23.5s-1 19.833 -1 26.5c-13.333 -21.333 -32.5 -36.833 -57.5 -46.5
s-50.167 -14.5 -75.5 -14.5c-30 0 -56.833 5.16699 -80.5 15.5s-43.5 24.333 -59.5 42s-28.167 38.167 -36.5 61.5s-12.5 48.333 -12.5 75v314h152v-282c0 -24 6.5 -44.333 19.5 -61s33.167 -25 60.5 -25c25.333 0 45.5 7.83301 60.5 23.5s22.5 36.167 22.5 61.5v283h152
v-408c0 -22.667 0.666992 -42.167 2 -58.5s2.33301 -26.5 3 -30.5h-146z" />
    <glyph glyph-name="yacute" unicode="&#xfd;" horiz-adv-x="577" 
d="M105 -191l113 258l-209 430h170l121 -266l110 266h161l-306 -688h-160zM331 556h-121l92 151h170z" />
    <glyph glyph-name="thorn" unicode="&#xfe;" horiz-adv-x="625" 
d="M64 -190l-0.00292969 914.001h152v-272c11.333 15.333 29.333 28.666 54 39.999s53.667 17 87 17c36 0 68.333 -6.5 97 -19.5s52.834 -31 72.501 -54s34.834 -50.333 45.501 -82s16 -66.167 16 -103.5c0 -38 -5.83301 -73 -17.5 -105s-28 -59.5 -49 -82.5
s-46 -41 -75 -54s-60.833 -19.5 -95.5 -19.5c-32 0 -59.667 4.83301 -83 14.5s-40.666 21.5 -51.999 35.5v-229h-152zM438.997 249.001c0 20.667 -3 38.6641 -9 53.9971s-14.333 28.166 -25 38.499s-22.834 18 -36.501 23s-27.834 7.5 -42.501 7.5
s-28.834 -2.5 -42.501 -7.5s-25.667 -12.667 -36 -23s-18.5 -23.166 -24.5 -38.499s-9 -33.333 -9 -54s3 -38.667 9 -54s14.167 -28.166 24.5 -38.499s22.333 -18.166 36 -23.499s27.834 -8 42.501 -8s28.834 2.5 42.501 7.5s25.834 12.667 36.501 23s19 23.333 25 39
s9 33.834 9 54.501z" />
    <glyph glyph-name="ydieresis" unicode="&#xff;" horiz-adv-x="577" 
d="M105 -191l113 258l-209 430h170l121 -266l110 266h161l-306 -688h-160zM108 632c0 21.333 7.33301 39.5 22 54.5s32.667 22.5 54 22.5s39.5 -7.5 54.5 -22.5s22.5 -33.167 22.5 -54.5s-7.5 -39.333 -22.5 -54s-33.167 -22 -54.5 -22s-39.333 7.33301 -54 22
s-22 32.667 -22 54zM329 632c0 21.333 7.33301 39.5 22 54.5s32.667 22.5 54 22.5s39.5 -7.5 54.5 -22.5s22.5 -33.167 22.5 -54.5s-7.5 -39.333 -22.5 -54s-33.167 -22 -54.5 -22s-39.333 7.33301 -54 22s-22 32.667 -22 54z" />
    <glyph glyph-name="Amacron" unicode="&#x100;" horiz-adv-x="729" 
d="M498 144h-274l-51 -144h-166l267 709h183l264 -709h-172zM276 288h172l-85 245zM206 771v109h311v-109h-311z" />
    <glyph glyph-name="amacron" unicode="&#x101;" horiz-adv-x="545" 
d="M37 137c0 22 3.82715 41.667 11.4941 59s18.167 32.166 31.5 44.499s28.833 22.333 46.5 30s36.834 13.167 57.501 16.5l117 18c13.333 2 22.666 6 27.999 12s8 13.333 8 22c0 14.667 -6.16699 27.334 -18.5 38.001s-30.5 16 -54.5 16
c-26.667 0 -47.167 -7.5 -61.5 -22.5s-22.166 -31.833 -23.499 -50.5l-132 27c1.33301 18 6.66602 36.667 15.999 56s22.833 37 40.5 53s39.834 29.333 66.501 40s58.334 16 95.001 16c40 0 74 -5.16699 102 -15.5s50.833 -24.333 68.5 -42s30.334 -38.167 38.001 -61.5
s11.5 -47.666 11.5 -72.999v-243c0 -19.333 0.833008 -36.333 2.5 -51s2.83398 -23.334 3.50098 -26.001h-137c-0.666992 2 -1.66699 7.5 -3 16.5s-2 22.167 -2 39.5c-13.333 -21.333 -31.666 -38.333 -54.999 -51s-51.666 -19 -84.999 -19
c-27.333 0 -51.666 4.16699 -72.999 12.5s-39.333 19.5 -54 33.5s-25.834 30 -33.501 48s-11.5 37 -11.5 57zM245.994 96c11.333 0 22.501 1.49707 33.501 4.49707s20.667 8.33301 29 16s15.166 17.834 20.499 30.501s8 28.667 8 48v22l-94 -15
c-16 -2.66699 -29.333 -8.16699 -40 -16.5s-16 -21.166 -16 -38.499c0 -13.333 4.5 -25.166 13.5 -35.499s24.167 -15.5 45.5 -15.5zM127.995 576.997v105h286v-105h-286z" />
    <glyph glyph-name="Abreve" unicode="&#x102;" horiz-adv-x="729" 
d="M498 144h-274l-51 -144h-166l267 709h183l264 -709h-172zM276 288h172l-85 245zM362 753c-28 0 -52.3291 4 -72.9961 12s-37.834 18.5 -51.501 31.5s-24 27.833 -31 44.5s-10.833 33.334 -11.5 50.001h113c0.666992 -14.667 5.5 -26.667 14.5 -36s22.167 -14 39.5 -14
s30.666 4.66699 39.999 14s14.333 21.333 15 36h112c-0.666992 -16.667 -4.33398 -33.334 -11.001 -50.001s-16.834 -31.5 -30.501 -44.5s-31 -23.5 -52 -31.5s-45.5 -12 -73.5 -12z" />
    <glyph glyph-name="abreve" unicode="&#x103;" horiz-adv-x="545" 
d="M37 137c0 22 3.82715 41.667 11.4941 59s18.167 32.166 31.5 44.499s28.833 22.333 46.5 30s36.834 13.167 57.501 16.5l117 18c13.333 2 22.666 6 27.999 12s8 13.333 8 22c0 14.667 -6.16699 27.334 -18.5 38.001s-30.5 16 -54.5 16
c-26.667 0 -47.167 -7.5 -61.5 -22.5s-22.166 -31.833 -23.499 -50.5l-132 27c1.33301 18 6.66602 36.667 15.999 56s22.833 37 40.5 53s39.834 29.333 66.501 40s58.334 16 95.001 16c40 0 74 -5.16699 102 -15.5s50.833 -24.333 68.5 -42s30.334 -38.167 38.001 -61.5
s11.5 -47.666 11.5 -72.999v-243c0 -19.333 0.833008 -36.333 2.5 -51s2.83398 -23.334 3.50098 -26.001h-137c-0.666992 2 -1.66699 7.5 -3 16.5s-2 22.167 -2 39.5c-13.333 -21.333 -31.666 -38.333 -54.999 -51s-51.666 -19 -84.999 -19
c-27.333 0 -51.666 4.16699 -72.999 12.5s-39.333 19.5 -54 33.5s-25.834 30 -33.501 48s-11.5 37 -11.5 57zM245.994 96c11.333 0 22.501 1.49707 33.501 4.49707s20.667 8.33301 29 16s15.166 17.834 20.499 30.501s8 28.667 8 48v22l-94 -15
c-16 -2.66699 -29.333 -8.16699 -40 -16.5s-16 -21.166 -16 -38.499c0 -13.333 4.5 -25.166 13.5 -35.499s24.167 -15.5 45.5 -15.5zM264.995 550.997c-27.333 0 -51.5 4.33301 -72.5 13s-38.5 20.167 -52.5 34.5s-24.5 30.833 -31.5 49.5s-10.833 38.334 -11.5 59.001h96
c1.33301 -13.333 7.33301 -26 18 -38s28.667 -18 54 -18s43.333 6 54 18s16.667 24.667 18 38h97c-0.666992 -20.667 -4.66699 -40.334 -12 -59.001s-18 -35.167 -32 -49.5s-31.333 -25.833 -52 -34.5s-45 -13 -73 -13z" />
    <glyph glyph-name="Aogonek" unicode="&#x104;" horiz-adv-x="729" 
d="M276 288h172l-85 243zM542 -117c0 30 7.33105 54.167 21.998 72.5s31.334 33.166 50.001 44.499h-65l-51 144h-274l-51 -144h-166l267 709h183l264 -709c-19.333 -9.33301 -36.833 -22.166 -52.5 -38.499s-23.5 -34.5 -23.5 -54.5c0 -14 4.5 -24.667 13.5 -32
s20.167 -11 33.5 -11c6.66699 0 12.334 0.166992 17.001 0.5s8.66699 0.833008 12 1.5v-84c-14 -5.33301 -31.667 -8 -53 -8c-38 0 -68.5 9.83301 -91.5 29.5s-34.5 46.167 -34.5 79.5z" />
    <glyph glyph-name="aogonek" unicode="&#x105;" horiz-adv-x="545" 
d="M246 96c11.333 0 22.501 1.49707 33.501 4.49707s20.667 8.33301 29 16s15.166 17.834 20.499 30.501s8 28.667 8 48v22l-94 -15c-16 -2.66699 -29.333 -8.16699 -40 -16.5s-16 -21.166 -16 -38.499c0 -13.333 4.5 -25.166 13.5 -35.499s24.167 -15.5 45.5 -15.5z
M312.001 -117.003c0 30 7.32715 54.165 21.9941 72.498s31.334 33.166 50.001 44.499h-30c-1.33301 5.33301 -2.5 12.333 -3.5 21s-1.5 20.334 -1.5 35.001c-13.333 -21.333 -31.666 -38.333 -54.999 -51s-51.666 -19 -84.999 -19c-27.333 0 -51.666 4.16699 -72.999 12.5
s-39.333 19.5 -54 33.5s-25.834 30 -33.501 48s-11.5 37 -11.5 57c0 22 3.83301 41.667 11.5 59s18.167 32.166 31.5 44.499s28.833 22.333 46.5 30s36.834 13.167 57.501 16.5l117 18c13.333 2 22.666 6 27.999 12s8 13.333 8 22c0 14.667 -6.16699 27.334 -18.5 38.001
s-30.5 16 -54.5 16c-26.667 0 -47.167 -7.5 -61.5 -22.5s-22.166 -31.833 -23.499 -50.5l-132 27c1.33301 18 6.66602 36.667 15.999 56s22.833 37 40.5 53s39.834 29.333 66.501 40s58.334 16 95.001 16c40 0 74 -5.16699 102 -15.5s50.833 -24.333 68.5 -42
s30.334 -38.167 38.001 -61.5s11.5 -47.666 11.5 -72.999v-243c0 -15.333 0.666992 -30.5 2 -45.5s2.66602 -25.5 3.99902 -31.5c-19.333 -9.33301 -36.833 -22.166 -52.5 -38.499s-23.5 -34.5 -23.5 -54.5c0 -14 4.5 -24.667 13.5 -32s20.167 -11 33.5 -11
c6.66699 0 12.334 0.166992 17.001 0.5s8.66699 0.833008 12 1.5v-84c-14 -5.33301 -31.667 -8 -53 -8c-38 0 -68.5 9.83301 -91.5 29.5s-34.5 46.167 -34.5 79.5z" />
    <glyph glyph-name="Cacute" unicode="&#x106;" horiz-adv-x="765" 
d="M407 -15c-51.333 0 -99.3301 8.83496 -143.997 26.502s-83.5 42.5 -116.5 74.5s-59.167 70.667 -78.5 116s-29 95.666 -29 150.999s9.83301 105.833 29.5 151.5s46.167 84.667 79.5 117s72.166 57.5 116.499 75.5s91.166 27 140.499 27c53.333 0 99.333 -7.66699 138 -23
s71.334 -34.833 98.001 -58.5s47.5 -49.5 62.5 -77.5s25.5 -54.667 31.5 -80l-149 -47c-2.66699 12 -7.83398 25.667 -15.501 41s-18.5 29.833 -32.5 43.5s-31.833 25 -53.5 34s-48.167 13.5 -79.5 13.5c-24 0 -48 -4.33301 -72 -13s-45.667 -21.834 -65 -39.501
s-35 -40.167 -47 -67.5s-18 -59.666 -18 -96.999c0 -33.333 5.66699 -63 17 -89s26.5 -48 45.5 -66s40.667 -31.667 65 -41s49.833 -14 76.5 -14c30.667 0 57 4.5 79 13.5s40.333 20.333 55 34s26.167 28.167 34.5 43.5s14.166 29.333 17.499 42l151 -43
c-6 -24.667 -16.5 -51.334 -31.5 -80.001s-36 -55.5 -63 -80.5s-60.5 -45.833 -100.5 -62.5s-87.333 -25 -142 -25zM463.003 759.002h-135l104 132h181z" />
    <glyph glyph-name="cacute" unicode="&#x107;" horiz-adv-x="567" 
d="M346 556h-121l92 151h170zM301 372c-16 0 -30.8359 -2.66602 -44.5029 -7.99902s-25.667 -13.333 -36 -24s-18.5 -23.667 -24.5 -39s-9 -33 -9 -53s3.16699 -37.5 9.5 -52.5s14.666 -27.833 24.999 -38.5s22.5 -18.667 36.5 -24s29 -8 45 -8
c29.333 0 52.5 7.66699 69.5 23s28.167 32.333 33.5 51l134 -41c-5.33301 -22 -14.5 -43.333 -27.5 -64s-29.5 -39 -49.5 -55s-43.333 -29 -70 -39s-56.667 -15 -90 -15c-37.333 0 -72.166 6.5 -104.499 19.5s-60.5 31.167 -84.5 54.5s-43 51 -57 83s-21 67.333 -21 106
s6.83301 74.167 20.5 106.5s32.334 60.166 56.001 83.499s51.334 41.5 83.001 54.5s65.834 19.5 102.501 19.5c34 0 64.667 -4.83301 92 -14.5s51 -22.5 71 -38.5s36.333 -34.5 49 -55.5s21.667 -42.5 27 -64.5l-136 -41c-2.66699 9.33301 -6.66699 18.5 -12 27.5
s-12 17 -20 24s-17.667 12.5 -29 16.5s-24.333 6 -39 6z" />
    <glyph glyph-name="Ccircumflex" unicode="&#x108;" horiz-adv-x="765" 
d="M211 759l122 132h145l124 -132h-141l-58 65l-57 -65h-135zM407 -15c-51.333 0 -99.3301 8.83496 -143.997 26.502s-83.5 42.5 -116.5 74.5s-59.167 70.667 -78.5 116s-29 95.666 -29 150.999s9.83301 105.833 29.5 151.5s46.167 84.667 79.5 117
s72.166 57.5 116.499 75.5s91.166 27 140.499 27c53.333 0 99.333 -7.66699 138 -23s71.334 -34.833 98.001 -58.5s47.5 -49.5 62.5 -77.5s25.5 -54.667 31.5 -80l-149 -47c-2.66699 12 -7.83398 25.667 -15.501 41s-18.5 29.833 -32.5 43.5s-31.833 25 -53.5 34
s-48.167 13.5 -79.5 13.5c-24 0 -48 -4.33301 -72 -13s-45.667 -21.834 -65 -39.501s-35 -40.167 -47 -67.5s-18 -59.666 -18 -96.999c0 -33.333 5.66699 -63 17 -89s26.5 -48 45.5 -66s40.667 -31.667 65 -41s49.833 -14 76.5 -14c30.667 0 57 4.5 79 13.5
s40.333 20.333 55 34s26.167 28.167 34.5 43.5s14.166 29.333 17.499 42l151 -43c-6 -24.667 -16.5 -51.334 -31.5 -80.001s-36 -55.5 -63 -80.5s-60.5 -45.833 -100.5 -62.5s-87.333 -25 -142 -25z" />
    <glyph glyph-name="ccircumflex" unicode="&#x109;" horiz-adv-x="567" 
d="M114 556l113 151h143l114 -151h-116l-71 71l-70 -71h-113zM301 372c-16 0 -30.8359 -2.66602 -44.5029 -7.99902s-25.667 -13.333 -36 -24s-18.5 -23.667 -24.5 -39s-9 -33 -9 -53s3.16699 -37.5 9.5 -52.5s14.666 -27.833 24.999 -38.5s22.5 -18.667 36.5 -24
s29 -8 45 -8c29.333 0 52.5 7.66699 69.5 23s28.167 32.333 33.5 51l134 -41c-5.33301 -22 -14.5 -43.333 -27.5 -64s-29.5 -39 -49.5 -55s-43.333 -29 -70 -39s-56.667 -15 -90 -15c-37.333 0 -72.166 6.5 -104.499 19.5s-60.5 31.167 -84.5 54.5s-43 51 -57 83
s-21 67.333 -21 106s6.83301 74.167 20.5 106.5s32.334 60.166 56.001 83.499s51.334 41.5 83.001 54.5s65.834 19.5 102.501 19.5c34 0 64.667 -4.83301 92 -14.5s51 -22.5 71 -38.5s36.333 -34.5 49 -55.5s21.667 -42.5 27 -64.5l-136 -41
c-2.66699 9.33301 -6.66699 18.5 -12 27.5s-12 17 -20 24s-17.667 12.5 -29 16.5s-24.333 6 -39 6z" />
    <glyph glyph-name="Cdotaccent" unicode="&#x10a;" horiz-adv-x="765" 
d="M407 -15c-51.333 0 -99.3301 8.83496 -143.997 26.502s-83.5 42.5 -116.5 74.5s-59.167 70.667 -78.5 116s-29 95.666 -29 150.999s9.83301 105.833 29.5 151.5s46.167 84.667 79.5 117s72.166 57.5 116.499 75.5s91.166 27 140.499 27c53.333 0 99.333 -7.66699 138 -23
s71.334 -34.833 98.001 -58.5s47.5 -49.5 62.5 -77.5s25.5 -54.667 31.5 -80l-149 -47c-2.66699 12 -7.83398 25.667 -15.501 41s-18.5 29.833 -32.5 43.5s-31.833 25 -53.5 34s-48.167 13.5 -79.5 13.5c-24 0 -48 -4.33301 -72 -13s-45.667 -21.834 -65 -39.501
s-35 -40.167 -47 -67.5s-18 -59.666 -18 -96.999c0 -33.333 5.66699 -63 17 -89s26.5 -48 45.5 -66s40.667 -31.667 65 -41s49.833 -14 76.5 -14c30.667 0 57 4.5 79 13.5s40.333 20.333 55 34s26.167 28.167 34.5 43.5s14.166 29.333 17.499 42l151 -43
c-6 -24.667 -16.5 -51.334 -31.5 -80.001s-36 -55.5 -63 -80.5s-60.5 -45.833 -100.5 -62.5s-87.333 -25 -142 -25zM316.003 850.002c0 24.667 8.5 45.334 25.5 62.001s38.167 25 63.5 25c24.667 0 45.667 -8.33301 63 -25s26 -37.334 26 -62.001
c0 -25.333 -8.66699 -46.166 -26 -62.499s-38.333 -24.5 -63 -24.5c-25.333 0 -46.5 8.16699 -63.5 24.5s-25.5 37.166 -25.5 62.499z" />
    <glyph glyph-name="cdotaccent" unicode="&#x10b;" horiz-adv-x="567" 
d="M301 372c-16 0 -30.8359 -2.66602 -44.5029 -7.99902s-25.667 -13.333 -36 -24s-18.5 -23.667 -24.5 -39s-9 -33 -9 -53s3.16699 -37.5 9.5 -52.5s14.666 -27.833 24.999 -38.5s22.5 -18.667 36.5 -24s29 -8 45 -8c29.333 0 52.5 7.66699 69.5 23s28.167 32.333 33.5 51
l134 -41c-5.33301 -22 -14.5 -43.333 -27.5 -64s-29.5 -39 -49.5 -55s-43.333 -29 -70 -39s-56.667 -15 -90 -15c-37.333 0 -72.166 6.5 -104.499 19.5s-60.5 31.167 -84.5 54.5s-43 51 -57 83s-21 67.333 -21 106s6.83301 74.167 20.5 106.5s32.334 60.166 56.001 83.499
s51.334 41.5 83.001 54.5s65.834 19.5 102.501 19.5c34 0 64.667 -4.83301 92 -14.5s51 -22.5 71 -38.5s36.333 -34.5 49 -55.5s21.667 -42.5 27 -64.5l-136 -41c-2.66699 9.33301 -6.66699 18.5 -12 27.5s-12 17 -20 24s-17.667 12.5 -29 16.5s-24.333 6 -39 6z
M207.997 635.001c0 24.667 8.5 45.334 25.5 62.001s38.167 25 63.5 25c24.667 0 45.667 -8.33301 63 -25s26 -37.334 26 -62.001s-8.66699 -45.167 -26 -61.5s-38.333 -24.5 -63 -24.5c-25.333 0 -46.5 8.16699 -63.5 24.5s-25.5 36.833 -25.5 61.5z" />
    <glyph glyph-name="Ccaron" unicode="&#x10c;" horiz-adv-x="765" 
d="M352 891l58 -65l58 65h135l-123 -132h-145l-123 132h140zM407 -15c-51.333 0 -99.3301 8.83496 -143.997 26.502s-83.5 42.5 -116.5 74.5s-59.167 70.667 -78.5 116s-29 95.666 -29 150.999s9.83301 105.833 29.5 151.5s46.167 84.667 79.5 117s72.166 57.5 116.499 75.5
s91.166 27 140.499 27c53.333 0 99.333 -7.66699 138 -23s71.334 -34.833 98.001 -58.5s47.5 -49.5 62.5 -77.5s25.5 -54.667 31.5 -80l-149 -47c-2.66699 12 -7.83398 25.667 -15.501 41s-18.5 29.833 -32.5 43.5s-31.833 25 -53.5 34s-48.167 13.5 -79.5 13.5
c-24 0 -48 -4.33301 -72 -13s-45.667 -21.834 -65 -39.501s-35 -40.167 -47 -67.5s-18 -59.666 -18 -96.999c0 -33.333 5.66699 -63 17 -89s26.5 -48 45.5 -66s40.667 -31.667 65 -41s49.833 -14 76.5 -14c30.667 0 57 4.5 79 13.5s40.333 20.333 55 34
s26.167 28.167 34.5 43.5s14.166 29.333 17.499 42l151 -43c-6 -24.667 -16.5 -51.334 -31.5 -80.001s-36 -55.5 -63 -80.5s-60.5 -45.833 -100.5 -62.5s-87.333 -25 -142 -25z" />
    <glyph glyph-name="ccaron" unicode="&#x10d;" horiz-adv-x="567" 
d="M223 707l71 -72l70 72h113l-112 -151h-145l-113 151h116zM301 372c-16 0 -30.8359 -2.66602 -44.5029 -7.99902s-25.667 -13.333 -36 -24s-18.5 -23.667 -24.5 -39s-9 -33 -9 -53s3.16699 -37.5 9.5 -52.5s14.666 -27.833 24.999 -38.5s22.5 -18.667 36.5 -24
s29 -8 45 -8c29.333 0 52.5 7.66699 69.5 23s28.167 32.333 33.5 51l134 -41c-5.33301 -22 -14.5 -43.333 -27.5 -64s-29.5 -39 -49.5 -55s-43.333 -29 -70 -39s-56.667 -15 -90 -15c-37.333 0 -72.166 6.5 -104.499 19.5s-60.5 31.167 -84.5 54.5s-43 51 -57 83
s-21 67.333 -21 106s6.83301 74.167 20.5 106.5s32.334 60.166 56.001 83.499s51.334 41.5 83.001 54.5s65.834 19.5 102.501 19.5c34 0 64.667 -4.83301 92 -14.5s51 -22.5 71 -38.5s36.333 -34.5 49 -55.5s21.667 -42.5 27 -64.5l-136 -41
c-2.66699 9.33301 -6.66699 18.5 -12 27.5s-12 17 -20 24s-17.667 12.5 -29 16.5s-24.333 6 -39 6z" />
    <glyph glyph-name="Dcaron" unicode="&#x10e;" horiz-adv-x="734" 
d="M303 891l58 -65l58 65h135l-123 -132h-145l-123 132h140zM330 149c27.333 0 53 4 77 12s45 20.333 63 37s32.167 38 42.5 64s15.5 56.667 15.5 92s-5.16699 66 -15.5 92s-24.5 47.5 -42.5 64.5s-39 29.5 -63 37.5s-49.667 12 -77 12h-92v-411h92zM80 0v709.002h257
c53.333 0 101.833 -8.16699 145.5 -24.5s81.167 -39.833 112.5 -70.5s55.5 -68 72.5 -112s25.5 -93.333 25.5 -148s-8.5 -103.834 -25.5 -147.501s-41.167 -80.834 -72.5 -111.501s-69 -54.167 -113 -70.5s-92.667 -24.5 -146 -24.5h-256z" />
    <glyph glyph-name="dcaron" unicode="&#x10f;" horiz-adv-x="627" 
d="M700 517h-99l29 207h145zM562 89c0 -22.667 0.503906 -41.833 1.50391 -57.5s1.83301 -26.167 2.5 -31.5h-146c-0.666992 3.33301 -1.5 9.66602 -2.5 18.999s-1.5 19 -1.5 29c-11.333 -17.333 -28.833 -31.5 -52.5 -42.5s-50.5 -16.5 -80.5 -16.5
c-35.333 0 -68 6.5 -98 19.5s-56 31 -78 54s-39.167 50.5 -51.5 82.5s-18.5 67 -18.5 105c0 36.667 6 70.834 18 102.501s28.667 59.167 50 82.5s46.666 41.5 75.999 54.5s61.666 19.5 96.999 19.5c21.333 0 39.666 -1.83301 54.999 -5.5s28.333 -8 39 -13
s19.167 -10.5 25.5 -16.5s11.166 -11.333 14.499 -16v266h150v-635zM190.004 249.001c0 -20.667 3 -38.667 9 -54s14.167 -28.166 24.5 -38.499s22.333 -18.166 36 -23.499s27.834 -8 42.501 -8s28.834 2.66699 42.501 8s25.667 13.166 36 23.499s18.5 23.166 24.5 38.499
s9 33.333 9 54s-3 38.667 -9 54s-14.167 28.166 -24.5 38.499s-22.333 18 -36 23s-27.834 7.5 -42.501 7.5s-28.834 -2.5 -42.501 -7.5s-25.667 -12.667 -36 -23s-18.5 -23.166 -24.5 -38.499s-9 -33.333 -9 -54z" />
    <glyph glyph-name="Dcroat" unicode="&#x110;" horiz-adv-x="762" 
d="M108 0v310.002h-94v111h94v288h257c53.333 0 101.833 -8.16699 145.5 -24.5s81.167 -39.833 112.5 -70.5s55.5 -68 72.5 -112s25.5 -93.333 25.5 -148s-8.5 -103.834 -25.5 -147.501s-41.167 -80.834 -72.5 -111.501s-69 -54.167 -113 -70.5s-92.667 -24.5 -146 -24.5
h-256zM358 149.002c27.333 0 53 4 77 12s45 20.333 63 37s32.167 38 42.5 64s15.5 56.667 15.5 92s-5.16699 66 -15.5 92s-24.5 47.5 -42.5 64.5s-39 29.5 -63 37.5s-49.667 12 -77 12h-92v-139h144v-111h-144v-161h92z" />
    <glyph glyph-name="dcroat" unicode="&#x111;" horiz-adv-x="627" 
d="M562 654l69.0039 -0.00292969v-105h-69v-460c0 -21.333 0.5 -40.166 1.5 -56.499s1.83301 -27.166 2.5 -32.499h-146c-0.666992 3.33301 -1.5 10.333 -2.5 21s-1.5 19.667 -1.5 27c-11.333 -17.333 -28.833 -31.5 -52.5 -42.5s-50.5 -16.5 -80.5 -16.5
c-35.333 0 -68 6.5 -98 19.5s-56 31 -78 54s-39.167 50.5 -51.5 82.5s-18.5 67 -18.5 105c0 36.667 6 70.834 18 102.501s28.667 59.167 50 82.5s46.666 41.5 75.999 54.5s61.666 19.5 96.999 19.5c21.333 0 39.666 -1.83301 54.999 -5.5s28.333 -8 39 -13
s19.167 -10.5 25.5 -16.5s11.166 -11.333 14.499 -16v91h-108v105h108v70h150v-70zM190.004 248.997c0 -20.667 3 -38.667 9 -54s14.167 -28.166 24.5 -38.499s22.333 -18.166 36 -23.499s27.834 -8 42.501 -8s28.834 2.66699 42.501 8s25.667 13.166 36 23.499
s18.5 23.166 24.5 38.499s9 33.333 9 54s-3 38.667 -9 54s-14.167 28.166 -24.5 38.499s-22.333 18 -36 23s-27.834 7.5 -42.501 7.5s-28.834 -2.5 -42.501 -7.5s-25.667 -12.667 -36 -23s-18.5 -23.166 -24.5 -38.499s-9 -33.333 -9 -54z" />
    <glyph glyph-name="Emacron" unicode="&#x112;" horiz-adv-x="581" 
d="M80 0v709h449v-149h-291v-135h264v-139h-264v-136h292v-150h-450zM149 771v109h311v-109h-311z" />
    <glyph glyph-name="emacron" unicode="&#x113;" horiz-adv-x="570" 
d="M386 308c-0.666992 9.33301 -2.83398 19 -6.50098 29s-9.5 19 -17.5 27s-18.167 14.667 -30.5 20s-27.5 8 -45.5 8c-16 0 -30 -2.66699 -42 -8s-22.167 -12 -30.5 -20s-14.666 -17 -18.999 -27s-6.83301 -19.667 -7.5 -29h199zM524 143
c-6 -21.333 -15.3291 -41.666 -27.9961 -60.999s-28.667 -36.166 -48 -50.499s-41.833 -25.666 -67.5 -33.999s-54.167 -12.5 -85.5 -12.5c-34 0 -66.667 6 -98 18s-59 29.333 -83 52s-43 50.334 -57 83.001s-21 70 -21 112c0 40 6.83301 76.167 20.5 108.5
s32 59.833 55 82.5s49.5 40.167 79.5 52.5s61 18.5 93 18.5c77.333 0 138.166 -22.333 182.499 -67s66.5 -107.334 66.5 -188.001c0 -10.667 -0.333008 -20.834 -1 -30.501s-1.33398 -15.167 -2.00098 -16.5h-346c0.666992 -14 4.16699 -26.833 10.5 -38.5
s14.666 -21.834 24.999 -30.501s22.166 -15.334 35.499 -20.001s27.333 -7 42 -7c28 0 49.833 6 65.5 18s27.167 27.667 34.5 47zM144.004 577v105h286v-105h-286z" />
    <glyph glyph-name="Ebreve" unicode="&#x114;" horiz-adv-x="581" 
d="M80 0v709h449v-149h-291v-135h264v-139h-264v-136h292v-150h-450zM300 753c-28 0 -52.3291 4 -72.9961 12s-37.834 18.5 -51.501 31.5s-24 27.833 -31 44.5s-10.833 33.334 -11.5 50.001h113c0.666992 -14.667 5.5 -26.667 14.5 -36s22.167 -14 39.5 -14
s30.666 4.66699 39.999 14s14.333 21.333 15 36h112c-0.666992 -16.667 -4.33398 -33.334 -11.001 -50.001s-16.834 -31.5 -30.501 -44.5s-31 -23.5 -52 -31.5s-45.5 -12 -73.5 -12z" />
    <glyph glyph-name="ebreve" unicode="&#x115;" horiz-adv-x="570" 
d="M386 308c-0.666992 9.33301 -2.83398 19 -6.50098 29s-9.5 19 -17.5 27s-18.167 14.667 -30.5 20s-27.5 8 -45.5 8c-16 0 -30 -2.66699 -42 -8s-22.167 -12 -30.5 -20s-14.666 -17 -18.999 -27s-6.83301 -19.667 -7.5 -29h199zM524 143
c-6 -21.333 -15.3291 -41.666 -27.9961 -60.999s-28.667 -36.166 -48 -50.499s-41.833 -25.666 -67.5 -33.999s-54.167 -12.5 -85.5 -12.5c-34 0 -66.667 6 -98 18s-59 29.333 -83 52s-43 50.334 -57 83.001s-21 70 -21 112c0 40 6.83301 76.167 20.5 108.5
s32 59.833 55 82.5s49.5 40.167 79.5 52.5s61 18.5 93 18.5c77.333 0 138.166 -22.333 182.499 -67s66.5 -107.334 66.5 -188.001c0 -10.667 -0.333008 -20.834 -1 -30.501s-1.33398 -15.167 -2.00098 -16.5h-346c0.666992 -14 4.16699 -26.833 10.5 -38.5
s14.666 -21.834 24.999 -30.501s22.166 -15.334 35.499 -20.001s27.333 -7 42 -7c28 0 49.833 6 65.5 18s27.167 27.667 34.5 47zM286.004 551c-27.333 0 -51.5 4.33301 -72.5 13s-38.5 20.167 -52.5 34.5s-24.5 30.833 -31.5 49.5s-10.833 38.334 -11.5 59.001h96
c1.33301 -13.333 7.33301 -26 18 -38s28.667 -18 54 -18s43.333 6 54 18s16.667 24.667 18 38h97c-0.666992 -20.667 -4.66699 -40.334 -12 -59.001s-18 -35.167 -32 -49.5s-31.333 -25.833 -52 -34.5s-45 -13 -73 -13z" />
    <glyph glyph-name="Edotaccent" unicode="&#x116;" horiz-adv-x="581" 
d="M214 841c0 24.667 8.5 45.334 25.5 62.001s38.167 25 63.5 25c24.667 0 45.667 -8.33301 63 -25s26 -37.334 26 -62.001c0 -25.333 -8.66699 -46.166 -26 -62.499s-38.333 -24.5 -63 -24.5c-25.333 0 -46.5 8.16699 -63.5 24.5s-25.5 37.166 -25.5 62.499zM80 0v709h449
v-149h-291v-135h264v-139h-264v-136h292v-150h-450z" />
    <glyph glyph-name="edotaccent" unicode="&#x117;" horiz-adv-x="570" 
d="M386 308c-0.666992 9.33301 -2.83398 19 -6.50098 29s-9.5 19 -17.5 27s-18.167 14.667 -30.5 20s-27.5 8 -45.5 8c-16 0 -30 -2.66699 -42 -8s-22.167 -12 -30.5 -20s-14.666 -17 -18.999 -27s-6.83301 -19.667 -7.5 -29h199zM524 143
c-6 -21.333 -15.3291 -41.666 -27.9961 -60.999s-28.667 -36.166 -48 -50.499s-41.833 -25.666 -67.5 -33.999s-54.167 -12.5 -85.5 -12.5c-34 0 -66.667 6 -98 18s-59 29.333 -83 52s-43 50.334 -57 83.001s-21 70 -21 112c0 40 6.83301 76.167 20.5 108.5
s32 59.833 55 82.5s49.5 40.167 79.5 52.5s61 18.5 93 18.5c77.333 0 138.166 -22.333 182.499 -67s66.5 -107.334 66.5 -188.001c0 -10.667 -0.333008 -20.834 -1 -30.501s-1.33398 -15.167 -2.00098 -16.5h-346c0.666992 -14 4.16699 -26.833 10.5 -38.5
s14.666 -21.834 24.999 -30.501s22.166 -15.334 35.499 -20.001s27.333 -7 42 -7c28 0 49.833 6 65.5 18s27.167 27.667 34.5 47zM200.004 633c0 24.667 8.5 45.334 25.5 62.001s38.167 25 63.5 25c24.667 0 45.667 -8.33301 63 -25s26 -37.334 26 -62.001
s-8.66699 -45.167 -26 -61.5s-38.333 -24.5 -63 -24.5c-25.333 0 -46.5 8.16699 -63.5 24.5s-25.5 36.833 -25.5 61.5z" />
    <glyph glyph-name="Eogonek" unicode="&#x118;" horiz-adv-x="581" 
d="M351 -117c0 30 7.33105 54.167 21.998 72.5s31.334 33.166 50.001 44.499h-343v709h449v-149h-291v-135h264v-139h-264v-136h292v-150c-19.333 -9.33301 -36.833 -22.166 -52.5 -38.499s-23.5 -34.5 -23.5 -54.5c0 -14 4.5 -24.667 13.5 -32s20.167 -11 33.5 -11
c6.66699 0 12.334 0.166992 17.001 0.5s8.66699 0.833008 12 1.5v-84c-14 -5.33301 -31.667 -8 -53 -8c-38 0 -68.5 9.83301 -91.5 29.5s-34.5 46.167 -34.5 79.5z" />
    <glyph glyph-name="eogonek" unicode="&#x119;" horiz-adv-x="570" 
d="M524 143c-9.33301 -32 -25.3291 -60.4971 -47.9961 -85.4971s-52 -44.167 -88 -57.5c-9.33301 -3.33301 -18.666 -8 -27.999 -14s-17.5 -12.833 -24.5 -20.5s-12.667 -16 -17 -25s-6.5 -18.5 -6.5 -28.5c0 -15.333 4.33301 -27.166 13 -35.499s20 -12.5 34 -12.5h11.5
c4.33301 0 10.166 0.666992 17.499 2v-84c-14 -5.33301 -31.667 -8 -53 -8c-38 0 -68.5 9.83301 -91.5 29.5s-34.5 46.167 -34.5 79.5c0 24.667 5.16699 45.5 15.5 62.5s22.833 30.833 37.5 41.5c-30.667 3.33301 -59.667 11.833 -87 25.5s-51.333 31.667 -72 54
s-37 49 -49 80s-18 65.5 -18 103.5c0 40 6.83301 76.167 20.5 108.5s32 59.833 55 82.5s49.5 40.167 79.5 52.5s61 18.5 93 18.5c77.333 0 138.166 -22.333 182.499 -67s66.5 -107.334 66.5 -188.001c0 -10.667 -0.333008 -20.834 -1 -30.501
s-1.33398 -15.167 -2.00098 -16.5h-346c0.666992 -14 4.16699 -26.833 10.5 -38.5s14.666 -21.834 24.999 -30.501s22.166 -15.334 35.499 -20.001s27.333 -7 42 -7c28 0 49.833 6 65.5 18s27.167 27.667 34.5 47zM386.004 308.003
c-0.666992 9.33301 -2.83398 19 -6.50098 29s-9.5 19 -17.5 27s-18.167 14.667 -30.5 20s-27.5 8 -45.5 8c-16 0 -30 -2.66699 -42 -8s-22.167 -12 -30.5 -20s-14.666 -17 -18.999 -27s-6.83301 -19.667 -7.5 -29h199z" />
    <glyph glyph-name="Ecaron" unicode="&#x11a;" horiz-adv-x="581" 
d="M248 891l58 -65l58 65h135l-123 -132h-145l-123 132h140zM80 0v709h449v-149h-291v-135h264v-139h-264v-136h292v-150h-450z" />
    <glyph glyph-name="ecaron" unicode="&#x11b;" horiz-adv-x="570" 
d="M216 707l71 -72l70 72h113l-112 -151h-145l-113 151h116zM386 308c-0.666992 9.33301 -2.83398 19 -6.50098 29s-9.5 19 -17.5 27s-18.167 14.667 -30.5 20s-27.5 8 -45.5 8c-16 0 -30 -2.66699 -42 -8s-22.167 -12 -30.5 -20s-14.666 -17 -18.999 -27
s-6.83301 -19.667 -7.5 -29h199zM524 143c-6 -21.333 -15.3291 -41.666 -27.9961 -60.999s-28.667 -36.166 -48 -50.499s-41.833 -25.666 -67.5 -33.999s-54.167 -12.5 -85.5 -12.5c-34 0 -66.667 6 -98 18s-59 29.333 -83 52s-43 50.334 -57 83.001s-21 70 -21 112
c0 40 6.83301 76.167 20.5 108.5s32 59.833 55 82.5s49.5 40.167 79.5 52.5s61 18.5 93 18.5c77.333 0 138.166 -22.333 182.499 -67s66.5 -107.334 66.5 -188.001c0 -10.667 -0.333008 -20.834 -1 -30.501s-1.33398 -15.167 -2.00098 -16.5h-346
c0.666992 -14 4.16699 -26.833 10.5 -38.5s14.666 -21.834 24.999 -30.501s22.166 -15.334 35.499 -20.001s27.333 -7 42 -7c28 0 49.833 6 65.5 18s27.167 27.667 34.5 47z" />
    <glyph glyph-name="Gcircumflex" unicode="&#x11c;" horiz-adv-x="789" 
d="M210 759l122 132h145l124 -132h-141l-58 65l-57 -65h-135zM607 0l-10.0049 72.0049c-15.333 -22.667 -39.666 -42.834 -72.999 -60.501s-75.333 -26.5 -126 -26.5c-49.333 0 -95.833 8.66699 -139.5 26s-81.667 42.166 -114 74.499s-58 71.166 -77 116.499
s-28.5 96 -28.5 152s9.83301 106.667 29.5 152s46.334 84.166 80.001 116.499s72.834 57.333 117.501 75s92 26.5 142 26.5c50.667 0 94.834 -6.83301 132.501 -20.5s69.667 -31 96 -52s47.5 -44.5 63.5 -70.5s28 -51.333 36 -76l-152 -53
c-2.66699 10.667 -7.83398 23.167 -15.501 37.5s-18.5 28 -32.5 41s-31.5 23.833 -52.5 32.5s-46.167 13 -75.5 13c-24 0 -48.333 -4.16699 -73 -12.5s-47.167 -21.5 -67.5 -39.5s-36.833 -41 -49.5 -69s-19 -61.667 -19 -101c0 -37.333 5.66699 -70 17 -98
s26.833 -51.333 46.5 -70s42.334 -32.834 68.001 -42.501s52.834 -14.5 81.501 -14.5c29.333 0 54.5 4.16699 75.5 12.5s38.5 18.5 52.5 30.5s24.833 24.667 32.5 38s12.5 25 14.5 35h-213v134h361v-379h-128z" />
    <glyph glyph-name="gcircumflex" unicode="&#x11d;" horiz-adv-x="614" 
d="M118 556l113 151h143l114 -151h-116l-71 71l-70 -71h-113zM170 10c5.33301 -24 17.3369 -43.832 36.0039 -59.499s42.334 -23.5 71.001 -23.5c38 0 68 9.83301 90 29.5s33 52.167 33 97.5v23c-9.33301 -13.333 -24.833 -26 -46.5 -38s-50.5 -18 -86.5 -18
c-33.333 0 -64 6.16699 -92 18.5s-52.333 29.333 -73 51s-36.834 47.167 -48.501 76.5s-17.5 61.333 -17.5 96c0 32.667 5.66699 63.667 17 93s27.166 55.166 47.499 77.499s44.666 40 72.999 53s59.5 19.5 93.5 19.5c20 0 37.833 -2 53.5 -6s29.167 -9 40.5 -15
s20.666 -12.667 27.999 -20s12.666 -14.333 15.999 -21v53h145v-435c0 -36 -5.16699 -70 -15.5 -102s-26.333 -60.333 -48 -85s-49.167 -44.167 -82.5 -58.5s-73.333 -21.5 -120 -21.5c-36 0 -68.5 5 -97.5 15s-54 23.333 -75 40s-38 35.667 -51 57s-21.167 43 -24.5 65z
M295.004 153.001c31.333 0 56.834 9.83301 76.501 29.5s29.5 46.5 29.5 80.5c0 16.667 -2.83301 31.834 -8.5 45.501s-13.334 25.334 -23.001 35.001s-21 17 -34 22s-26.5 7.5 -40.5 7.5s-27.5 -2.5 -40.5 -7.5s-24.5 -12.333 -34.5 -22s-17.833 -21.334 -23.5 -35.001
s-8.5 -28.834 -8.5 -45.501c0 -34 10.167 -60.833 30.5 -80.5s45.833 -29.5 76.5 -29.5z" />
    <glyph glyph-name="Gbreve" unicode="&#x11e;" horiz-adv-x="789" 
d="M405 753c-28 0 -52.3291 4 -72.9961 12s-37.834 18.5 -51.501 31.5s-24 27.833 -31 44.5s-10.833 33.334 -11.5 50.001h113c0.666992 -14.667 5.5 -26.667 14.5 -36s22.167 -14 39.5 -14s30.666 4.66699 39.999 14s14.333 21.333 15 36h112
c-0.666992 -16.667 -4.33398 -33.334 -11.001 -50.001s-16.834 -31.5 -30.501 -44.5s-31 -23.5 -52 -31.5s-45.5 -12 -73.5 -12zM607.004 0l-10.0049 72.0049c-15.333 -22.667 -39.666 -42.834 -72.999 -60.501s-75.333 -26.5 -126 -26.5
c-49.333 0 -95.833 8.66699 -139.5 26s-81.667 42.166 -114 74.499s-58 71.166 -77 116.499s-28.5 96 -28.5 152s9.83301 106.667 29.5 152s46.334 84.166 80.001 116.499s72.834 57.333 117.501 75s92 26.5 142 26.5c50.667 0 94.834 -6.83301 132.501 -20.5
s69.667 -31 96 -52s47.5 -44.5 63.5 -70.5s28 -51.333 36 -76l-152 -53c-2.66699 10.667 -7.83398 23.167 -15.501 37.5s-18.5 28 -32.5 41s-31.5 23.833 -52.5 32.5s-46.167 13 -75.5 13c-24 0 -48.333 -4.16699 -73 -12.5s-47.167 -21.5 -67.5 -39.5
s-36.833 -41 -49.5 -69s-19 -61.667 -19 -101c0 -37.333 5.66699 -70 17 -98s26.833 -51.333 46.5 -70s42.334 -32.834 68.001 -42.501s52.834 -14.5 81.501 -14.5c29.333 0 54.5 4.16699 75.5 12.5s38.5 18.5 52.5 30.5s24.833 24.667 32.5 38s12.5 25 14.5 35h-213v134
h361v-379h-128z" />
    <glyph glyph-name="gbreve" unicode="&#x11f;" horiz-adv-x="614" 
d="M170 10c5.33301 -24 17.3369 -43.832 36.0039 -59.499s42.334 -23.5 71.001 -23.5c38 0 68 9.83301 90 29.5s33 52.167 33 97.5v23c-9.33301 -13.333 -24.833 -26 -46.5 -38s-50.5 -18 -86.5 -18c-33.333 0 -64 6.16699 -92 18.5s-52.333 29.333 -73 51
s-36.834 47.167 -48.501 76.5s-17.5 61.333 -17.5 96c0 32.667 5.66699 63.667 17 93s27.166 55.166 47.499 77.499s44.666 40 72.999 53s59.5 19.5 93.5 19.5c20 0 37.833 -2 53.5 -6s29.167 -9 40.5 -15s20.666 -12.667 27.999 -20s12.666 -14.333 15.999 -21v53h145v-435
c0 -36 -5.16699 -70 -15.5 -102s-26.333 -60.333 -48 -85s-49.167 -44.167 -82.5 -58.5s-73.333 -21.5 -120 -21.5c-36 0 -68.5 5 -97.5 15s-54 23.333 -75 40s-38 35.667 -51 57s-21.167 43 -24.5 65zM295.004 153.001c31.333 0 56.834 9.83301 76.501 29.5
s29.5 46.5 29.5 80.5c0 16.667 -2.83301 31.834 -8.5 45.501s-13.334 25.334 -23.001 35.001s-21 17 -34 22s-26.5 7.5 -40.5 7.5s-27.5 -2.5 -40.5 -7.5s-24.5 -12.333 -34.5 -22s-17.833 -21.334 -23.5 -35.001s-8.5 -28.834 -8.5 -45.501
c0 -34 10.167 -60.833 30.5 -80.5s45.833 -29.5 76.5 -29.5zM295.005 551.001c-27.333 0 -51.5 4.33301 -72.5 13s-38.5 20.167 -52.5 34.5s-24.5 30.833 -31.5 49.5s-10.833 38.334 -11.5 59.001h96c1.33301 -13.333 7.33301 -26 18 -38s28.667 -18 54 -18s43.333 6 54 18
s16.667 24.667 18 38h97c-0.666992 -20.667 -4.66699 -40.334 -12 -59.001s-18 -35.167 -32 -49.5s-31.333 -25.833 -52 -34.5s-45 -13 -73 -13z" />
    <glyph glyph-name="Gdotaccent" unicode="&#x120;" horiz-adv-x="789" 
d="M317 846c0 24.667 8.5 45.334 25.5 62.001s38.167 25 63.5 25c24.667 0 45.667 -8.33301 63 -25s26 -37.334 26 -62.001c0 -25.333 -8.66699 -46.166 -26 -62.499s-38.333 -24.5 -63 -24.5c-25.333 0 -46.5 8.16699 -63.5 24.5s-25.5 37.166 -25.5 62.499zM607 0
l-10.0049 72.0049c-15.333 -22.667 -39.666 -42.834 -72.999 -60.501s-75.333 -26.5 -126 -26.5c-49.333 0 -95.833 8.66699 -139.5 26s-81.667 42.166 -114 74.499s-58 71.166 -77 116.499s-28.5 96 -28.5 152s9.83301 106.667 29.5 152s46.334 84.166 80.001 116.499
s72.834 57.333 117.501 75s92 26.5 142 26.5c50.667 0 94.834 -6.83301 132.501 -20.5s69.667 -31 96 -52s47.5 -44.5 63.5 -70.5s28 -51.333 36 -76l-152 -53c-2.66699 10.667 -7.83398 23.167 -15.501 37.5s-18.5 28 -32.5 41s-31.5 23.833 -52.5 32.5
s-46.167 13 -75.5 13c-24 0 -48.333 -4.16699 -73 -12.5s-47.167 -21.5 -67.5 -39.5s-36.833 -41 -49.5 -69s-19 -61.667 -19 -101c0 -37.333 5.66699 -70 17 -98s26.833 -51.333 46.5 -70s42.334 -32.834 68.001 -42.501s52.834 -14.5 81.501 -14.5
c29.333 0 54.5 4.16699 75.5 12.5s38.5 18.5 52.5 30.5s24.833 24.667 32.5 38s12.5 25 14.5 35h-213v134h361v-379h-128z" />
    <glyph glyph-name="gdotaccent" unicode="&#x121;" horiz-adv-x="614" 
d="M170 10c5.33301 -24 17.3369 -43.832 36.0039 -59.499s42.334 -23.5 71.001 -23.5c38 0 68 9.83301 90 29.5s33 52.167 33 97.5v23c-9.33301 -13.333 -24.833 -26 -46.5 -38s-50.5 -18 -86.5 -18c-33.333 0 -64 6.16699 -92 18.5s-52.333 29.333 -73 51
s-36.834 47.167 -48.501 76.5s-17.5 61.333 -17.5 96c0 32.667 5.66699 63.667 17 93s27.166 55.166 47.499 77.499s44.666 40 72.999 53s59.5 19.5 93.5 19.5c20 0 37.833 -2 53.5 -6s29.167 -9 40.5 -15s20.666 -12.667 27.999 -20s12.666 -14.333 15.999 -21v53h145v-435
c0 -36 -5.16699 -70 -15.5 -102s-26.333 -60.333 -48 -85s-49.167 -44.167 -82.5 -58.5s-73.333 -21.5 -120 -21.5c-36 0 -68.5 5 -97.5 15s-54 23.333 -75 40s-38 35.667 -51 57s-21.167 43 -24.5 65zM295.004 153.001c31.333 0 56.834 9.83301 76.501 29.5
s29.5 46.5 29.5 80.5c0 16.667 -2.83301 31.834 -8.5 45.501s-13.334 25.334 -23.001 35.001s-21 17 -34 22s-26.5 7.5 -40.5 7.5s-27.5 -2.5 -40.5 -7.5s-24.5 -12.333 -34.5 -22s-17.833 -21.334 -23.5 -35.001s-8.5 -28.834 -8.5 -45.501
c0 -34 10.167 -60.833 30.5 -80.5s45.833 -29.5 76.5 -29.5zM200.005 633.001c0 24.667 8.5 45.334 25.5 62.001s38.167 25 63.5 25c24.667 0 45.667 -8.33301 63 -25s26 -37.334 26 -62.001s-8.66699 -45.167 -26 -61.5s-38.333 -24.5 -63 -24.5
c-25.333 0 -46.5 8.16699 -63.5 24.5s-25.5 36.833 -25.5 61.5z" />
    <glyph glyph-name="Gcommaaccent" unicode="&#x122;" horiz-adv-x="789" 
d="M329 -113c0 19.333 7.33203 35.665 21.999 48.998s33.667 20 57 20c26.667 0 48.334 -9 65.001 -27s25 -39.667 25 -65c0 -26.667 -4.66699 -48.667 -14 -66s-21 -31.166 -35 -41.499s-29.5 -17.666 -46.5 -21.999s-32.833 -6.5 -47.5 -6.5h-4.5
c-1.66699 0 -4.16699 0.333008 -7.5 1v52c28 0 49.333 4.16699 64 12.5s22.667 19.5 24 33.5c-2 -1.33301 -5.5 -2.83301 -10.5 -4.5s-11.833 -2.5 -20.5 -2.5c-23.333 0 -41 6.5 -53 19.5s-18 28.833 -18 47.5zM606.999 -0.000976562l-10.0049 72.0049
c-15.333 -22.667 -39.666 -42.834 -72.999 -60.501s-75.333 -26.5 -126 -26.5c-49.333 0 -95.833 8.66699 -139.5 26s-81.667 42.166 -114 74.499s-58 71.166 -77 116.499s-28.5 96 -28.5 152s9.83301 106.667 29.5 152s46.334 84.166 80.001 116.499
s72.834 57.333 117.501 75s92 26.5 142 26.5c50.667 0 94.834 -6.83301 132.501 -20.5s69.667 -31 96 -52s47.5 -44.5 63.5 -70.5s28 -51.333 36 -76l-152 -53c-2.66699 10.667 -7.83398 23.167 -15.501 37.5s-18.5 28 -32.5 41s-31.5 23.833 -52.5 32.5
s-46.167 13 -75.5 13c-24 0 -48.333 -4.16699 -73 -12.5s-47.167 -21.5 -67.5 -39.5s-36.833 -41 -49.5 -69s-19 -61.667 -19 -101c0 -37.333 5.66699 -70 17 -98s26.833 -51.333 46.5 -70s42.334 -32.834 68.001 -42.501s52.834 -14.5 81.501 -14.5
c29.333 0 54.5 4.16699 75.5 12.5s38.5 18.5 52.5 30.5s24.833 24.667 32.5 38s12.5 25 14.5 35h-213v134h361v-379h-128z" />
    <glyph glyph-name="gcommaaccent" unicode="&#x123;" horiz-adv-x="614" 
d="M371 614c0 -19.333 -7.33301 -35.665 -22 -48.998s-33.667 -20 -57 -20c-26.667 0 -48.334 9 -65.001 27s-25 39.667 -25 65c0 24.667 4.83301 45.667 14.5 63s21.834 31.166 36.501 41.499s30.667 17.833 48 22.5s33.333 7 48 7h8v-51c-28 0 -49.333 -4.83301 -64 -14.5
s-22.667 -19.834 -24 -30.501c2 1.33301 5.5 2.83301 10.5 4.5s11.833 2.5 20.5 2.5c23.333 0 41 -6.66699 53 -20s18 -29.333 18 -48zM170 10.001c5.33301 -24 17.3369 -43.832 36.0039 -59.499s42.334 -23.5 71.001 -23.5c38 0 68 9.83301 90 29.5s33 52.167 33 97.5v23
c-9.33301 -13.333 -24.833 -26 -46.5 -38s-50.5 -18 -86.5 -18c-33.333 0 -64 6.16699 -92 18.5s-52.333 29.333 -73 51s-36.834 47.167 -48.501 76.5s-17.5 61.333 -17.5 96c0 32.667 5.66699 63.667 17 93s27.166 55.166 47.499 77.499s44.666 40 72.999 53
s59.5 19.5 93.5 19.5c20 0 37.833 -2 53.5 -6s29.167 -9 40.5 -15s20.666 -12.667 27.999 -20s12.666 -14.333 15.999 -21v53h145v-435c0 -36 -5.16699 -70 -15.5 -102s-26.333 -60.333 -48 -85s-49.167 -44.167 -82.5 -58.5s-73.333 -21.5 -120 -21.5
c-36 0 -68.5 5 -97.5 15s-54 23.333 -75 40s-38 35.667 -51 57s-21.167 43 -24.5 65zM295.004 153.002c31.333 0 56.834 9.83301 76.501 29.5s29.5 46.5 29.5 80.5c0 16.667 -2.83301 31.834 -8.5 45.501s-13.334 25.334 -23.001 35.001s-21 17 -34 22s-26.5 7.5 -40.5 7.5
s-27.5 -2.5 -40.5 -7.5s-24.5 -12.333 -34.5 -22s-17.833 -21.334 -23.5 -35.001s-8.5 -28.834 -8.5 -45.501c0 -34 10.167 -60.833 30.5 -80.5s45.833 -29.5 76.5 -29.5z" />
    <glyph glyph-name="Hcircumflex" unicode="&#x124;" horiz-adv-x="760" 
d="M521 0v282h-283v-282h-158v709h158v-278h283v278h159v-709h-159zM184 759l122 132h145l124 -132h-141l-58 65l-57 -65h-135z" />
    <glyph glyph-name="hcircumflex" unicode="&#x125;" horiz-adv-x="590" 
d="M107 769l122 132h145l124 -132h-141l-58 65l-57 -65h-135zM216 0l-152 0.000976562v724h152v-259c15.333 15.333 34.833 26.666 58.5 33.999s46.5 11 68.5 11c32.667 0 60.834 -5.16699 84.501 -15.5s43.167 -24.5 58.5 -42.5s26.666 -39 33.999 -63s11 -49.667 11 -77
v-312h-152v286c0 24.667 -6.5 45.167 -19.5 61.5s-33.5 24.5 -61.5 24.5c-24 0 -43.333 -7.5 -58 -22.5s-22.667 -34.167 -24 -57.5v-292z" />
    <glyph glyph-name="Hbar" unicode="&#x126;" horiz-adv-x="769" 
d="M525 0v282h-283v-282h-158v518h-69v93h69v98h158v-98h283v98h159v-98h70v-93h-70v-518h-159zM525 429v89h-283v-89h283z" />
    <glyph glyph-name="hbar" unicode="&#x127;" horiz-adv-x="590" 
d="M216 0l-152 0.000976562v549h-77v105h77v70h152v-70h107v-105h-107v-84c15.333 15.333 34.833 26.666 58.5 33.999s46.5 11 68.5 11c32.667 0 60.834 -5.16699 84.501 -15.5s43.167 -24.5 58.5 -42.5s26.666 -39 33.999 -63s11 -49.667 11 -77v-312h-152v286
c0 24.667 -6.5 45.167 -19.5 61.5s-33.5 24.5 -61.5 24.5c-24 0 -43.333 -7.5 -58 -22.5s-22.667 -34.167 -24 -57.5v-292z" />
    <glyph glyph-name="Itilde" unicode="&#x128;" horiz-adv-x="320" 
d="M80 0v709h160v-709h-160zM337 861c0 -18 -2.83203 -33.999 -8.49902 -47.999s-13.334 -25.5 -23.001 -34.5s-20.667 -15.833 -33 -20.5s-25.5 -7 -39.5 -7c-15.333 0 -29.5 2.5 -42.5 7.5s-25.167 10.833 -36.5 17.5l-5 3l-25 14c-7.33301 4 -14.666 6 -21.999 6
c-6.66699 0 -12.667 -2.33301 -18 -7s-8 -12 -8 -22v-13h-87v33c0 18 2.83301 33.833 8.5 47.5s13.167 25 22.5 34s20.333 15.667 33 20s25.667 6.5 39 6.5c16 0 30.333 -2.33301 43 -7s24.667 -10.334 36 -17.001l28 -15c8.66699 -4.66699 16.667 -7 24 -7
s13.666 2.33301 18.999 7s8 12 8 22v14h87v-34z" />
    <glyph glyph-name="itilde" unicode="&#x129;" horiz-adv-x="280" 
d="M64 0v497h152v-497h-152zM321 686c0 -44 -10.5 -76.666 -31.5 -97.999s-47.833 -32 -80.5 -32c-15.333 0 -29 2.33301 -41 7s-23.667 10 -35 16c-10 5.33301 -19.5 10.166 -28.5 14.499s-18.167 6.5 -27.5 6.5c-10 0 -18 -3.33301 -24 -10s-9.33301 -17.667 -10 -33h-86
v23c0 42.667 11 74.5 33 95.5s48.667 31.5 80 31.5c15.333 0 29 -2.33301 41 -7s23.667 -10 35 -16c10 -6 19.333 -11.167 28 -15.5s17.667 -6.5 27 -6.5c22 0 33.667 14.667 35 44h85v-20z" />
    <glyph glyph-name="Imacron" unicode="&#x12a;" horiz-adv-x="320" 
d="M80 0v709h160v-709h-160zM6 771v109h311v-109h-311z" />
    <glyph glyph-name="imacron" unicode="&#x12b;" horiz-adv-x="280" 
d="M64 0v497h152v-497h-152zM-2 577v105h286v-105h-286z" />
    <glyph glyph-name="Ibreve" unicode="&#x12c;" horiz-adv-x="320" 
d="M80 0v709h160v-709h-160zM160 753c-28 0 -52.3291 4 -72.9961 12s-37.834 18.5 -51.501 31.5s-24 27.833 -31 44.5s-10.833 33.334 -11.5 50.001h113c0.666992 -14.667 5.5 -26.667 14.5 -36s22.167 -14 39.5 -14s30.666 4.66699 39.999 14s14.333 21.333 15 36h112
c-0.666992 -16.667 -4.33398 -33.334 -11.001 -50.001s-16.834 -31.5 -30.501 -44.5s-31 -23.5 -52 -31.5s-45.5 -12 -73.5 -12z" />
    <glyph glyph-name="ibreve" unicode="&#x12d;" horiz-adv-x="280" 
d="M64 0v497h152v-497h-152zM140 551c-27.333 0 -51.5 4.33301 -72.5 13s-38.5 20.167 -52.5 34.5s-24.5 30.833 -31.5 49.5s-10.833 38.334 -11.5 59.001h96c1.33301 -13.333 7.33301 -26 18 -38s28.667 -18 54 -18s43.333 6 54 18s16.667 24.667 18 38h97
c-0.666992 -20.667 -4.66699 -40.334 -12 -59.001s-18 -35.167 -32 -49.5s-31.333 -25.833 -52 -34.5s-45 -13 -73 -13z" />
    <glyph glyph-name="Iogonek" unicode="&#x12e;" horiz-adv-x="320" 
d="M61 -117c0 30 7.33105 54.167 21.998 72.5s31.334 33.166 50.001 44.499h-53v709h160v-709c-19.333 -9.33301 -36.833 -22.166 -52.5 -38.499s-23.5 -34.5 -23.5 -54.5c0 -14 4.5 -24.667 13.5 -32s20.167 -11 33.5 -11c6.66699 0 12.334 0.166992 17.001 0.5
s8.66699 0.833008 12 1.5v-84c-14 -5.33301 -31.667 -8 -53 -8c-38 0 -68.5 9.83301 -91.5 29.5s-34.5 46.167 -34.5 79.5z" />
    <glyph glyph-name="iogonek" unicode="&#x12f;" horiz-adv-x="280" 
d="M51 649c0 12 2.33301 23.5 7 34.5s11 20.5 19 28.5s17.333 14.333 28 19s22 7 34 7c25.333 0 46.666 -8.66699 63.999 -26s26 -38.333 26 -63s-8.66699 -45.667 -26 -63s-38.666 -26 -63.999 -26c-12 0 -23.333 2.33301 -34 7s-20 11 -28 19s-14.333 17.5 -19 28.5
s-7 22.5 -7 34.5zM37 -117c0 30 7.33105 54.167 21.998 72.5s31.334 33.166 50.001 44.499h-45v497h152v-497c-19.333 -9.33301 -36.833 -22.166 -52.5 -38.499s-23.5 -34.5 -23.5 -54.5c0 -14 4.5 -24.667 13.5 -32s20.167 -11 33.5 -11
c6.66699 0 12.334 0.166992 17.001 0.5s8.66699 0.833008 12 1.5v-84c-14 -5.33301 -31.667 -8 -53 -8c-38 0 -68.5 9.83301 -91.5 29.5s-34.5 46.167 -34.5 79.5z" />
    <glyph glyph-name="Idotaccent" unicode="&#x130;" horiz-adv-x="320" 
d="M80 0v709h160v-709h-160zM71 841c0 24.667 8.5 45.334 25.5 62.001s38.167 25 63.5 25c24.667 0 45.667 -8.33301 63 -25s26 -37.334 26 -62.001c0 -25.333 -8.66699 -46.166 -26 -62.499s-38.333 -24.5 -63 -24.5c-25.333 0 -46.5 8.16699 -63.5 24.5
s-25.5 37.166 -25.5 62.499z" />
    <glyph glyph-name="dotlessi" unicode="&#x131;" horiz-adv-x="280" 
d="M64 0v497h152v-497h-152z" />
    <glyph glyph-name="IJ" unicode="&#x132;" horiz-adv-x="630" 
d="M73 313v396h160v-396h-160zM233 244l-0.00292969 -17.001c0 -31.333 7.66699 -54.5 23 -69.5s35 -22.5 59 -22.5c25.333 0 45.333 8.5 60 25.5s22 38.833 22 65.5v483h159v-487c0 -32 -5.83301 -62.5 -17.5 -91.5s-28.167 -54.167 -49.5 -75.5
s-46.666 -38.333 -75.999 -51s-61.666 -19 -96.999 -19s-67.833 5.5 -97.5 16.5s-55.167 26.833 -76.5 47.5s-38.166 45.334 -50.499 74.001s-18.5 60.667 -18.5 96z" />
    <glyph glyph-name="ij" unicode="&#x133;" horiz-adv-x="560" 
d="M64 0v497h152v-497h-152zM51 649c0 12 2.33301 23.5 7 34.5s11 20.5 19 28.5s17.333 14.333 28 19s22 7 34 7c25.333 0 46.666 -8.66699 63.999 -26s26 -38.333 26 -63s-8.66699 -45.667 -26 -63s-38.666 -26 -63.999 -26c-12 0 -23.333 2.33301 -34 7s-20 11 -28 19
s-14.333 17.5 -19 28.5s-7 22.5 -7 34.5zM344 497l152 0.000976562v-533c0 -25.333 -3.83301 -48.333 -11.5 -69s-18.5 -38.334 -32.5 -53.001s-31.167 -26.167 -51.5 -34.5s-43.166 -12.5 -68.499 -12.5c-26.667 0 -46.5 2 -59.5 6s-21.167 6.66699 -24.5 8v126
c3.33301 -1.33301 8.83301 -2.66602 16.5 -3.99902s17.167 -2 28.5 -2c17.333 0 30.166 4.66699 38.499 14s12.5 21.666 12.5 36.999v517zM331 649.001c0 25.333 8.66699 46.5 26 63.5s38 25.5 62 25.5c25.333 0 46.666 -8.5 63.999 -25.5s26 -38.167 26 -63.5
c0 -24.667 -8.66699 -45.667 -26 -63s-38.666 -26 -63.999 -26c-12 0 -23.333 2.33301 -34 7s-20 11 -28 19s-14.333 17.5 -19 28.5s-7 22.5 -7 34.5z" />
    <glyph glyph-name="Jcircumflex" unicode="&#x134;" horiz-adv-x="570" 
d="M222 759l122 132h145l124 -132h-141l-58 65l-57 -65h-135zM19 266l149.999 25.999v-65c0 -32 8.5 -55.333 25.5 -70s37.167 -22 60.5 -22c26 0 46.333 8.5 61 25.5s22 38.833 22 65.5v483h158v-487c0 -32 -5.83301 -62.5 -17.5 -91.5s-28.167 -54.167 -49.5 -75.5
s-46.666 -38.333 -75.999 -51s-61.666 -19 -96.999 -19s-67.5 5.5 -96.5 16.5s-53.833 26.833 -74.5 47.5s-36.834 45.334 -48.501 74.001s-17.5 60.667 -17.5 96v47z" />
    <glyph glyph-name="jcircumflex" unicode="&#x135;" horiz-adv-x="280" 
d="M-47 556l113 151h143l114 -151h-116l-71 71l-70 -71h-113zM64 497l152 0.00195312v-533c0 -25.333 -3.83301 -48.333 -11.5 -69s-18.5 -38.334 -32.5 -53.001s-31.167 -26.167 -51.5 -34.5s-43.166 -12.5 -68.499 -12.5c-22.667 0 -41.5 1.83301 -56.5 5.5
s-24.167 6.16699 -27.5 7.5v128c4.66699 -1.33301 11 -2.83301 19 -4.5s16.667 -2.5 26 -2.5c17.333 0 30.166 4.66699 38.499 14s12.5 21.666 12.5 36.999v517z" />
    <glyph glyph-name="Kcommaaccent" unicode="&#x136;" horiz-adv-x="705" 
d="M318 279l-80 -89v-190h-158v709h158v-298l259 298h208l-276 -307l277 -402h-197zM292 -104c0 19.333 7.33203 35.665 21.999 48.998s33.667 20 57 20c26.667 0 48.334 -9 65.001 -27s25 -39.667 25 -65c0 -26.667 -4.66699 -48.667 -14 -66s-21 -31.166 -35 -41.499
s-29.5 -17.666 -46.5 -21.999s-32.833 -6.5 -47.5 -6.5h-4.5c-1.66699 0 -4.16699 0.333008 -7.5 1v52c28 0 49.333 4.16699 64 12.5s22.667 19.5 24 33.5c-2 -1.33301 -5.5 -2.83301 -10.5 -4.5s-11.833 -2.5 -20.5 -2.5c-23.333 0 -41 6.5 -53 19.5s-18 28.833 -18 47.5z
" />
    <glyph glyph-name="kcommaaccent" unicode="&#x137;" horiz-adv-x="575" 
d="M370 288l198 -288h-186l-117 175l-49 -53v-122h-152v724h152v-394l151 167h197zM229 -109c0 19.333 7.33203 35.665 21.999 48.998s33.667 20 57 20c26.667 0 48.334 -9 65.001 -27s25 -39.667 25 -65c0 -26.667 -4.66699 -48.667 -14 -66s-21 -31.166 -35 -41.499
s-29.5 -17.666 -46.5 -21.999s-32.833 -6.5 -47.5 -6.5h-4.5c-1.66699 0 -4.16699 0.333008 -7.5 1v52c28 0 49.333 4.16699 64 12.5s22.667 19.5 24 33.5c-2 -1.33301 -5.5 -2.83301 -10.5 -4.5s-11.833 -2.5 -20.5 -2.5c-23.333 0 -41 6.5 -53 19.5s-18 28.833 -18 47.5z
" />
    <glyph glyph-name="kgreenlandic" unicode="&#x138;" horiz-adv-x="575" 
d="M370 288l198 -288h-186l-117 175l-49 -53v-122h-152v498h152v-168l151 167h197z" />
    <glyph glyph-name="Lacute" unicode="&#x139;" horiz-adv-x="560" 
d="M232 759h-135l104 132h181zM80 0v709h158v-558h306v-151h-464z" />
    <glyph glyph-name="lacute" unicode="&#x13a;" horiz-adv-x="280" 
d="M207 769h-135l104 132h181zM64 0v724h152v-724h-152z" />
    <glyph glyph-name="Lcommaaccent" unicode="&#x13b;" horiz-adv-x="560" 
d="M80 0v709h158v-558h306v-151h-464zM231 -109c0 19.333 7.33203 35.665 21.999 48.998s33.667 20 57 20c26.667 0 48.334 -9 65.001 -27s25 -39.667 25 -65c0 -26.667 -4.66699 -48.667 -14 -66s-21 -31.166 -35 -41.499s-29.5 -17.666 -46.5 -21.999
s-32.833 -6.5 -47.5 -6.5h-4.5c-1.66699 0 -4.16699 0.333008 -7.5 1v52c28 0 49.333 4.16699 64 12.5s22.667 19.5 24 33.5c-2 -1.33301 -5.5 -2.83301 -10.5 -4.5s-11.833 -2.5 -20.5 -2.5c-23.333 0 -41 6.5 -53 19.5s-18 28.833 -18 47.5z" />
    <glyph glyph-name="lcommaaccent" unicode="&#x13c;" horiz-adv-x="280" 
d="M64 0v724h152v-724h-152zM54 -109c0 19.333 7.33203 35.665 21.999 48.998s33.667 20 57 20c26.667 0 48.334 -9 65.001 -27s25 -39.667 25 -65c0 -26.667 -4.66699 -48.667 -14 -66s-21 -31.166 -35 -41.499s-29.5 -17.666 -46.5 -21.999s-32.833 -6.5 -47.5 -6.5h-4.5
c-1.66699 0 -4.16699 0.333008 -7.5 1v52c28 0 49.333 4.16699 64 12.5s22.667 19.5 24 33.5c-2 -1.33301 -5.5 -2.83301 -10.5 -4.5s-11.833 -2.5 -20.5 -2.5c-23.333 0 -41 6.5 -53 19.5s-18 28.833 -18 47.5z" />
    <glyph glyph-name="Lcaron" unicode="&#x13d;" horiz-adv-x="561" 
d="M423 543h-104l31 217h152zM80 0v709h158v-558h306v-151h-464z" />
    <glyph glyph-name="lcaron" unicode="&#x13e;" horiz-adv-x="280" 
d="M357 517h-99l29 207h145zM64 0v724h152v-724h-152z" />
    <glyph glyph-name="Ldot" unicode="&#x13f;" horiz-adv-x="563" 
d="M343 421c0 23.333 8.16699 42.833 24.5 58.5s36.166 23.5 59.499 23.5s43.166 -7.83301 59.499 -23.5s24.5 -35.167 24.5 -58.5c0 -24 -8.16699 -43.833 -24.5 -59.5s-36.166 -23.5 -59.499 -23.5s-43.166 7.83301 -59.499 23.5s-24.5 35.5 -24.5 59.5zM80 0v709h158
v-558h306v-151h-464z" />
    <glyph glyph-name="ldot" unicode="&#x140;" horiz-adv-x="428" 
d="M64 0v724h152v-724h-152zM262 339c0 24.667 8.5 45.334 25.5 62.001s38.167 25 63.5 25c24.667 0 45.667 -8.33301 63 -25s26 -37.334 26 -62.001s-8.66699 -45.167 -26 -61.5s-38.333 -24.5 -63 -24.5c-25.333 0 -46.5 8.16699 -63.5 24.5s-25.5 36.833 -25.5 61.5z" />
    <glyph glyph-name="Lslash" unicode="&#x141;" horiz-adv-x="588" 
d="M108 0v244l-91 -42v123l91 42v342h158v-269l161 74v-122l-161 -75v-166h306v-151h-464z" />
    <glyph glyph-name="lslash" unicode="&#x142;" horiz-adv-x="387" 
d="M118 0v250l-83 -38v123l83 38v351h152v-281l84 39v-122l-84 -39v-321h-152z" />
    <glyph glyph-name="Nacute" unicode="&#x143;" horiz-adv-x="776" 
d="M418 759h-135l104 132h181zM529 0l-292 466v-466h-157v709h192l266 -431v431h158v-709h-167z" />
    <glyph glyph-name="nacute" unicode="&#x144;" horiz-adv-x="590" 
d="M322 556h-121l92 151h170zM216 0l-152.002 -0.00195312v497h147v-57c6.66699 12 15.334 22.333 26.001 31s22.167 15.834 34.5 21.501s25.333 10 39 13s26.834 4.5 39.501 4.5c31.333 0 58.333 -5.16699 81 -15.5s41.5 -24.5 56.5 -42.5s26 -39 33 -63
s10.5 -49.667 10.5 -77v-312h-152v286c0 24.667 -6.5 45.167 -19.5 61.5s-33.5 24.5 -61.5 24.5c-25.333 0 -45.333 -8.16699 -60 -24.5s-22 -37.166 -22 -62.499v-285z" />
    <glyph glyph-name="Ncommaaccent" unicode="&#x145;" horiz-adv-x="776" 
d="M328 -109c0 19.333 7.33203 35.665 21.999 48.998s33.667 20 57 20c26.667 0 48.334 -9 65.001 -27s25 -39.667 25 -65c0 -26.667 -4.66699 -48.667 -14 -66s-21 -31.166 -35 -41.499s-29.5 -17.666 -46.5 -21.999s-32.833 -6.5 -47.5 -6.5h-4.5
c-1.66699 0 -4.16699 0.333008 -7.5 1v52c28 0 49.333 4.16699 64 12.5s22.667 19.5 24 33.5c-2 -1.33301 -5.5 -2.83301 -10.5 -4.5s-11.833 -2.5 -20.5 -2.5c-23.333 0 -41 6.5 -53 19.5s-18 28.833 -18 47.5zM528.999 -0.000976562l-292 466v-466h-157v709h192l266 -431
v431h158v-709h-167z" />
    <glyph glyph-name="ncommaaccent" unicode="&#x146;" horiz-adv-x="590" 
d="M219 -105c0 19.333 7.33203 35.665 21.999 48.998s33.667 20 57 20c26.667 0 48.334 -9 65.001 -27s25 -39.667 25 -65c0 -26.667 -4.66699 -48.667 -14 -66s-21 -31.166 -35 -41.499s-29.5 -17.666 -46.5 -21.999s-32.833 -6.5 -47.5 -6.5h-4.5
c-1.66699 0 -4.16699 0.333008 -7.5 1v52c28 0 49.333 4.16699 64 12.5s22.667 19.5 24 33.5c-2 -1.33301 -5.5 -2.83301 -10.5 -4.5s-11.833 -2.5 -20.5 -2.5c-23.333 0 -41 6.5 -53 19.5s-18 28.833 -18 47.5zM215.999 -0.000976562l-152.002 -0.00195312v497h147v-57
c6.66699 12 15.334 22.333 26.001 31s22.167 15.834 34.5 21.501s25.333 10 39 13s26.834 4.5 39.501 4.5c31.333 0 58.333 -5.16699 81 -15.5s41.5 -24.5 56.5 -42.5s26 -39 33 -63s10.5 -49.667 10.5 -77v-312h-152v286c0 24.667 -6.5 45.167 -19.5 61.5
s-33.5 24.5 -61.5 24.5c-25.333 0 -45.333 -8.16699 -60 -24.5s-22 -37.166 -22 -62.499v-285z" />
    <glyph glyph-name="Ncaron" unicode="&#x147;" horiz-adv-x="776" 
d="M328 891l58 -65l58 65h135l-123 -132h-145l-123 132h140zM529 0l-292 466v-466h-157v709h192l266 -431v431h158v-709h-167z" />
    <glyph glyph-name="ncaron" unicode="&#x148;" horiz-adv-x="590" 
d="M221 707l71 -72l70 72h113l-112 -151h-145l-113 151h116zM216 0l-152.002 -0.00195312v497h147v-57c6.66699 12 15.334 22.333 26.001 31s22.167 15.834 34.5 21.501s25.333 10 39 13s26.834 4.5 39.501 4.5c31.333 0 58.333 -5.16699 81 -15.5s41.5 -24.5 56.5 -42.5
s26 -39 33 -63s10.5 -49.667 10.5 -77v-312h-152v286c0 24.667 -6.5 45.167 -19.5 61.5s-33.5 24.5 -61.5 24.5c-25.333 0 -45.333 -8.16699 -60 -24.5s-22 -37.166 -22 -62.499v-285z" />
    <glyph glyph-name="napostrophe" unicode="&#x149;" horiz-adv-x="590" 
d="M50 694c0 19.333 7.33496 35.832 22.002 49.499s33.667 20.5 57 20.5c27.333 0 49.166 -9.16699 65.499 -27.5s24.5 -40.166 24.5 -65.499c0 -28 -4.83301 -50.833 -14.5 -68.5s-21.834 -31.5 -36.501 -41.5s-30.667 -16.667 -48 -20s-33.333 -5 -48 -5h-8v52
c28 0 49.333 4 64 12s22.667 19 24 33c0 -0.666992 -2.83301 -2 -8.5 -4s-13.167 -3 -22.5 -3c-23.333 0 -41 6.5 -53 19.5s-18 29.167 -18 48.5zM216.002 -0.000976562l-152.002 -0.00195312v497h147v-57c6.66699 12 15.334 22.333 26.001 31s22.167 15.834 34.5 21.501
s25.333 10 39 13s26.834 4.5 39.501 4.5c31.333 0 58.333 -5.16699 81 -15.5s41.5 -24.5 56.5 -42.5s26 -39 33 -63s10.5 -49.667 10.5 -77v-312h-152v286c0 24.667 -6.5 45.167 -19.5 61.5s-33.5 24.5 -61.5 24.5c-25.333 0 -45.333 -8.16699 -60 -24.5
s-22 -37.166 -22 -62.499v-285z" />
    <glyph glyph-name="Eng" unicode="&#x14a;" horiz-adv-x="776" 
d="M237 466v-466.002h-157v709h192l266 -427v427h158v-741c0 -25.333 -4.16699 -48.666 -12.5 -69.999s-20.333 -39.5 -36 -54.5s-34.334 -26.667 -56.001 -35s-45.5 -12.5 -71.5 -12.5c-23.333 0 -43.333 1.83301 -60 5.5s-27 6.5 -31 8.5v129
c4.66699 -1.33301 11.5 -2.66602 20.5 -3.99902s19.5 -2 31.5 -2c20.667 0 35.334 4.83301 44.001 14.5s13 21.5 13 35.5v8z" />
    <glyph glyph-name="eng" unicode="&#x14b;" horiz-adv-x="590" 
d="M379 286c0 24.667 -6.5 45.165 -19.5 61.498s-33.5 24.5 -61.5 24.5c-25.333 0 -45.333 -8.16699 -60 -24.5s-22 -37.166 -22 -62.499v-285h-152v497h147v-57c6.66699 12 15.334 22.333 26.001 31s22.167 15.834 34.5 21.501s25.333 10 39 13s26.834 4.5 39.501 4.5
c31.333 0 58.333 -5.16699 81 -15.5s41.5 -24.5 56.5 -42.5s26 -39 33 -63s10.5 -49.667 10.5 -77v-344c0 -24.667 -4 -47.334 -12 -68.001s-19.5 -38.5 -34.5 -53.5s-32.833 -26.667 -53.5 -35s-43.667 -12.5 -69 -12.5c-22.667 0 -41.834 1.66699 -57.501 5
s-25.167 6.33301 -28.5 9v125c4 -1.33301 10.167 -2.66602 18.5 -3.99902s18.166 -2 29.499 -2c20 0 34.167 4.83301 42.5 14.5s12.5 22.5 12.5 38.5v301z" />
    <glyph glyph-name="Omacron" unicode="&#x14c;" horiz-adv-x="815" 
d="M203 355c0 -37.333 6 -69.333 18 -96s27.833 -48.834 47.5 -66.501s41.667 -30.667 66 -39s48.833 -12.5 73.5 -12.5s49.167 4.16699 73.5 12.5s46.166 21.333 65.499 39s35 39.834 47 66.501s18 58.667 18 96c0 36.667 -6 68.667 -18 96s-27.667 49.666 -47 66.999
s-41.166 30.333 -65.499 39s-48.833 13 -73.5 13s-49.167 -4.33301 -73.5 -13s-46.333 -21.667 -66 -39s-35.5 -39.666 -47.5 -66.999s-18 -59.333 -18 -96zM39 354c0 56 9.83301 106.833 29.5 152.5s46.334 84.667 80.001 117s72.834 57.166 117.501 74.499s92 26 142 26
s97.167 -8.66699 141.5 -26s83.333 -42.166 117 -74.499s60.334 -71.333 80.001 -117s29.5 -96.5 29.5 -152.5s-9.83301 -106.667 -29.5 -152s-46.334 -84.166 -80.001 -116.499s-72.667 -57.166 -117 -74.499s-91.5 -26 -141.5 -26s-97.333 8.66699 -142 26
s-83.834 42.166 -117.501 74.499s-60.334 71.166 -80.001 116.499s-29.5 96 -29.5 152zM252 771v109h311v-109h-311z" />
    <glyph glyph-name="omacron" unicode="&#x14d;" horiz-adv-x="600" 
d="M157 577v105h286v-105h-286zM300 125c14.667 0 28.667 2.50293 42 7.50293s25.166 12.667 35.499 23s18.666 23.166 24.999 38.499s9.5 33.666 9.5 54.999c0 20.667 -3.16699 38.834 -9.5 54.501s-14.666 28.5 -24.999 38.5s-22.166 17.5 -35.499 22.5
s-27.333 7.5 -42 7.5c-14 0 -27.833 -2.5 -41.5 -7.5s-25.667 -12.5 -36 -22.5s-18.666 -22.833 -24.999 -38.5s-9.5 -33.834 -9.5 -54.501s3.16699 -38.834 9.5 -54.501s14.666 -28.667 24.999 -39s22.333 -18 36 -23s27.5 -7.5 41.5 -7.5zM300 512.003
c37.333 0 72 -6.5 104 -19.5s59.833 -31.167 83.5 -54.5s42.334 -51 56.001 -83s20.5 -67.333 20.5 -106s-6.83301 -74.167 -20.5 -106.5s-32.334 -60.166 -56.001 -83.499s-51.5 -41.5 -83.5 -54.5s-66.667 -19.5 -104 -19.5s-72 6.5 -104 19.5s-59.833 31.167 -83.5 54.5
s-42.334 51.166 -56.001 83.499s-20.5 67.833 -20.5 106.5s6.83301 74 20.5 106s32.334 59.667 56.001 83s51.5 41.5 83.5 54.5s66.667 19.5 104 19.5z" />
    <glyph glyph-name="Obreve" unicode="&#x14e;" horiz-adv-x="815" 
d="M408 753c-28 0 -52.3291 4 -72.9961 12s-37.834 18.5 -51.501 31.5s-24 27.833 -31 44.5s-10.833 33.334 -11.5 50.001h113c0.666992 -14.667 5.5 -26.667 14.5 -36s22.167 -14 39.5 -14s30.666 4.66699 39.999 14s14.333 21.333 15 36h112
c-0.666992 -16.667 -4.33398 -33.334 -11.001 -50.001s-16.834 -31.5 -30.501 -44.5s-31 -23.5 -52 -31.5s-45.5 -12 -73.5 -12zM203.004 355c0 -37.333 6 -69.333 18 -96s27.833 -48.834 47.5 -66.501s41.667 -30.667 66 -39s48.833 -12.5 73.5 -12.5
s49.167 4.16699 73.5 12.5s46.166 21.333 65.499 39s35 39.834 47 66.501s18 58.667 18 96c0 36.667 -6 68.667 -18 96s-27.667 49.666 -47 66.999s-41.166 30.333 -65.499 39s-48.833 13 -73.5 13s-49.167 -4.33301 -73.5 -13s-46.333 -21.667 -66 -39
s-35.5 -39.666 -47.5 -66.999s-18 -59.333 -18 -96zM39.0039 354c0 56 9.83301 106.833 29.5 152.5s46.334 84.667 80.001 117s72.834 57.166 117.501 74.499s92 26 142 26s97.167 -8.66699 141.5 -26s83.333 -42.166 117 -74.499s60.334 -71.333 80.001 -117
s29.5 -96.5 29.5 -152.5s-9.83301 -106.667 -29.5 -152s-46.334 -84.166 -80.001 -116.499s-72.667 -57.166 -117 -74.499s-91.5 -26 -141.5 -26s-97.333 8.66699 -142 26s-83.834 42.166 -117.501 74.499s-60.334 71.166 -80.001 116.499s-29.5 96 -29.5 152z" />
    <glyph glyph-name="obreve" unicode="&#x14f;" horiz-adv-x="600" 
d="M300 125c14.667 0 28.667 2.50293 42 7.50293s25.166 12.667 35.499 23s18.666 23.166 24.999 38.499s9.5 33.666 9.5 54.999c0 20.667 -3.16699 38.834 -9.5 54.501s-14.666 28.5 -24.999 38.5s-22.166 17.5 -35.499 22.5s-27.333 7.5 -42 7.5
c-14 0 -27.833 -2.5 -41.5 -7.5s-25.667 -12.5 -36 -22.5s-18.666 -22.833 -24.999 -38.5s-9.5 -33.834 -9.5 -54.501s3.16699 -38.834 9.5 -54.501s14.666 -28.667 24.999 -39s22.333 -18 36 -23s27.5 -7.5 41.5 -7.5zM300 512.003c37.333 0 72 -6.5 104 -19.5
s59.833 -31.167 83.5 -54.5s42.334 -51 56.001 -83s20.5 -67.333 20.5 -106s-6.83301 -74.167 -20.5 -106.5s-32.334 -60.166 -56.001 -83.499s-51.5 -41.5 -83.5 -54.5s-66.667 -19.5 -104 -19.5s-72 6.5 -104 19.5s-59.833 31.167 -83.5 54.5
s-42.334 51.166 -56.001 83.499s-20.5 67.833 -20.5 106.5s6.83301 74 20.5 106s32.334 59.667 56.001 83s51.5 41.5 83.5 54.5s66.667 19.5 104 19.5zM300 551.003c-27.333 0 -51.5 4.33301 -72.5 13s-38.5 20.167 -52.5 34.5s-24.5 30.833 -31.5 49.5
s-10.833 38.334 -11.5 59.001h96c1.33301 -13.333 7.33301 -26 18 -38s28.667 -18 54 -18s43.333 6 54 18s16.667 24.667 18 38h97c-0.666992 -20.667 -4.66699 -40.334 -12 -59.001s-18 -35.167 -32 -49.5s-31.333 -25.833 -52 -34.5s-45 -13 -73 -13z" />
    <glyph glyph-name="Ohungarumlaut" unicode="&#x150;" horiz-adv-x="815" 
d="M362 759h-94l48 132h139zM526 759h-96l65 132h141zM203 355c0 -37.333 6 -69.333 18 -96s27.833 -48.834 47.5 -66.501s41.667 -30.667 66 -39s48.833 -12.5 73.5 -12.5s49.167 4.16699 73.5 12.5s46.166 21.333 65.499 39s35 39.834 47 66.501s18 58.667 18 96
c0 36.667 -6 68.667 -18 96s-27.667 49.666 -47 66.999s-41.166 30.333 -65.499 39s-48.833 13 -73.5 13s-49.167 -4.33301 -73.5 -13s-46.333 -21.667 -66 -39s-35.5 -39.666 -47.5 -66.999s-18 -59.333 -18 -96zM39 354c0 56 9.83301 106.833 29.5 152.5
s46.334 84.667 80.001 117s72.834 57.166 117.501 74.499s92 26 142 26s97.167 -8.66699 141.5 -26s83.333 -42.166 117 -74.499s60.334 -71.333 80.001 -117s29.5 -96.5 29.5 -152.5s-9.83301 -106.667 -29.5 -152s-46.334 -84.166 -80.001 -116.499
s-72.667 -57.166 -117 -74.499s-91.5 -26 -141.5 -26s-97.333 8.66699 -142 26s-83.834 42.166 -117.501 74.499s-60.334 71.166 -80.001 116.499s-29.5 96 -29.5 152z" />
    <glyph glyph-name="ohungarumlaut" unicode="&#x151;" horiz-adv-x="600" 
d="M300 125c14.667 0 28.667 2.50293 42 7.50293s25.166 12.667 35.499 23s18.666 23.166 24.999 38.499s9.5 33.666 9.5 54.999c0 20.667 -3.16699 38.834 -9.5 54.501s-14.666 28.5 -24.999 38.5s-22.166 17.5 -35.499 22.5s-27.333 7.5 -42 7.5
c-14 0 -27.833 -2.5 -41.5 -7.5s-25.667 -12.5 -36 -22.5s-18.666 -22.833 -24.999 -38.5s-9.5 -33.834 -9.5 -54.501s3.16699 -38.834 9.5 -54.501s14.666 -28.667 24.999 -39s22.333 -18 36 -23s27.5 -7.5 41.5 -7.5zM300 512.003c37.333 0 72 -6.5 104 -19.5
s59.833 -31.167 83.5 -54.5s42.334 -51 56.001 -83s20.5 -67.333 20.5 -106s-6.83301 -74.167 -20.5 -106.5s-32.334 -60.166 -56.001 -83.499s-51.5 -41.5 -83.5 -54.5s-66.667 -19.5 -104 -19.5s-72 6.5 -104 19.5s-59.833 31.167 -83.5 54.5
s-42.334 51.166 -56.001 83.499s-20.5 67.833 -20.5 106.5s6.83301 74 20.5 106s32.334 59.667 56.001 83s51.5 41.5 83.5 54.5s66.667 19.5 104 19.5zM258 556.003h-92l53 151h141zM420 556.003h-93l69 151h142z" />
    <glyph glyph-name="OE" unicode="&#x152;" horiz-adv-x="1114" 
d="M203 355c0 -37.333 6 -69.333 18 -96s27.833 -48.834 47.5 -66.501s41.667 -30.667 66 -39s48.833 -12.5 73.5 -12.5s49.167 4.16699 73.5 12.5s46.166 21.333 65.499 39s35 39.834 47 66.501s18 58.667 18 96c0 36.667 -6 68.667 -18 96s-27.667 49.666 -47 66.999
s-41.166 30.333 -65.499 39s-48.833 13 -73.5 13s-49.167 -4.33301 -73.5 -13s-46.333 -21.667 -66 -39s-35.5 -39.666 -47.5 -66.999s-18 -59.333 -18 -96zM612 0v60.0039c-24.667 -24.667 -53.667 -43.334 -87 -56.001s-72.333 -19 -117 -19
c-50 0 -97.333 8.66699 -142 26s-83.834 42.166 -117.501 74.499s-60.334 71.166 -80.001 116.499s-29.5 96 -29.5 152s9.83301 106.833 29.5 152.5s46.334 84.667 80.001 117s72.834 57.166 117.501 74.499s92 26 142 26c44.667 0 84 -6.5 118 -19.5s62.667 -31.5 86 -55.5
v60h450v-149h-291v-135h264v-139h-264v-136h292v-150h-451z" />
    <glyph glyph-name="oe" unicode="&#x153;" horiz-adv-x="948" 
d="M764 308c-0.666992 9.33301 -2.83398 19 -6.50098 29s-9.5 19 -17.5 27s-18.167 14.667 -30.5 20s-27.5 8 -45.5 8c-16 0 -30 -2.66699 -42 -8s-22.167 -12 -30.5 -20s-14.666 -17 -18.999 -27s-6.83301 -19.667 -7.5 -29h199zM300 125
c14.667 0 28.667 2.50293 42 7.50293s25.166 12.667 35.499 23s18.666 23.166 24.999 38.499s9.5 33.666 9.5 54.999c0 20.667 -3.16699 38.834 -9.5 54.501s-14.666 28.5 -24.999 38.5s-22.166 17.5 -35.499 22.5s-27.333 7.5 -42 7.5c-14 0 -27.833 -2.5 -41.5 -7.5
s-25.667 -12.5 -36 -22.5s-18.666 -22.833 -24.999 -38.5s-9.5 -33.834 -9.5 -54.501s3.16699 -38.834 9.5 -54.501s14.666 -28.667 24.999 -39s22.333 -18 36 -23s27.5 -7.5 41.5 -7.5zM300 512.003c37.333 0 72.0039 -6.33105 104.004 -18.998s59.667 -30.667 83 -54
c23.333 23.333 50 41.333 80 54s61.667 19 95 19c77.333 0 138.166 -22.333 182.499 -67s66.5 -107.334 66.5 -188.001c0 -10.667 -0.333008 -20.834 -1 -30.501s-1.33398 -15.167 -2.00098 -16.5h-346c0.666992 -14 4.16699 -26.833 10.5 -38.5
s14.666 -21.834 24.999 -30.501s22.166 -15.334 35.499 -20.001s27.333 -7 42 -7c28 0 49.833 6 65.5 18s27.167 27.667 34.5 47l127 -36c-6 -21.333 -15.333 -41.666 -28 -60.999s-28.667 -36.166 -48 -50.499s-41.833 -25.666 -67.5 -33.999s-54.167 -12.5 -85.5 -12.5
c-36 0 -70 6.33301 -102 19s-60 31 -84 55c-23.333 -23.333 -51 -41.5 -83 -54.5s-66.667 -19.5 -104 -19.5s-72 6.5 -104 19.5s-59.833 31.167 -83.5 54.5s-42.334 51.166 -56.001 83.499s-20.5 67.833 -20.5 106.5s6.83301 74 20.5 106s32.334 59.667 56.001 83
s51.5 41.5 83.5 54.5s66.667 19.5 104 19.5z" />
    <glyph glyph-name="Racute" unicode="&#x154;" horiz-adv-x="634" 
d="M351 759h-135l104 132h181zM294 264h-56v-264h-158v709h281c34.667 0 66.167 -5.66699 94.5 -17s52.5 -27 72.5 -47s35.5 -43.5 46.5 -70.5s16.5 -56.167 16.5 -87.5c0 -48 -12.333 -89.5 -37 -124.5s-59 -60.167 -103 -75.5l144 -287h-174zM331 400
c32.667 0 57.5 8 74.5 24s25.5 36.667 25.5 62c0 26.667 -8.5 47.667 -25.5 63s-41.833 23 -74.5 23h-93v-172h93z" />
    <glyph glyph-name="racute" unicode="&#x155;" horiz-adv-x="401" 
d="M216 556h-121l92 151h170zM380 347c-8.66699 2 -16.999 3.33594 -24.999 4.00293s-15.667 1 -23 1c-15.333 0 -30 -2.33301 -44 -7s-26.333 -12.334 -37 -23.001s-19.167 -24.667 -25.5 -42s-9.5 -38.333 -9.5 -63v-217h-152v497h147v-67
c6.66699 14 15.167 25.667 25.5 35s21.5 16.666 33.5 21.999s24.167 9.16602 36.5 11.499s23.5 3.5 33.5 3.5c15.333 0 28.666 -1.66699 39.999 -5v-150z" />
    <glyph glyph-name="Rcommaaccent" unicode="&#x156;" horiz-adv-x="634" 
d="M294 264h-56v-264h-158v709h281c34.667 0 66.167 -5.66699 94.5 -17s52.5 -27 72.5 -47s35.5 -43.5 46.5 -70.5s16.5 -56.167 16.5 -87.5c0 -48 -12.333 -89.5 -37 -124.5s-59 -60.167 -103 -75.5l144 -287h-174zM331 400c32.667 0 57.5 8 74.5 24s25.5 36.667 25.5 62
c0 26.667 -8.5 47.667 -25.5 63s-41.833 23 -74.5 23h-93v-172h93zM253 -104c0 19.333 7.33203 35.665 21.999 48.998s33.667 20 57 20c26.667 0 48.334 -9 65.001 -27s25 -39.667 25 -65c0 -26.667 -4.66699 -48.667 -14 -66s-21 -31.166 -35 -41.499
s-29.5 -17.666 -46.5 -21.999s-32.833 -6.5 -47.5 -6.5h-4.5c-1.66699 0 -4.16699 0.333008 -7.5 1v52c28 0 49.333 4.16699 64 12.5s22.667 19.5 24 33.5c-2 -1.33301 -5.5 -2.83301 -10.5 -4.5s-11.833 -2.5 -20.5 -2.5c-23.333 0 -41 6.5 -53 19.5s-18 28.833 -18 47.5z
" />
    <glyph glyph-name="rcommaaccent" unicode="&#x157;" horiz-adv-x="401" 
d="M380 347c-8.66699 2 -16.999 3.33594 -24.999 4.00293s-15.667 1 -23 1c-15.333 0 -30 -2.33301 -44 -7s-26.333 -12.334 -37 -23.001s-19.167 -24.667 -25.5 -42s-9.5 -38.333 -9.5 -63v-217h-152v497h147v-67c6.66699 14 15.167 25.667 25.5 35
s21.5 16.666 33.5 21.999s24.167 9.16602 36.5 11.499s23.5 3.5 33.5 3.5c15.333 0 28.666 -1.66699 39.999 -5v-150zM57.001 -108.997c0 19.333 7.33203 35.665 21.999 48.998s33.667 20 57 20c26.667 0 48.334 -9 65.001 -27s25 -39.667 25 -65
c0 -26.667 -4.66699 -48.667 -14 -66s-21 -31.166 -35 -41.499s-29.5 -17.666 -46.5 -21.999s-32.833 -6.5 -47.5 -6.5h-4.5c-1.66699 0 -4.16699 0.333008 -7.5 1v52c28 0 49.333 4.16699 64 12.5s22.667 19.5 24 33.5c-2 -1.33301 -5.5 -2.83301 -10.5 -4.5
s-11.833 -2.5 -20.5 -2.5c-23.333 0 -41 6.5 -53 19.5s-18 28.833 -18 47.5z" />
    <glyph glyph-name="Rcaron" unicode="&#x158;" horiz-adv-x="634" 
d="M262 891l58 -65l58 65h135l-123 -132h-145l-123 132h140zM294 264h-56v-264h-158v709h281c34.667 0 66.167 -5.66699 94.5 -17s52.5 -27 72.5 -47s35.5 -43.5 46.5 -70.5s16.5 -56.167 16.5 -87.5c0 -48 -12.333 -89.5 -37 -124.5s-59 -60.167 -103 -75.5l144 -287h-174z
M331 400c32.667 0 57.5 8 74.5 24s25.5 36.667 25.5 62c0 26.667 -8.5 47.667 -25.5 63s-41.833 23 -74.5 23h-93v-172h93z" />
    <glyph glyph-name="rcaron" unicode="&#x159;" horiz-adv-x="401" 
d="M140 707l71 -72l70 72h113l-112 -151h-145l-113 151h116zM380 347c-8.66699 2 -16.999 3.33594 -24.999 4.00293s-15.667 1 -23 1c-15.333 0 -30 -2.33301 -44 -7s-26.333 -12.334 -37 -23.001s-19.167 -24.667 -25.5 -42s-9.5 -38.333 -9.5 -63v-217h-152v497h147v-67
c6.66699 14 15.167 25.667 25.5 35s21.5 16.666 33.5 21.999s24.167 9.16602 36.5 11.499s23.5 3.5 33.5 3.5c15.333 0 28.666 -1.66699 39.999 -5v-150z" />
    <glyph glyph-name="Sacute" unicode="&#x15a;" horiz-adv-x="623" 
d="M376 759h-135l104 132h181zM429 495c-1.33301 8 -4.16699 17.1689 -8.5 27.502s-11 20 -20 29s-20.833 16.667 -35.5 23s-32.667 9.5 -54 9.5c-29.333 0 -52.833 -7.83301 -70.5 -23.5s-26.5 -33.167 -26.5 -52.5c0 -17.333 5.5 -31.833 16.5 -43.5
s28.833 -19.834 53.5 -24.501l95 -18c34 -6 63.667 -15.833 89 -29.5s46.666 -29.834 63.999 -48.501s30.333 -39.5 39 -62.5s13 -47.167 13 -72.5c0 -28 -5.66699 -55.333 -17 -82s-28.166 -50.5 -50.499 -71.5s-49.833 -38 -82.5 -51s-70 -19.5 -112 -19.5
c-49.333 0 -91.666 7.16699 -126.999 21.5s-64.666 32.5 -87.999 54.5s-41 46.333 -53 73s-19.333 52.667 -22 78l145 35c1.33301 -16 5.16602 -31.5 11.499 -46.5s15.5 -28 27.5 -39s27 -19.833 45 -26.5s39 -10 63 -10c31.333 0 55.833 6.83301 73.5 20.5
s26.5 31.5 26.5 53.5c0 18 -6.83301 33.167 -20.5 45.5s-32.167 20.833 -55.5 25.5l-97 18c-60.667 11.333 -108 35.666 -142 72.999s-51 82.333 -51 135c0 33.333 6.83301 64 20.5 92s32.167 52 55.5 72s50.333 35.667 81 47s63 17 97 17c44 0 81.667 -6 113 -18
s57.166 -27.167 77.499 -45.5s35.833 -38.666 46.5 -60.999s18 -43.833 22 -64.5z" />
    <glyph glyph-name="sacute" unicode="&#x15b;" horiz-adv-x="480" 
d="M292 556h-121l92 151h170zM163 164c1.33301 -17.333 8.1709 -32.832 20.5039 -46.499s31.5 -20.5 57.5 -20.5c19.333 0 33.833 4.33301 43.5 13s14.5 18.667 14.5 30c0 9.33301 -3.5 17.5 -10.5 24.5s-19.833 12.5 -38.5 16.5l-57 13c-26.667 6 -49.334 14 -68.001 24
s-34 21.667 -46 35s-20.667 28 -26 44s-8 32.667 -8 50c0 22.667 4.66699 44 14 64s22.5 37.5 39.5 52.5s37.167 26.833 60.5 35.5s49 13 77 13c36 0 66.333 -5 91 -15s44.834 -22.5 60.501 -37.5s27.167 -31 34.5 -48s11.666 -32.833 12.999 -47.5l-126 -23
c-2 16.667 -8.5 31 -19.5 43s-28.167 18 -51.5 18c-14.667 0 -27.334 -3.83301 -38.001 -11.5s-16 -18.167 -16 -31.5c0 -10.667 3.66699 -19 11 -25s16.666 -10 27.999 -12l66 -13c52 -10.667 90.5 -30.167 115.5 -58.5s37.5 -60.833 37.5 -97.5c0 -21.333 -4 -42 -12 -62
s-20.333 -37.833 -37 -53.5s-37.334 -28.334 -62.001 -38.001s-53.667 -14.5 -87 -14.5c-39.333 0 -72.166 5.5 -98.499 16.5s-47.5 24.5 -63.5 40.5s-27.833 33 -35.5 51s-11.834 34 -12.501 48z" />
    <glyph glyph-name="Scircumflex" unicode="&#x15c;" horiz-adv-x="623" 
d="M130 759l122 132h145l124 -132h-141l-58 65l-57 -65h-135zM429 495c-1.33301 8 -4.16699 17.1689 -8.5 27.502s-11 20 -20 29s-20.833 16.667 -35.5 23s-32.667 9.5 -54 9.5c-29.333 0 -52.833 -7.83301 -70.5 -23.5s-26.5 -33.167 -26.5 -52.5
c0 -17.333 5.5 -31.833 16.5 -43.5s28.833 -19.834 53.5 -24.501l95 -18c34 -6 63.667 -15.833 89 -29.5s46.666 -29.834 63.999 -48.501s30.333 -39.5 39 -62.5s13 -47.167 13 -72.5c0 -28 -5.66699 -55.333 -17 -82s-28.166 -50.5 -50.499 -71.5s-49.833 -38 -82.5 -51
s-70 -19.5 -112 -19.5c-49.333 0 -91.666 7.16699 -126.999 21.5s-64.666 32.5 -87.999 54.5s-41 46.333 -53 73s-19.333 52.667 -22 78l145 35c1.33301 -16 5.16602 -31.5 11.499 -46.5s15.5 -28 27.5 -39s27 -19.833 45 -26.5s39 -10 63 -10
c31.333 0 55.833 6.83301 73.5 20.5s26.5 31.5 26.5 53.5c0 18 -6.83301 33.167 -20.5 45.5s-32.167 20.833 -55.5 25.5l-97 18c-60.667 11.333 -108 35.666 -142 72.999s-51 82.333 -51 135c0 33.333 6.83301 64 20.5 92s32.167 52 55.5 72s50.333 35.667 81 47
s63 17 97 17c44 0 81.667 -6 113 -18s57.166 -27.167 77.499 -45.5s35.833 -38.666 46.5 -60.999s18 -43.833 22 -64.5z" />
    <glyph glyph-name="scircumflex" unicode="&#x15d;" horiz-adv-x="480" 
d="M65 556l113 151h143l114 -151h-116l-71 71l-70 -71h-113zM163 164c1.33301 -17.333 8.1709 -32.832 20.5039 -46.499s31.5 -20.5 57.5 -20.5c19.333 0 33.833 4.33301 43.5 13s14.5 18.667 14.5 30c0 9.33301 -3.5 17.5 -10.5 24.5s-19.833 12.5 -38.5 16.5l-57 13
c-26.667 6 -49.334 14 -68.001 24s-34 21.667 -46 35s-20.667 28 -26 44s-8 32.667 -8 50c0 22.667 4.66699 44 14 64s22.5 37.5 39.5 52.5s37.167 26.833 60.5 35.5s49 13 77 13c36 0 66.333 -5 91 -15s44.834 -22.5 60.501 -37.5s27.167 -31 34.5 -48
s11.666 -32.833 12.999 -47.5l-126 -23c-2 16.667 -8.5 31 -19.5 43s-28.167 18 -51.5 18c-14.667 0 -27.334 -3.83301 -38.001 -11.5s-16 -18.167 -16 -31.5c0 -10.667 3.66699 -19 11 -25s16.666 -10 27.999 -12l66 -13c52 -10.667 90.5 -30.167 115.5 -58.5
s37.5 -60.833 37.5 -97.5c0 -21.333 -4 -42 -12 -62s-20.333 -37.833 -37 -53.5s-37.334 -28.334 -62.001 -38.001s-53.667 -14.5 -87 -14.5c-39.333 0 -72.166 5.5 -98.499 16.5s-47.5 24.5 -63.5 40.5s-27.833 33 -35.5 51s-11.834 34 -12.501 48z" />
    <glyph glyph-name="Scedilla" unicode="&#x15e;" horiz-adv-x="623" 
d="M247 -63l32.002 50.001c-41.333 4 -77 13.667 -107 29s-55 33.666 -75 54.999s-35.333 44.333 -46 69s-17 48.667 -19 72l145 35c1.33301 -16 5.16602 -31.5 11.499 -46.5s15.5 -28 27.5 -39s27 -19.833 45 -26.5s39 -10 63 -10c31.333 0 55.833 6.83301 73.5 20.5
s26.5 31.5 26.5 53.5c0 18 -6.83301 33.167 -20.5 45.5s-32.167 20.833 -55.5 25.5l-97 18c-60.667 11.333 -108 35.666 -142 72.999s-51 82.333 -51 135c0 33.333 6.83301 64 20.5 92s32.167 52 55.5 72s50.333 35.667 81 47s63 17 97 17c44 0 81.667 -6 113 -18
s57.166 -27.167 77.499 -45.5s35.833 -38.666 46.5 -60.999s18 -43.833 22 -64.5l-142 -40c-1.33301 8 -4.16602 17.167 -8.49902 27.5s-11 20 -20 29s-20.833 16.667 -35.5 23s-32.667 9.5 -54 9.5c-29.333 0 -52.833 -7.83301 -70.5 -23.5s-26.5 -33.167 -26.5 -52.5
c0 -17.333 5.5 -31.833 16.5 -43.5s28.833 -19.834 53.5 -24.501l95 -18c34 -6 63.667 -15.833 89 -29.5s46.666 -29.834 63.999 -48.501s30.333 -39.5 39 -62.5s13 -47.167 13 -72.5s-4.66699 -50.166 -14 -74.499s-23.166 -46.666 -41.499 -66.999
s-40.833 -37.5 -67.5 -51.5s-57.334 -23.333 -92.001 -28l-24 -37c30 -1.33301 53.667 -10 71 -26s26 -36.667 26 -62c0 -11.333 -2.33301 -22.833 -7 -34.5s-12.167 -22.167 -22.5 -31.5s-24 -17 -41 -23s-37.833 -9 -62.5 -9c-29.333 0 -55 6.16699 -77 18.5
s-37.667 24.5 -47 36.5l47 59c7.33301 -7.33301 17.333 -15.5 30 -24.5s28 -13.5 46 -13.5c25.333 0 38 8.66699 38 26c0 6.66699 -3 12.5 -9 17.5s-14.667 7.5 -26 7.5c-4 0 -8.5 -0.333008 -13.5 -1s-9.5 -1.66699 -13.5 -3z" />
    <glyph glyph-name="scedilla" unicode="&#x15f;" horiz-adv-x="480" 
d="M168 -63l33.0029 51.001c-30.667 4 -56.5 11.833 -77.5 23.5s-38 25 -51 40s-22.5 30.5 -28.5 46.5s-9.33301 30.333 -10 43l129 23c1.33301 -17.333 8.16602 -32.833 20.499 -46.5s31.5 -20.5 57.5 -20.5c19.333 0 33.833 4.33301 43.5 13s14.5 18.667 14.5 30
c0 9.33301 -3.5 17.5 -10.5 24.5s-19.833 12.5 -38.5 16.5l-57 13c-26.667 6 -49.334 14 -68.001 24s-34 21.667 -46 35s-20.667 28 -26 44s-8 32.667 -8 50c0 22.667 4.66699 44 14 64s22.5 37.5 39.5 52.5s37.167 26.833 60.5 35.5s49 13 77 13c36 0 66.333 -5 91 -15
s44.834 -22.5 60.501 -37.5s27.167 -31 34.5 -48s11.666 -32.833 12.999 -47.5l-126 -23c-2 16.667 -8.5 31 -19.5 43s-28.167 18 -51.5 18c-14.667 0 -27.334 -3.83301 -38.001 -11.5s-16 -18.167 -16 -31.5c0 -10.667 3.66699 -19 11 -25s16.666 -10 27.999 -12l66 -13
c52 -10.667 90.5 -30.167 115.5 -58.5s37.5 -60.833 37.5 -97.5c0 -18.667 -3.16699 -37 -9.5 -55s-15.666 -34.333 -27.999 -49s-28 -27.334 -47 -38.001s-41.167 -18 -66.5 -22l-25 -38c30 -1.33301 53.667 -10 71 -26s26 -36.667 26 -62
c0 -11.333 -2.33301 -22.833 -7 -34.5s-12.167 -22.167 -22.5 -31.5s-24 -17 -41 -23s-37.833 -9 -62.5 -9c-29.333 0 -55 6.16699 -77 18.5s-37.667 24.5 -47 36.5l47 59c7.33301 -7.33301 17.333 -15.5 30 -24.5s28 -13.5 46 -13.5c25.333 0 38 8.66699 38 26
c0 6.66699 -3 12.5 -9 17.5s-14.667 7.5 -26 7.5c-4 0 -8.5 -0.333008 -13.5 -1s-9.5 -1.66699 -13.5 -3z" />
    <glyph glyph-name="Scaron" unicode="&#x160;" horiz-adv-x="623" 
d="M262 891l58 -65l58 65h135l-123 -132h-145l-123 132h140zM429 495c-1.33301 8 -4.16699 17.1689 -8.5 27.502s-11 20 -20 29s-20.833 16.667 -35.5 23s-32.667 9.5 -54 9.5c-29.333 0 -52.833 -7.83301 -70.5 -23.5s-26.5 -33.167 -26.5 -52.5
c0 -17.333 5.5 -31.833 16.5 -43.5s28.833 -19.834 53.5 -24.501l95 -18c34 -6 63.667 -15.833 89 -29.5s46.666 -29.834 63.999 -48.501s30.333 -39.5 39 -62.5s13 -47.167 13 -72.5c0 -28 -5.66699 -55.333 -17 -82s-28.166 -50.5 -50.499 -71.5s-49.833 -38 -82.5 -51
s-70 -19.5 -112 -19.5c-49.333 0 -91.666 7.16699 -126.999 21.5s-64.666 32.5 -87.999 54.5s-41 46.333 -53 73s-19.333 52.667 -22 78l145 35c1.33301 -16 5.16602 -31.5 11.499 -46.5s15.5 -28 27.5 -39s27 -19.833 45 -26.5s39 -10 63 -10
c31.333 0 55.833 6.83301 73.5 20.5s26.5 31.5 26.5 53.5c0 18 -6.83301 33.167 -20.5 45.5s-32.167 20.833 -55.5 25.5l-97 18c-60.667 11.333 -108 35.666 -142 72.999s-51 82.333 -51 135c0 33.333 6.83301 64 20.5 92s32.167 52 55.5 72s50.333 35.667 81 47
s63 17 97 17c44 0 81.667 -6 113 -18s57.166 -27.167 77.499 -45.5s35.833 -38.666 46.5 -60.999s18 -43.833 22 -64.5z" />
    <glyph glyph-name="scaron" unicode="&#x161;" horiz-adv-x="480" 
d="M172 707l71 -72l70 72h113l-112 -151h-145l-113 151h116zM163 164c1.33301 -17.333 8.1709 -32.832 20.5039 -46.499s31.5 -20.5 57.5 -20.5c19.333 0 33.833 4.33301 43.5 13s14.5 18.667 14.5 30c0 9.33301 -3.5 17.5 -10.5 24.5s-19.833 12.5 -38.5 16.5l-57 13
c-26.667 6 -49.334 14 -68.001 24s-34 21.667 -46 35s-20.667 28 -26 44s-8 32.667 -8 50c0 22.667 4.66699 44 14 64s22.5 37.5 39.5 52.5s37.167 26.833 60.5 35.5s49 13 77 13c36 0 66.333 -5 91 -15s44.834 -22.5 60.501 -37.5s27.167 -31 34.5 -48
s11.666 -32.833 12.999 -47.5l-126 -23c-2 16.667 -8.5 31 -19.5 43s-28.167 18 -51.5 18c-14.667 0 -27.334 -3.83301 -38.001 -11.5s-16 -18.167 -16 -31.5c0 -10.667 3.66699 -19 11 -25s16.666 -10 27.999 -12l66 -13c52 -10.667 90.5 -30.167 115.5 -58.5
s37.5 -60.833 37.5 -97.5c0 -21.333 -4 -42 -12 -62s-20.333 -37.833 -37 -53.5s-37.334 -28.334 -62.001 -38.001s-53.667 -14.5 -87 -14.5c-39.333 0 -72.166 5.5 -98.499 16.5s-47.5 24.5 -63.5 40.5s-27.833 33 -35.5 51s-11.834 34 -12.501 48z" />
    <glyph glyph-name="Tcommaaccent" unicode="&#x162;" horiz-adv-x="629" 
d="M229 -63l40 63h-34v558h-218v151h595v-151h-219v-558h-34l-32 -49c30 -1.33301 53.667 -10 71 -26s26 -36.667 26 -62c0 -11.333 -2.33301 -22.833 -7 -34.5s-12.167 -22.167 -22.5 -31.5s-24 -17 -41 -23s-37.833 -9 -62.5 -9c-29.333 0 -55 6.16699 -77 18.5
s-37.667 24.5 -47 36.5l47 59c7.33301 -7.33301 17.333 -15.5 30 -24.5s28 -13.5 46 -13.5c25.333 0 38 8.66699 38 26c0 6.66699 -3 12.5 -9 17.5s-14.667 7.5 -26 7.5c-4 0 -8.5 -0.333008 -13.5 -1s-9.5 -1.66699 -13.5 -3z" />
    <glyph glyph-name="tcommaaccent" unicode="&#x163;" horiz-adv-x="394" 
d="M155 -63l43.001 67.0029c-28.667 11.333 -50.834 29.666 -66.501 54.999s-23.5 56 -23.5 92v213h-88v133h25c26 0 45.333 7.66699 58 23s19 34.666 19 57.999v64h136v-145h97v-133h-97v-186c0 -20.667 5 -34.5 15 -41.5s23.333 -10.5 40 -10.5c8 0 15.5 0.5 22.5 1.5
s12.833 2.16699 17.5 3.5v-126c-3.33301 -1.33301 -11 -3.83301 -23 -7.5s-29 -5.83398 -51 -6.50098l-26 -40c30 -1.33301 53.667 -10 71 -26s26 -36.667 26 -62c0 -11.333 -2.33301 -22.833 -7 -34.5s-12.167 -22.167 -22.5 -31.5s-24 -17 -41 -23s-37.833 -9 -62.5 -9
c-29.333 0 -55 6.16699 -77 18.5s-37.667 24.5 -47 36.5l47 59c7.33301 -7.33301 17.333 -15.5 30 -24.5s28 -13.5 46 -13.5c25.333 0 38 8.66699 38 26c0 6.66699 -3 12.5 -9 17.5s-14.667 7.5 -26 7.5c-4 0 -8.5 -0.333008 -13.5 -1s-9.5 -1.66699 -13.5 -3z" />
    <glyph glyph-name="Tcaron" unicode="&#x164;" horiz-adv-x="629" 
d="M259 891l58 -65l58 65h135l-123 -132h-145l-123 132h140zM393 558v-558h-158v558h-218v151h595v-151h-219z" />
    <glyph glyph-name="tcaron" unicode="&#x165;" horiz-adv-x="394" 
d="M404 552h-99l29 207h145zM258 497l97 0.000976562v-133h-97v-186c0 -20.667 5 -34.5 15 -41.5s23.333 -10.5 40 -10.5c8 0 15.5 0.5 22.5 1.5s12.833 2.16699 17.5 3.5v-126c-3.33301 -1.33301 -11.333 -4 -24 -8s-31 -6 -55 -6c-52 0 -92.667 14.167 -122 42.5
s-44 67.5 -44 117.5v213h-88v133h25c26 0 45.333 7.66699 58 23s19 34.666 19 57.999v64h136v-145z" />
    <glyph glyph-name="Tbar" unicode="&#x166;" horiz-adv-x="641" 
d="M399 558v-186h128v-113h-128v-259h-158v259h-124v113h124v186h-218v151h595v-151h-219z" />
    <glyph glyph-name="tbar" unicode="&#x167;" horiz-adv-x="400" 
d="M264 497l97 0.000976562v-133h-97v-67h97v-104h-97v-15c0 -20.667 5 -34.5 15 -41.5s23.333 -10.5 40 -10.5c8 0 15.667 0.333008 23 1s13.666 1.66699 18.999 3v-125c-2 -1.33301 -9.66699 -4 -23 -8s-32.666 -6 -57.999 -6c-52 0 -92.667 14.167 -122 42.5
s-44 67.5 -44 117.5v42h-88v104h88v67h-88v133h25c26 0 45.333 7.66699 58 23s19 34.666 19 57.999v64h136v-145z" />
    <glyph glyph-name="Utilde" unicode="&#x168;" horiz-adv-x="708" 
d="M354 -16c-39.333 0 -76.001 5.83301 -110.001 17.5s-63.667 29 -89 52s-45.333 51.333 -60 85s-22 72.834 -22 117.501v453h158v-440c0 -43.333 11 -75.666 33 -96.999s52 -32 90 -32s68 10.667 90 32s33 53.666 33 96.999v440h158v-453
c0 -44.667 -7.33301 -83.834 -22 -117.501s-34.667 -62 -60 -85s-55.166 -40.333 -89.499 -52s-70.833 -17.5 -109.5 -17.5zM524.999 861c0 -18 -2.83203 -33.999 -8.49902 -47.999s-13.334 -25.5 -23.001 -34.5s-20.667 -15.833 -33 -20.5s-25.5 -7 -39.5 -7
c-15.333 0 -29.5 2.5 -42.5 7.5s-25.167 10.833 -36.5 17.5l-5 3l-25 14c-7.33301 4 -14.666 6 -21.999 6c-6.66699 0 -12.667 -2.33301 -18 -7s-8 -12 -8 -22v-13h-87v33c0 18 2.83301 33.833 8.5 47.5s13.167 25 22.5 34s20.333 15.667 33 20s25.667 6.5 39 6.5
c16 0 30.333 -2.33301 43 -7s24.667 -10.334 36 -17.001l28 -15c8.66699 -4.66699 16.667 -7 24 -7s13.666 2.33301 18.999 7s8 12 8 22v14h87v-34z" />
    <glyph glyph-name="utilde" unicode="&#x169;" horiz-adv-x="591" 
d="M385 0c-1.33301 4.66699 -2.33301 12.5 -3 23.5s-1 19.833 -1 26.5c-13.333 -21.333 -32.5 -36.833 -57.5 -46.5s-50.167 -14.5 -75.5 -14.5c-30 0 -56.833 5.16699 -80.5 15.5s-43.5 24.333 -59.5 42s-28.167 38.167 -36.5 61.5s-12.5 48.333 -12.5 75v314h152v-282
c0 -24 6.5 -44.333 19.5 -61s33.167 -25 60.5 -25c25.333 0 45.5 7.83301 60.5 23.5s22.5 36.167 22.5 61.5v283h152v-408c0 -22.667 0.666992 -42.167 2 -58.5s2.33301 -26.5 3 -30.5h-146zM480 686c0 -44 -10.5 -76.666 -31.5 -97.999s-47.833 -32 -80.5 -32
c-15.333 0 -29 2.33301 -41 7s-23.667 10 -35 16c-10 5.33301 -19.5 10.166 -28.5 14.499s-18.167 6.5 -27.5 6.5c-10 0 -18 -3.33301 -24 -10s-9.33301 -17.667 -10 -33h-86v23c0 42.667 11 74.5 33 95.5s48.667 31.5 80 31.5c15.333 0 29 -2.33301 41 -7
s23.667 -10 35 -16c10 -6 19.333 -11.167 28 -15.5s17.667 -6.5 27 -6.5c22 0 33.667 14.667 35 44h85v-20z" />
    <glyph glyph-name="Umacron" unicode="&#x16a;" horiz-adv-x="708" 
d="M354 -16c-39.333 0 -76.001 5.83301 -110.001 17.5s-63.667 29 -89 52s-45.333 51.333 -60 85s-22 72.834 -22 117.501v453h158v-440c0 -43.333 11 -75.666 33 -96.999s52 -32 90 -32s68 10.667 90 32s33 53.666 33 96.999v440h158v-453
c0 -44.667 -7.33301 -83.834 -22 -117.501s-34.667 -62 -60 -85s-55.166 -40.333 -89.499 -52s-70.833 -17.5 -109.5 -17.5zM199.999 771v109h311v-109h-311z" />
    <glyph glyph-name="umacron" unicode="&#x16b;" horiz-adv-x="591" 
d="M385 0c-1.33301 4.66699 -2.33301 12.5 -3 23.5s-1 19.833 -1 26.5c-13.333 -21.333 -32.5 -36.833 -57.5 -46.5s-50.167 -14.5 -75.5 -14.5c-30 0 -56.833 5.16699 -80.5 15.5s-43.5 24.333 -59.5 42s-28.167 38.167 -36.5 61.5s-12.5 48.333 -12.5 75v314h152v-282
c0 -24 6.5 -44.333 19.5 -61s33.167 -25 60.5 -25c25.333 0 45.5 7.83301 60.5 23.5s22.5 36.167 22.5 61.5v283h152v-408c0 -22.667 0.666992 -42.167 2 -58.5s2.33301 -26.5 3 -30.5h-146zM150 577v105h286v-105h-286z" />
    <glyph glyph-name="Ubreve" unicode="&#x16c;" horiz-adv-x="708" 
d="M354 -16c-39.333 0 -76.001 5.83301 -110.001 17.5s-63.667 29 -89 52s-45.333 51.333 -60 85s-22 72.834 -22 117.501v453h158v-440c0 -43.333 11 -75.666 33 -96.999s52 -32 90 -32s68 10.667 90 32s33 53.666 33 96.999v440h158v-453
c0 -44.667 -7.33301 -83.834 -22 -117.501s-34.667 -62 -60 -85s-55.166 -40.333 -89.499 -52s-70.833 -17.5 -109.5 -17.5zM353.999 753c-28 0 -52.3291 4 -72.9961 12s-37.834 18.5 -51.501 31.5s-24 27.833 -31 44.5s-10.833 33.334 -11.5 50.001h113
c0.666992 -14.667 5.5 -26.667 14.5 -36s22.167 -14 39.5 -14s30.666 4.66699 39.999 14s14.333 21.333 15 36h112c-0.666992 -16.667 -4.33398 -33.334 -11.001 -50.001s-16.834 -31.5 -30.501 -44.5s-31 -23.5 -52 -31.5s-45.5 -12 -73.5 -12z" />
    <glyph glyph-name="ubreve" unicode="&#x16d;" horiz-adv-x="591" 
d="M385 0c-1.33301 4.66699 -2.33301 12.5 -3 23.5s-1 19.833 -1 26.5c-13.333 -21.333 -32.5 -36.833 -57.5 -46.5s-50.167 -14.5 -75.5 -14.5c-30 0 -56.833 5.16699 -80.5 15.5s-43.5 24.333 -59.5 42s-28.167 38.167 -36.5 61.5s-12.5 48.333 -12.5 75v314h152v-282
c0 -24 6.5 -44.333 19.5 -61s33.167 -25 60.5 -25c25.333 0 45.5 7.83301 60.5 23.5s22.5 36.167 22.5 61.5v283h152v-408c0 -22.667 0.666992 -42.167 2 -58.5s2.33301 -26.5 3 -30.5h-146zM289 551c-27.333 0 -51.5 4.33301 -72.5 13s-38.5 20.167 -52.5 34.5
s-24.5 30.833 -31.5 49.5s-10.833 38.334 -11.5 59.001h96c1.33301 -13.333 7.33301 -26 18 -38s28.667 -18 54 -18s43.333 6 54 18s16.667 24.667 18 38h97c-0.666992 -20.667 -4.66699 -40.334 -12 -59.001s-18 -35.167 -32 -49.5s-31.333 -25.833 -52 -34.5
s-45 -13 -73 -13z" />
    <glyph glyph-name="Uring" unicode="&#x16e;" horiz-adv-x="708" 
d="M354 -16c-39.333 0 -76.001 5.83301 -110.001 17.5s-63.667 29 -89 52s-45.333 51.333 -60 85s-22 72.834 -22 117.501v453h158v-440c0 -43.333 11 -75.666 33 -96.999s52 -32 90 -32s68 10.667 90 32s33 53.666 33 96.999v440h158v-453
c0 -44.667 -7.33301 -83.834 -22 -117.501s-34.667 -62 -60 -85s-55.166 -40.333 -89.499 -52s-70.833 -17.5 -109.5 -17.5zM494.999 862c0 -20 -3.83301 -38.333 -11.5 -55s-18 -31 -31 -43s-28 -21.333 -45 -28s-34.833 -10 -53.5 -10s-36.334 3.33301 -53.001 10
s-31.5 16 -44.5 28s-23.333 26.333 -31 43s-11.5 35 -11.5 55s3.83301 38.333 11.5 55s18 31.167 31 43.5s27.833 21.833 44.5 28.5s34.334 10 53.001 10s36.5 -3.33301 53.5 -10s32 -16.167 45 -28.5s23.333 -26.833 31 -43.5s11.5 -35 11.5 -55zM401.999 862
c0 15.333 -4.66699 27.166 -14 35.499s-20.333 12.5 -33 12.5c-13.333 0 -24.833 -4.16699 -34.5 -12.5s-14.5 -20.166 -14.5 -35.499s4.83301 -27 14.5 -35s21.167 -12 34.5 -12c12.667 0 23.667 4 33 12s14 19.667 14 35z" />
    <glyph glyph-name="uring" unicode="&#x16f;" horiz-adv-x="591" 
d="M410 652c0 -16.667 -3.16699 -31.834 -9.5 -45.501s-14.833 -25.334 -25.5 -35.001s-23 -17.167 -37 -22.5s-28.667 -8 -44 -8s-30 2.66699 -44 8s-26.333 12.833 -37 22.5s-19.167 21.334 -25.5 35.001s-9.5 28.834 -9.5 45.501s3.16699 31.834 9.5 45.501
s14.833 25.5 25.5 35.5s23 17.833 37 23.5s28.667 8.5 44 8.5s30 -2.83301 44 -8.5s26.333 -13.5 37 -23.5s19.167 -21.833 25.5 -35.5s9.5 -28.834 9.5 -45.501zM331 652c0 11.333 -3.5 20.5 -10.5 27.5s-15.833 10.5 -26.5 10.5s-19.5 -3.5 -26.5 -10.5
s-10.5 -16.167 -10.5 -27.5s3.5 -20.5 10.5 -27.5s15.833 -10.5 26.5 -10.5s19.5 3.5 26.5 10.5s10.5 16.167 10.5 27.5zM385 0c-1.33301 4.66699 -2.33301 12.5 -3 23.5s-1 19.833 -1 26.5c-13.333 -21.333 -32.5 -36.833 -57.5 -46.5s-50.167 -14.5 -75.5 -14.5
c-30 0 -56.833 5.16699 -80.5 15.5s-43.5 24.333 -59.5 42s-28.167 38.167 -36.5 61.5s-12.5 48.333 -12.5 75v314h152v-282c0 -24 6.5 -44.333 19.5 -61s33.167 -25 60.5 -25c25.333 0 45.5 7.83301 60.5 23.5s22.5 36.167 22.5 61.5v283h152v-408
c0 -22.667 0.666992 -42.167 2 -58.5s2.33301 -26.5 3 -30.5h-146z" />
    <glyph glyph-name="Uhungarumlaut" unicode="&#x170;" horiz-adv-x="708" 
d="M311 759h-94l48 132h139zM475 759h-96l65 132h141zM354 -16c-39.333 0 -76.001 5.83301 -110.001 17.5s-63.667 29 -89 52s-45.333 51.333 -60 85s-22 72.834 -22 117.501v453h158v-440c0 -43.333 11 -75.666 33 -96.999s52 -32 90 -32s68 10.667 90 32
s33 53.666 33 96.999v440h158v-453c0 -44.667 -7.33301 -83.834 -22 -117.501s-34.667 -62 -60 -85s-55.166 -40.333 -89.499 -52s-70.833 -17.5 -109.5 -17.5z" />
    <glyph glyph-name="uhungarumlaut" unicode="&#x171;" horiz-adv-x="591" 
d="M385 0c-1.33301 4.66699 -2.33301 12.5 -3 23.5s-1 19.833 -1 26.5c-13.333 -21.333 -32.5 -36.833 -57.5 -46.5s-50.167 -14.5 -75.5 -14.5c-30 0 -56.833 5.16699 -80.5 15.5s-43.5 24.333 -59.5 42s-28.167 38.167 -36.5 61.5s-12.5 48.333 -12.5 75v314h152v-282
c0 -24 6.5 -44.333 19.5 -61s33.167 -25 60.5 -25c25.333 0 45.5 7.83301 60.5 23.5s22.5 36.167 22.5 61.5v283h152v-408c0 -22.667 0.666992 -42.167 2 -58.5s2.33301 -26.5 3 -30.5h-146zM238 556h-92l53 151h141zM400 556h-93l69 151h142z" />
    <glyph glyph-name="Uogonek" unicode="&#x172;" horiz-adv-x="708" 
d="M406 -226c-38 0 -68.502 9.83301 -91.502 29.5s-34.5 46.167 -34.5 79.5c0 24 5 44.167 15 60.5s21.667 30.166 35 41.499c-36 2 -69.667 9.33301 -101 22s-58.5 30.334 -81.5 53.001s-41.167 50.5 -54.5 83.5s-20 70.5 -20 112.5v453h158v-440
c0 -43.333 11 -75.666 33 -96.999s52 -32 90 -32s68 10.667 90 32s33 53.666 33 96.999v440h158v-453c0 -34 -4.5 -64.833 -13.5 -92.5s-21.333 -52.167 -37 -73.5s-34.167 -39.5 -55.5 -54.5s-44.666 -26.833 -69.999 -35.5c-9.33301 -3.33301 -18.666 -8 -27.999 -14
s-17.5 -13 -24.5 -21s-12.667 -16.5 -17 -25.5s-6.5 -18.5 -6.5 -28.5c0 -15.333 4.33301 -27 13 -35s20 -12 34 -12h12.5c3.66699 0 9.16699 0.666992 16.5 2v-84c-14 -5.33301 -31.667 -8 -53 -8z" />
    <glyph glyph-name="uogonek" unicode="&#x173;" horiz-adv-x="591" 
d="M352 -117c0 30 7.49902 54.3291 22.499 72.9961s31.5 33.334 49.5 44.001h-39c-1.33301 4.66699 -2.33301 12.5 -3 23.5s-1 19.833 -1 26.5c-13.333 -21.333 -32.5 -36.833 -57.5 -46.5s-50.167 -14.5 -75.5 -14.5c-30 0 -56.833 5.16699 -80.5 15.5
s-43.5 24.333 -59.5 42s-28.167 38.167 -36.5 61.5s-12.5 48.333 -12.5 75v314h152v-282c0 -24 6.5 -44.333 19.5 -61s33.167 -25 60.5 -25c25.333 0 45.5 7.83301 60.5 23.5s22.5 36.167 22.5 61.5v283h152v-408c0 -23.333 0.666992 -42.666 2 -57.999
s2.33301 -25.666 3 -30.999c-19.333 -9.33301 -36.833 -22.166 -52.5 -38.499s-23.5 -34.5 -23.5 -54.5c0 -14 4.5 -24.667 13.5 -32s20.167 -11 33.5 -11c6.66699 0 12.334 0.166992 17.001 0.5s8.66699 0.833008 12 1.5v-84c-14 -5.33301 -31.667 -8 -53 -8
c-38 0 -68.5 9.83301 -91.5 29.5s-34.5 46.167 -34.5 79.5z" />
    <glyph glyph-name="Wcircumflex" unicode="&#x174;" horiz-adv-x="1052" 
d="M330 759l122 132h145l124 -132h-141l-58 65l-57 -65h-135zM873 709h162l-193 -709h-163l-151 470l-152 -470h-166l-193 709h168l117 -454l147 454h162l147 -455z" />
    <glyph glyph-name="wcircumflex" unicode="&#x175;" horiz-adv-x="862" 
d="M249 556l113 151h143l114 -151h-116l-71 71l-70 -71h-113zM516 497l97 -295l83 295h149l-154 -497h-151l-108 321l-106 -321h-154l-156 497h158l83 -294l98 294h161z" />
    </font>
</defs>
</svg>
