<svg width="842" height="179" viewBox="0 0 842 179" fill="none" xmlns="http://www.w3.org/2000/svg">
<path d="M351.2 143.71C363.948 122.618 376.207 115.041 386.337 115.203C396.577 115.367 408.651 123.468 420.885 143.71L432.867 136.469C419.947 115.092 404.306 101.488 386.561 101.204C368.705 100.919 352.707 114.151 339.219 136.469L351.2 143.71ZM420.885 143.71C433.912 165.264 449.93 178.243 467.789 178.2C485.632 178.156 501.594 165.118 514.533 143.71L502.552 136.469C490.503 156.403 478.21 164.174 467.755 164.2C457.316 164.225 444.994 156.534 432.867 136.469L420.885 143.71ZM514.533 143.71C526.496 123.918 538.983 116.47 549.604 116.598C560.303 116.727 572.65 124.569 584.219 143.71L596.2 136.469C583.614 115.645 567.621 102.815 549.773 102.599C531.846 102.383 515.577 114.918 502.552 136.469L514.533 143.71ZM584.219 143.71C596.84 164.593 612.962 177.214 630.844 177.321C648.766 177.429 665.026 164.957 677.867 143.71L665.885 136.469C654.156 155.876 641.659 163.386 630.929 163.321C620.159 163.257 607.733 155.55 596.2 136.469L584.219 143.71ZM677.867 143.71C689.449 124.546 702.273 117.572 713.31 117.902C724.53 118.238 736.986 126.185 747.548 143.704L759.537 136.475C747.689 116.824 731.597 104.444 713.729 103.909C695.678 103.368 678.874 114.978 665.885 136.469L677.867 143.71ZM747.548 143.704C759.153 162.952 774.387 176.748 792.021 178.02C810.131 179.326 826.997 167.266 841.204 143.704L829.215 136.475C816.073 158.272 803.311 164.798 793.028 164.056C782.268 163.28 770.343 154.397 759.537 136.475L747.548 143.704Z" fill="#C852FF"/>
<path d="M349.47 58.1998C362.306 37.2998 375.096 29.0253 386.37 29.2029C397.72 29.3816 410.3 38.1476 422.615 58.1998L431.137 52.9665C418.298 32.0607 403.163 19.4661 386.527 19.2041C369.816 18.9409 354.35 31.1454 340.949 52.9665L349.47 58.1998ZM422.615 58.1998C435.532 79.2312 451.024 91.2401 467.784 91.1999C484.532 91.1598 499.974 79.0902 512.803 58.1998L504.282 52.9665C492.124 72.7628 479.309 81.1723 467.76 81.1999C456.221 81.2276 443.374 72.8931 431.137 52.9665L422.615 58.1998ZM512.803 58.1998C524.899 38.5041 537.924 30.4373 549.629 30.5763C561.388 30.716 574.252 39.1547 585.949 58.1998L594.47 52.9665C582.012 32.6811 566.536 20.7764 549.748 20.577C532.905 20.377 517.173 31.9755 504.282 52.9665L512.803 58.1998ZM585.949 58.1998C598.433 78.5272 614.029 90.2357 630.857 90.3352C647.711 90.4349 663.436 78.8801 676.137 58.1998L667.615 52.9665C655.745 72.2948 642.714 80.4052 630.916 80.3354C619.092 80.2654 606.141 71.9696 594.47 52.9665L585.949 58.1998ZM676.137 58.1998C687.901 39.0437 701.291 31.5043 713.372 31.8603C725.579 32.22 738.55 40.6831 749.279 58.1952L757.806 52.9711C746.124 33.9032 730.548 22.3621 713.667 21.8646C696.659 21.3634 680.422 32.1141 667.615 52.9665L676.137 58.1998ZM749.279 58.1952C760.786 76.9777 775.552 89.8487 792.17 91.0281C809.117 92.2308 825.398 81.1682 839.473 58.1952L830.946 52.9711C817.672 74.6381 804.325 81.8655 792.878 81.0532C781.104 80.2176 768.71 70.7686 757.806 52.9711L749.279 58.1952Z" fill="#5278FF"/>
<path d="M775.569 60.8C775.462 67.2 775.409 77.0133 775.409 90.24C775.409 106.133 775.515 117.653 775.729 124.8H737.969L738.129 106.72C738.342 86.88 738.449 71.5733 738.449 60.8C738.449 50.56 738.342 36.0533 738.129 17.28L737.969 0H775.729C775.515 15.1467 775.409 27.52 775.409 37.12C775.409 47.7867 775.462 55.68 775.569 60.8Z" fill="white"/>
<path d="M578.019 99.52L591.779 36.8H623.619L605.859 124.16H563.139L553.059 83.36L541.699 124.16H500.579L482.819 36.8H514.659L528.259 99.36L537.539 36.8H569.059L578.019 99.52Z" fill="white"/>
<path d="M706.449 84.76H654.289C655.143 89.4533 657.223 93.2933 660.529 96.28C663.943 99.16 668.743 100.6 674.929 100.6C679.409 100.6 683.623 99.7467 687.569 98.04C691.516 96.2267 694.663 93.72 697.009 90.52C704.156 94.04 713.649 97.8267 725.489 101.88C722.183 109.347 716.156 115.32 707.409 119.8C698.769 124.173 687.463 126.36 673.489 126.36C655.356 126.36 641.916 122.2 633.169 113.88C624.529 105.453 620.209 94.4133 620.209 80.76C620.209 67.4267 624.529 56.6 633.169 48.28C641.809 39.96 655.249 35.8 673.489 35.8C684.369 35.8 693.809 37.6133 701.809 41.24C709.809 44.8667 715.943 49.9333 720.209 56.44C724.476 62.84 726.609 70.2 726.609 78.52C726.609 81.2933 726.503 83.3733 726.289 84.76H706.449ZM675.729 59.96C670.396 59.96 666.023 60.9733 662.609 63C659.196 65.0267 656.796 67.8 655.409 71.32H693.169C691.889 67.9067 689.809 65.1867 686.929 63.16C684.049 61.0267 680.316 59.96 675.729 59.96Z" fill="white"/>
<path d="M194.333 126.4C176.093 126.4 162.653 122.24 154.013 113.92C145.479 105.493 141.213 94.4533 141.213 80.8C141.213 67.4667 145.479 56.64 154.013 48.32C162.653 40 176.093 35.84 194.333 35.84C206.599 35.84 216.839 37.8666 225.053 41.92C233.373 45.8666 239.506 51.2533 243.453 58.08C247.399 64.8 249.373 72.3733 249.373 80.8C249.373 94.56 244.786 105.6 235.613 113.92C226.546 122.24 212.786 126.4 194.333 126.4ZM194.973 99.2C201.906 99.2 207.079 97.5467 210.493 94.24C213.906 90.9333 215.613 86.5067 215.613 80.96C215.613 75.7333 213.906 71.4667 210.493 68.16C207.079 64.7467 201.906 63.04 194.973 63.04C188.039 63.04 182.973 64.6933 179.773 68C176.573 71.3067 174.973 75.6267 174.973 80.96C174.973 86.5067 176.573 90.9333 179.773 94.24C182.973 97.5467 188.039 99.2 194.973 99.2Z" fill="white"/>
<path d="M350.322 100.723C363.101 79.9152 375.624 72.0337 386.354 72.2027C397.176 72.3732 409.501 80.7563 421.763 100.723L431.989 94.4432C419.097 73.452 403.707 60.4746 386.543 60.2042C369.288 59.9325 353.554 72.53 340.097 94.4432L350.322 100.723ZM421.763 100.723C434.747 121.865 450.504 134.241 467.786 134.2C485.054 134.159 500.759 121.723 513.655 100.723L503.43 94.4432C491.339 114.13 478.787 122.174 467.757 122.2C456.741 122.226 444.159 114.259 431.989 94.4432L421.763 100.723ZM513.655 100.723C525.672 81.1569 538.426 73.4433 549.617 73.5762C560.873 73.7099 573.476 81.8021 585.097 100.723L595.322 94.4432C582.788 74.0337 567.051 61.7825 549.76 61.5771C532.403 61.371 516.401 73.3226 503.43 94.4432L513.655 100.723ZM585.097 100.723C597.662 121.183 613.523 133.233 630.851 133.335C648.211 133.438 664.205 121.539 676.989 100.723L666.763 94.4432C654.976 113.636 642.214 121.402 630.922 121.335C619.598 121.268 606.911 113.314 595.322 94.4432L585.097 100.723ZM676.989 100.723C688.649 81.7366 701.755 74.5184 713.343 74.8598C725.082 75.2058 737.793 83.3611 748.427 100.718L758.659 94.4487C746.882 75.2252 731.045 63.3763 713.696 62.865C696.196 62.3494 679.674 73.4211 666.763 94.4432L676.989 100.723ZM748.427 100.718C759.994 119.599 774.996 132.812 792.1 134.026C809.597 135.267 826.171 123.821 840.326 100.718L830.093 94.4487C816.899 115.985 803.845 122.829 792.949 122.056C781.659 121.254 769.502 112.148 758.659 94.4487L748.427 100.718Z" fill="#52FF82"/>
<path d="M51.2 6.87999C71.2533 6.87999 87.0933 9.33332 98.72 14.24C110.347 19.04 118.453 25.76 123.04 34.4C127.733 42.9333 130.08 53.44 130.08 65.92C130.08 77.76 127.413 88.1067 122.08 96.96C116.747 105.813 108.747 112.693 98.08 117.6C87.4133 122.4 74.2933 124.8 58.72 124.8C49.2267 124.8 39.5733 124.8 29.76 124.8C19.9467 124.8 10.0267 124.747 0 124.64C0.853333 103.627 1.28 84.0533 1.28 65.92C1.28 47.5733 0.853333 28.4267 0 8.47999C12.6933 7.41332 29.76 6.87999 51.2 6.87999ZM63.2 92.96C73.12 92.96 79.7333 90.56 83.04 85.76C86.3467 80.96 88 74.3467 88 65.92C88 57.8133 86.24 51.2533 82.72 46.24C79.3067 41.2267 72.8 38.72 63.2 38.72C52.8533 38.72 45.12 39.04 40 39.68V92.96H63.2Z" fill="white"/>
<path d="M464.328 84.76H412.168C413.021 89.4533 415.101 93.2933 418.408 96.28C421.821 99.16 426.621 100.6 432.808 100.6C437.288 100.6 441.501 99.7467 445.448 98.04C449.394 96.2267 452.541 93.72 454.888 90.52C462.034 94.04 471.528 97.8267 483.368 101.88C480.061 109.347 474.034 115.32 465.288 119.8C456.648 124.173 445.341 126.36 431.368 126.36C413.234 126.36 399.794 122.2 391.048 113.88C382.408 105.453 378.088 94.4133 378.088 80.76C378.088 67.4267 382.408 56.6 391.048 48.28C399.688 39.96 413.128 35.8 431.368 35.8C442.248 35.8 451.688 37.6133 459.688 41.24C467.688 44.8667 473.821 49.9333 478.088 56.44C482.354 62.84 484.488 70.2 484.488 78.52C484.488 81.2933 484.381 83.3733 484.168 84.76H464.328ZM433.608 59.96C428.274 59.96 423.901 60.9733 420.488 63C417.074 65.0267 414.674 67.8 413.288 71.32H451.048C449.768 67.9067 447.688 65.1867 444.808 63.16C441.928 61.0267 438.194 59.96 433.608 59.96Z" fill="white"/>
<path d="M826.194 60.8C826.087 67.2 826.034 77.0133 826.034 90.24C826.034 106.133 826.14 117.653 826.354 124.8H788.594L788.754 106.72C788.967 86.88 789.074 71.5733 789.074 60.8C789.074 50.56 788.967 36.0533 788.754 17.28L788.594 0H826.354C826.14 15.1467 826.034 27.52 826.034 37.12C826.034 47.7867 826.087 55.68 826.194 60.8Z" fill="white"/>
<path d="M336.145 37.44H366.865C366.332 54.9333 366.065 79.7866 366.065 112C366.065 124.693 363.505 135.093 358.385 143.2C353.372 151.307 346.705 157.173 338.385 160.8C330.065 164.533 320.785 166.4 310.545 166.4C300.412 166.4 291.345 164.907 283.345 161.92C275.345 159.04 269.265 155.147 265.105 150.24L272.305 125.76C278.065 129.067 283.505 131.413 288.625 132.8C293.745 134.293 299.078 135.04 304.625 135.04C322.758 135.04 331.825 127.36 331.825 112C331.825 109.76 331.878 108.16 331.985 107.2C331.985 106.56 331.985 105.707 331.985 104.64C332.092 103.573 332.092 102.187 331.985 100.48C326.545 115.627 315.025 123.2 297.425 123.2C290.278 123.2 283.878 121.28 278.225 117.44C272.678 113.6 268.358 108.427 265.265 101.92C262.172 95.3066 260.625 88.0533 260.625 80.16C260.625 72.0533 262.172 64.64 265.265 57.92C268.358 51.0933 272.678 45.7066 278.225 41.76C283.772 37.8133 290.012 35.84 296.945 35.84C314.972 35.84 326.705 42.1867 332.145 54.88L336.145 37.44ZM314.065 97.6C316.518 97.6 319.078 97.0667 321.745 96C324.412 94.8267 326.705 93.0133 328.625 90.56C330.545 88 331.505 84.8533 331.505 81.12C331.505 74.5067 330.012 69.8133 327.025 67.04C324.038 64.16 319.612 62.72 313.745 62.72C308.625 62.72 304.572 64.4266 301.585 67.84C298.598 71.2533 297.105 75.68 297.105 81.12C297.105 86.0267 298.705 90.0266 301.905 93.12C305.212 96.1066 309.265 97.6 314.065 97.6Z" fill="white"/>
</svg>
