<svg width="34" height="34" viewBox="0 0 34 34" fill="none" xmlns="http://www.w3.org/2000/svg">
<rect y="0" width="34" height="34" rx="8" fill="#fff"/>
<path d="M11.0155 9.41881C12.5005 8.33426 14.2524 7.66685 16.0877 7.5V10.52C14.9031 10.6702 13.7852 11.1207 12.8175 11.8382C11.6162 12.7392 10.7152 13.9906 10.2814 15.4255C9.84759 16.8605 9.88096 18.3955 10.3815 19.8137C10.8821 21.232 11.8331 22.45 13.0845 23.2843C14.3358 24.1186 15.8208 24.5357 17.3224 24.4689C18.824 24.4022 20.259 23.8516 21.4269 22.9005C22.5948 21.9495 23.4124 20.648 23.7795 19.1964C24.0297 18.1786 24.0631 17.1274 23.8629 16.1096L26.399 14.074V14.0573C27.0831 15.9428 27.1832 17.9951 26.6993 19.9472C26.1654 22.0329 24.9975 23.885 23.329 25.2365C21.6605 26.588 19.6082 27.3889 17.4726 27.489C15.3369 27.5891 13.2012 27.0051 11.4327 25.8038C9.64737 24.6024 8.29589 22.8672 7.57844 20.8482C6.86099 18.8293 6.81094 16.6269 7.42828 14.5746C8.02894 12.5056 9.29699 10.7036 11.0155 9.41881Z" fill="#FCCA00"/>
<path d="M23.9832 11.6475L24 11.6803L22.2844 14.3197C21.6621 13.418 20.8379 12.6803 19.8624 12.1393V18.1557C19.8624 20.0082 18.3318 21.5 16.4312 21.5C14.5306 21.5 13 20.0082 13 18.1557C13 16.3033 14.5306 14.8115 16.4312 14.8115C17.1376 14.8115 17.7936 15.0246 18.3486 15.3852V8.5C20.5688 8.92623 22.5367 10.0574 23.9832 11.6475Z" fill="#FC3F1D"/>
</svg>
