<svg xmlns="http://www.w3.org/2000/svg" xmlns:xlink="http://www.w3.org/1999/xlink" width="500" height="500" viewBox="0 0 500 500"><defs><style>.a{clip-path:url(#f);}.b{fill:url(#a);}.c{fill:#bb58bb;}.c,.d,.e,.f,.g{fill-rule:evenodd;}.d{fill:url(#b);}.e{fill:url(#c);}.f{fill:url(#d);}.g{fill:#fff;}</style><linearGradient id="a" x1="0.5" x2="0.5" y2="1" gradientUnits="objectBoundingBox"><stop offset="0" stop-color="#fd5062"/><stop offset="1" stop-color="#fe273e"/></linearGradient><radialGradient id="b" cx="0.213" cy="0.892" r="0.632" gradientTransform="matrix(0, 1, 1.25, 0, 9.044, -5.905)" gradientUnits="objectBoundingBox"><stop offset="0" stop-color="#7470f9"/><stop offset="1" stop-color="#7a70fe" stop-opacity="0"/></radialGradient><radialGradient id="c" cx="0.835" cy="0.748" r="0.51" gradientTransform="matrix(-0.335, -0.963, -1.205, 0.268, -26.341, -17.228)" gradientUnits="objectBoundingBox"><stop offset="0" stop-color="#4ca3f8"/><stop offset="0.362" stop-color="#4ca4f7"/><stop offset="1" stop-color="#4aa2f9" stop-opacity="0"/></radialGradient><linearGradient id="d" x1="-6.912" y1="-13.236" x2="-6.906" y2="-13.247" gradientUnits="objectBoundingBox"><stop offset="0" stop-color="#ff6380"/><stop offset="1" stop-color="#f65e79" stop-opacity="0"/></linearGradient><clipPath id="f"><rect width="500" height="500"/></clipPath></defs><g id="e" class="a"><rect class="b" width="500" height="500" rx="115"/><g transform="translate(124.901 116.078)"><path class="c" d="M238.19,198.082v11.712a126.936,126.936,0,0,1-2.008,22.421,28.557,28.557,0,0,1-12.047,18.74H223.8a41.347,41.347,0,0,1-23.09,8.366l-6.358.669a31.924,31.924,0,0,1-26.437-11.378,29.378,29.378,0,0,1-4.685-29.448v-.335a30.949,30.949,0,0,1,21.752-19.409l25.1-6.693a14.376,14.376,0,0,0,11.043-14.055V161.607h0V89.659a5.4,5.4,0,0,0-2.008-4.35,5.808,5.808,0,0,0-4.685-1L107.346,106.057a7.95,7.95,0,0,0-6.693,8.031V228.535h0V236.9a126.938,126.938,0,0,1-2.008,22.421A28.557,28.557,0,0,1,86.6,278.061h-.335a41.346,41.346,0,0,1-23.09,8.366l-6.024.335a31.924,31.924,0,0,1-26.437-11.378,29.378,29.378,0,0,1-4.685-29.448V245.6A30.949,30.949,0,0,1,47.78,226.192l25.1-6.693a14.376,14.376,0,0,0,11.043-14.055V188.378h0V55.526A12.443,12.443,0,0,1,93.96,43.479L228.15,19.05a10.521,10.521,0,0,1,7.027,1.673,8.241,8.241,0,0,1,3.012,6.358Z" transform="translate(-23.991 -18.979)"/><path class="d" d="M238.19,198.082v11.712a126.936,126.936,0,0,1-2.008,22.421,28.557,28.557,0,0,1-12.047,18.74H223.8a41.347,41.347,0,0,1-23.09,8.366l-6.358.669a31.924,31.924,0,0,1-26.437-11.378,29.378,29.378,0,0,1-4.685-29.448v-.335a30.949,30.949,0,0,1,21.752-19.409l25.1-6.693a14.376,14.376,0,0,0,11.043-14.055V161.607h0V89.659a5.4,5.4,0,0,0-2.008-4.35,5.808,5.808,0,0,0-4.685-1L107.346,106.057a7.95,7.95,0,0,0-6.693,8.031V228.535h0V236.9a126.938,126.938,0,0,1-2.008,22.421A28.557,28.557,0,0,1,86.6,278.061h-.335a41.346,41.346,0,0,1-23.09,8.366l-6.024.335a31.924,31.924,0,0,1-26.437-11.378,29.378,29.378,0,0,1-4.685-29.448V245.6A30.949,30.949,0,0,1,47.78,226.192l25.1-6.693a14.376,14.376,0,0,0,11.043-14.055V188.378h0V55.526A12.443,12.443,0,0,1,93.96,43.479L228.15,19.05a10.521,10.521,0,0,1,7.027,1.673,8.241,8.241,0,0,1,3.012,6.358Z" transform="translate(-23.991 -18.979)"/><path class="e" d="M238.19,198.082v11.712a126.936,126.936,0,0,1-2.008,22.421,28.557,28.557,0,0,1-12.047,18.74H223.8a41.347,41.347,0,0,1-23.09,8.366l-6.358.669a31.924,31.924,0,0,1-26.437-11.378,29.378,29.378,0,0,1-4.685-29.448v-.335a30.949,30.949,0,0,1,21.752-19.409l25.1-6.693a14.376,14.376,0,0,0,11.043-14.055V161.607h0V89.659a5.4,5.4,0,0,0-2.008-4.35,5.808,5.808,0,0,0-4.685-1L107.346,106.057a7.95,7.95,0,0,0-6.693,8.031V228.535h0V236.9a126.938,126.938,0,0,1-2.008,22.421A28.557,28.557,0,0,1,86.6,278.061h-.335a41.346,41.346,0,0,1-23.09,8.366l-6.024.335a31.924,31.924,0,0,1-26.437-11.378,29.378,29.378,0,0,1-4.685-29.448V245.6A30.949,30.949,0,0,1,47.78,226.192l25.1-6.693a14.376,14.376,0,0,0,11.043-14.055V188.378h0V55.526A12.443,12.443,0,0,1,93.96,43.479L228.15,19.05a10.521,10.521,0,0,1,7.027,1.673,8.241,8.241,0,0,1,3.012,6.358Z" transform="translate(-23.991 -18.979)"/><path class="f" d="M238.19,198.082v11.712a126.936,126.936,0,0,1-2.008,22.421,28.557,28.557,0,0,1-12.047,18.74H223.8a41.347,41.347,0,0,1-23.09,8.366l-6.358.669a31.924,31.924,0,0,1-26.437-11.378,29.378,29.378,0,0,1-4.685-29.448v-.335a30.949,30.949,0,0,1,21.752-19.409l25.1-6.693a14.376,14.376,0,0,0,11.043-14.055V161.607h0V89.659a5.4,5.4,0,0,0-2.008-4.35,5.808,5.808,0,0,0-4.685-1L107.346,106.057a7.95,7.95,0,0,0-6.693,8.031V228.535h0V236.9a126.938,126.938,0,0,1-2.008,22.421A28.557,28.557,0,0,1,86.6,278.061h-.335a41.346,41.346,0,0,1-23.09,8.366l-6.024.335a31.924,31.924,0,0,1-26.437-11.378,29.378,29.378,0,0,1-4.685-29.448V245.6A30.949,30.949,0,0,1,47.78,226.192l25.1-6.693a14.376,14.376,0,0,0,11.043-14.055V188.378h0V55.526A12.443,12.443,0,0,1,93.96,43.479L228.15,19.05a10.521,10.521,0,0,1,7.027,1.673,8.241,8.241,0,0,1,3.012,6.358Z" transform="translate(-23.991 -18.979)"/><path class="g" d="M238.19,198.082v11.712a126.936,126.936,0,0,1-2.008,22.421,28.557,28.557,0,0,1-12.047,18.74H223.8a41.347,41.347,0,0,1-23.09,8.366l-6.358.669a31.924,31.924,0,0,1-26.437-11.378,29.378,29.378,0,0,1-4.685-29.448v-.335a30.949,30.949,0,0,1,21.752-19.409l25.1-6.693a14.376,14.376,0,0,0,11.043-14.055V161.607h0V89.659a5.4,5.4,0,0,0-2.008-4.35,5.808,5.808,0,0,0-4.685-1L107.346,106.057a7.95,7.95,0,0,0-6.693,8.031V228.535h0V236.9a126.938,126.938,0,0,1-2.008,22.421A28.557,28.557,0,0,1,86.6,278.061h-.335a41.346,41.346,0,0,1-23.09,8.366l-6.024.335a31.924,31.924,0,0,1-26.437-11.378,29.378,29.378,0,0,1-4.685-29.448V245.6A30.949,30.949,0,0,1,47.78,226.192l25.1-6.693a14.376,14.376,0,0,0,11.043-14.055V188.378h0V55.526A12.443,12.443,0,0,1,93.96,43.479L228.15,19.05a10.521,10.521,0,0,1,7.027,1.673,8.241,8.241,0,0,1,3.012,6.358Z" transform="translate(-23.991 -18.979)"/></g></g></svg>