<svg width="34" height="34" viewBox="0 0 34 34" fill="none" xmlns="http://www.w3.org/2000/svg">
<g clip-path="url(#clip0)">
<rect y="0" width="34" height="34" rx="8" fill="white"/>
<path fill-rule="evenodd" clip-rule="evenodd" d="M0.0197066 3.54372C1.31969 3.48543 2.62164 3.48543 3.92162 3.54372C5.44906 3.63501 6.96563 3.85918 8.45415 4.21368C10.805 4.75813 13.0812 5.58519 15.2332 6.67678C19.02 8.61506 22.3362 11.3592 24.9486 14.7164C26.3488 16.5547 27.5387 18.5442 28.4958 20.6475C29.4324 22.7252 30.1139 24.9086 30.5256 27.1501C30.9986 29.7511 31.038 31.8398 30.9789 34.4606H27.3922C27.6808 30.779 27.156 27.0791 25.8551 23.6229C25.0192 21.3881 23.8786 19.2795 22.4656 17.3568C21.4744 16.014 20.3522 14.7731 19.1154 13.6523C17.1475 11.8619 14.9054 10.3983 12.4743 9.31723C7.44911 7.05118 5.16314 7.12999 0.0197066 7.05117V3.54372ZM0.0197066 30.2241C0.788266 29.6329 1.99037 29.2388 2.91658 29.6329C3.35971 29.8157 3.76676 30.0759 4.11869 30.4014C4.64476 30.9424 4.95036 31.66 4.97587 32.4142C5.00137 33.1684 4.74495 33.905 4.25664 34.4803H8.25708C8.94682 32.2734 8.39503 29.692 6.77909 28.0368C6.11231 27.3161 5.29011 26.7568 4.37488 26.4013C2.83776 25.889 1.55683 25.8102 0.0197066 26.2437V30.2241ZM23.2736 29.1009C23.1152 28.1132 22.8847 27.1385 22.5838 26.1846C21.4108 22.3766 19.2079 18.9669 16.2186 16.3321C13.873 14.2852 11.1188 12.7604 8.13885 11.8592C6.68608 11.4371 5.19358 11.1664 3.68514 11.0513C2.55011 10.972 1.41093 10.972 0.275893 11.0513H0.0197066V14.5784C2.93629 14.3223 6.54261 14.8937 9.12418 16.0169C10.7508 16.7161 12.265 17.6524 13.6173 18.7953C16.6182 21.343 18.7017 24.8036 19.549 28.6477C20.0417 30.8546 19.9234 32.2734 19.9234 34.4803H23.4706C23.5494 32.6872 23.5692 30.8743 23.2736 29.1009ZM0.0197066 22.2239C1.39494 21.9645 2.80774 21.9779 4.17781 22.2633C5.30021 22.5179 6.37689 22.9433 7.37029 23.5244C8.88341 24.4324 10.1439 25.7063 11.0357 27.2289C12.3364 29.3964 12.7108 32.0172 12.3364 34.5H15.923C16.3601 31.2225 15.65 27.8947 13.9129 25.0811C12.8319 23.3458 11.3861 21.8666 9.67596 20.746C8.40668 19.9295 7.01678 19.3177 5.55727 18.9332C3.74254 18.4755 1.86118 18.342 0 18.5391L0.0197066 22.2239Z" fill="url(#paint0_linear)"/>
<path fill-rule="evenodd" clip-rule="evenodd" d="M27.3072 1.50394C28.0063 0.882857 28.8932 0.528775 29.8176 0.501679C30.742 0.474583 31.6472 0.77614 32.3797 1.35527L31.655 1.99954C30.2782 1.05791 28.2734 1.38005 27.4038 2.81728C26.2685 4.40319 27.1623 6.90595 28.998 7.42633C30.8338 8.12016 32.9835 6.43513 32.8628 4.45275L33.9794 3.52655C34.1244 4.86466 33.4908 6.63337 32.4763 7.50067C30.9304 8.98746 28.2009 8.78922 26.8724 7.07941C25.568 5.4935 25.7371 2.86684 27.3072 1.50394ZM29.9159 4.35363L28.3771 3.52655V4.80373L29.8917 5.54306L33.4666 2.76772L32.9835 2.0491L29.9159 4.35363Z" fill="#A2A2A2"/>
</g>
<defs>
<linearGradient id="paint0_linear" x1="23.2736" y1="33.101" x2="1.38149" y2="11.2266" gradientUnits="userSpaceOnUse">
<stop stop-color="#8B6BF7"/>
<stop offset="0.5" stop-color="#5684FD"/>
<stop offset="0.9" stop-color="#3EE9FC"/>
<stop offset="1" stop-color="#0AFFFF"/>
</linearGradient>
<clipPath id="clip0">
<rect y="0.0" width="34" height="34" rx="8" fill="white"/>
</clipPath>
</defs>
</svg>
