<svg width="34" height="34" viewBox="0 0 34 34" fill="none" xmlns="http://www.w3.org/2000/svg">
<rect width="34" height="34" rx="8" fill="#0177FF"/>
<path d="M22 7C16.7808 7.00005 14.0632 11.7254 7.83711 14.1296C3.71545 15.7212 0 19.0817 0 23.5V26C0 30.4183 3.58172 34 8 34H26C30.4183 34 34 30.4183 34 26V15.8137C34 13.692 33.2123 11.5893 31.5382 10.2858C29.2616 8.51319 26.2613 6.99996 22 7Z" fill="#F55FFF"/>
<path d="M6 19V21" stroke="white" stroke-width="3" stroke-linecap="round"/>
<path d="M11 19V21" stroke="white" stroke-width="3" stroke-linecap="round"/>
<path d="M17 17V24" stroke="white" stroke-width="3" stroke-linecap="round"/>
<path d="M28 17V24" stroke="white" stroke-width="3" stroke-linecap="round"/>
<path d="M23 13V28" stroke="white" stroke-width="3" stroke-linecap="round"/>
</svg>
