<svg width="34" height="34" viewBox="0 0 34 34" fill="none" xmlns="http://www.w3.org/2000/svg">
<rect y="0" width="34" height="34" rx="8" fill="#1C1C1C"/>
<path d="M16.9999 6.5C10.925 6.5 6 11.425 6 17.5001C6 23.5754 10.925 28.5 16.9999 28.5C23.0756 28.5 28 23.5754 28 17.5001C28 11.4253 23.0756 6.50053 16.9998 6.50053L16.9999 6.5ZM22.0444 22.3653C21.9975 22.4422 21.9358 22.5091 21.863 22.5621C21.7902 22.6152 21.7076 22.6534 21.62 22.6745C21.5324 22.6956 21.4415 22.6992 21.3525 22.6852C21.2635 22.6711 21.1781 22.6396 21.1013 22.5925C18.5186 21.0149 15.2674 20.6576 11.4384 21.5325C11.2611 21.5728 11.0751 21.541 10.9212 21.4442C10.7672 21.3474 10.6581 21.1935 10.6176 21.0162C10.5974 20.9284 10.5948 20.8376 10.6098 20.7488C10.6249 20.66 10.6572 20.575 10.7051 20.4987C10.753 20.4225 10.8155 20.3564 10.889 20.3043C10.9625 20.2523 11.0455 20.2152 11.1333 20.1952C15.3235 19.2379 18.9177 19.6501 21.8172 21.4221C22.1403 21.6205 22.2428 22.0421 22.0444 22.3653ZM23.3908 19.3701C23.1425 19.7736 22.6145 19.901 22.2113 19.6527C19.2545 17.8353 14.7474 17.3089 11.2501 18.3706C10.7965 18.5076 10.3175 18.252 10.1798 17.7992C10.1141 17.5815 10.1374 17.3466 10.2446 17.1461C10.3519 16.9456 10.5342 16.7958 10.7517 16.7295C14.7466 15.5174 19.7129 16.1045 23.1084 18.1911C23.5117 18.4394 23.6391 18.9675 23.3908 19.3702V19.3701ZM23.5064 16.2511C19.9612 14.1453 14.112 13.9517 10.7271 14.9791C10.1836 15.1439 9.60881 14.8371 9.44409 14.2935C9.36488 14.0324 9.39264 13.7505 9.52124 13.5098C9.64985 13.2691 9.86877 13.0893 10.1299 13.01C14.0155 11.8305 20.4748 12.0584 24.5564 14.4815C24.6728 14.5503 24.7744 14.6414 24.8554 14.7495C24.9365 14.8577 24.9955 14.9808 25.0289 15.1117C25.0623 15.2427 25.0696 15.379 25.0503 15.5128C25.031 15.6465 24.9855 15.7752 24.9163 15.8913C24.6274 16.3803 23.9942 16.5414 23.5069 16.2511H23.5064Z" fill="#1ED760"/>
</svg>
