<svg width="30" height="31" viewBox="0 0 30 31" fill="none" xmlns="http://www.w3.org/2000/svg">
<path fill-rule="evenodd" clip-rule="evenodd" d="M29.9238 9.77382C29.8535 8.1798 29.5957 7.08393 29.2265 6.13434C28.8456 5.12638 28.2595 4.22395 27.4917 3.47376C26.7415 2.71189 25.8331 2.11989 24.8368 1.74491C23.8817 1.37565 22.7916 1.11788 21.1976 1.0476C19.5917 0.971363 19.0818 0.953735 15.0088 0.953735C10.9357 0.953735 10.4259 0.971363 8.82593 1.04164C7.23192 1.11192 6.13605 1.36992 5.18669 1.73895C4.1785 2.11989 3.27607 2.70594 2.52588 3.47376C1.76401 4.22395 1.17224 5.13233 0.797027 6.12862C0.427768 7.08393 0.169997 8.17385 0.0997169 9.76787C0.0234844 11.3738 0.00585707 11.8836 0.00585707 15.9567C0.00585707 20.0297 0.0234844 20.5395 0.0937648 22.1395C0.164045 23.7335 0.422045 24.8294 0.791304 25.779C1.17224 26.787 1.76401 27.6894 2.52588 28.4396C3.27607 29.2014 4.18445 29.7934 5.18074 30.1684C6.13605 30.5377 7.22597 30.7955 8.82021 30.8657C10.4199 30.9362 10.93 30.9536 15.0031 30.9536C19.0761 30.9536 19.5859 30.9362 21.1859 30.8657C22.7799 30.7955 23.8758 30.5377 24.8251 30.1684C26.8413 29.3889 28.4353 27.7949 29.2148 25.779C29.5838 24.8237 29.8418 23.7335 29.9121 22.1395C29.9824 20.5395 30 20.0297 30 15.9567C30 11.8836 29.9941 11.3738 29.9238 9.77382ZM27.2222 22.0223C27.1577 23.4874 26.9116 24.2786 26.7065 24.8061C26.2024 26.113 25.1651 27.1503 23.8582 27.6544C23.3307 27.8595 22.5338 28.1056 21.0744 28.1699C19.4921 28.2404 19.0175 28.2578 15.0147 28.2578C11.012 28.2578 10.5314 28.2404 8.95482 28.1699C7.48969 28.1056 6.69852 27.8595 6.17107 27.6544C5.52069 27.414 4.92869 27.0331 4.44817 26.5349C3.95003 26.0484 3.5691 25.4624 3.32872 24.812C3.12361 24.2846 2.87751 23.4874 2.81318 22.0283C2.74267 20.4459 2.72527 19.9711 2.72527 15.9683C2.72527 11.9656 2.74267 11.485 2.81318 9.90866C2.87751 8.44353 3.12361 7.65236 3.32872 7.12491C3.5691 6.4743 3.95003 5.88252 4.45413 5.40178C4.94037 4.90364 5.52642 4.5227 6.17703 4.28256C6.70447 4.07744 7.5016 3.83134 8.96077 3.76679C10.5431 3.69651 11.0179 3.67888 15.0205 3.67888C19.0292 3.67888 19.5037 3.69651 21.0804 3.76679C22.5455 3.83134 23.3367 4.07744 23.8641 4.28256C24.5145 4.5227 25.1065 4.90364 25.587 5.40178C26.0852 5.88825 26.4661 6.4743 26.7065 7.12491C26.9116 7.65236 27.1577 8.44925 27.2222 9.90866C27.2925 11.491 27.3101 11.9656 27.3101 15.9683C27.3101 19.9711 27.2925 20.44 27.2222 22.0223ZM15.0088 8.25008C10.7542 8.25008 7.30221 11.7018 7.30221 15.9567C7.30221 20.2115 10.7542 23.6633 15.0088 23.6633C19.2636 23.6633 22.7154 20.2115 22.7154 15.9567C22.7154 11.7018 19.2636 8.25008 15.0088 8.25008ZM15.0088 20.9557C12.2486 20.9557 10.0097 18.7171 10.0097 15.9567C10.0097 13.1963 12.2486 10.9576 15.0088 10.9576C17.7692 10.9576 20.0079 13.1963 20.0079 15.9567C20.0079 18.7171 17.7692 20.9557 15.0088 20.9557ZM23.0201 9.74451C24.0139 9.74451 24.8194 8.93892 24.8194 7.94538C24.8194 6.95161 24.0139 6.14624 23.0201 6.14624C22.0265 6.14624 21.2209 6.95161 21.2209 7.94538C21.2209 8.93892 22.0265 9.74451 23.0201 9.74451Z" fill="white"/>
</svg>
