<svg xmlns="http://www.w3.org/2000/svg" width="40" height="22.822" viewBox="0 0 40 22.822">
  <g id="vk-social-network-logo_1_" data-name="vk-social-network-logo (1)" transform="translate(0 -117.748)">
    <path id="Контур_1" data-name="Контур 1" d="M39.788,138.359a2.74,2.74,0,0,0-.136-.26,20.731,20.731,0,0,0-3.978-4.6l-.041-.042-.021-.02-.021-.021H35.57q-1.333-1.27-1.687-1.708a1.6,1.6,0,0,1-.292-1.687,15.726,15.726,0,0,1,1.874-2.728q.854-1.1,1.354-1.77,3.6-4.79,3.124-6.123l-.124-.208a1.218,1.218,0,0,0-.645-.344,3.279,3.279,0,0,0-1.333-.052l-6,.041a.778.778,0,0,0-.417.011l-.271.063-.1.052-.083.063a.926.926,0,0,0-.229.218,1.429,1.429,0,0,0-.208.364,34.007,34.007,0,0,1-2.229,4.686q-.771,1.291-1.416,2.239a10.771,10.771,0,0,1-1.083,1.4,7.552,7.552,0,0,1-.792.718q-.354.271-.541.229c-.125-.028-.243-.056-.354-.083a1.385,1.385,0,0,1-.468-.51,2.285,2.285,0,0,1-.24-.812q-.062-.49-.073-.843t.011-1q.022-.646.021-.875,0-.792.031-1.718t.052-1.468q.021-.542.021-1.146a4.812,4.812,0,0,0-.073-.948,3.242,3.242,0,0,0-.218-.666,1.122,1.122,0,0,0-.427-.5,2.406,2.406,0,0,0-.7-.281,13.858,13.858,0,0,0-2.812-.271q-3.873-.042-4.977.5a2.805,2.805,0,0,0-.791.625q-.375.458-.1.5a2.553,2.553,0,0,1,1.77.9l.125.25a3.984,3.984,0,0,1,.292.958,9.665,9.665,0,0,1,.187,1.52,16.211,16.211,0,0,1,0,2.6q-.1,1.083-.2,1.687a3.377,3.377,0,0,1-.281.979,4.132,4.132,0,0,1-.25.458.359.359,0,0,1-.1.1,1.56,1.56,0,0,1-.562.1,1.32,1.32,0,0,1-.708-.292,5,5,0,0,1-.864-.8,10.718,10.718,0,0,1-1.01-1.427q-.562-.916-1.166-2.166l-.333-.6q-.312-.583-.854-1.7t-.958-2.156a1.373,1.373,0,0,0-.5-.666l-.1-.063a1.426,1.426,0,0,0-.333-.177,2.211,2.211,0,0,0-.479-.135l-5.706.041a1.45,1.45,0,0,0-1.187.4l-.083.125a.674.674,0,0,0-.063.333,1.658,1.658,0,0,0,.125.562q1.25,2.937,2.718,5.665t2.551,4.394q1.083,1.666,2.208,3.145t1.489,1.9q.365.417.573.625l.521.5a12.354,12.354,0,0,0,1.468,1.2A25.044,25.044,0,0,0,13.8,139a11.637,11.637,0,0,0,2.739,1.1,9.469,9.469,0,0,0,3.041.344h2.4a1.659,1.659,0,0,0,1.1-.458l.083-.1a1.381,1.381,0,0,0,.156-.385,2.116,2.116,0,0,0,.073-.573,6.862,6.862,0,0,1,.135-1.614,4.243,4.243,0,0,1,.354-1.083,2.662,2.662,0,0,1,.448-.614,1.811,1.811,0,0,1,.355-.3,1.358,1.358,0,0,1,.166-.073,1.322,1.322,0,0,1,1.177.323,6.913,6.913,0,0,1,1.271,1.208q.594.719,1.426,1.614a9.8,9.8,0,0,0,1.458,1.333l.416.25a5.071,5.071,0,0,0,1.083.458,2.334,2.334,0,0,0,1.166.1l5.331-.083a2.416,2.416,0,0,0,1.229-.261,1.032,1.032,0,0,0,.521-.573,1.613,1.613,0,0,0,.011-.708A2.614,2.614,0,0,0,39.788,138.359Z" transform="translate(0 0)" fill="#fff"/>
  </g>
</svg>
