<svg xmlns="http://www.w3.org/2000/svg" width="45" height="31.506" viewBox="0 0 45 31.506">
  <g id="youtube" transform="translate(0.001 0)">
    <path id="Вычитание_1" data-name="Вычитание 1" d="M22.5,31.506c-.141,0-14.088-.011-17.606-.964A5.639,5.639,0,0,1,.928,26.576C.011,23.132,0,15.825,0,15.752S.011,8.411.928,4.93a5.764,5.764,0,0,1,3.966-4C8.373.011,22.359,0,22.5,0S36.627.011,40.107.964A5.627,5.627,0,0,1,44.072,4.93C45,8.329,45,15.483,45,15.785v.006c0,.073-.011,7.341-.928,10.822a5.627,5.627,0,0,1-3.965,3.966C36.627,31.5,22.641,31.506,22.5,31.506Zm-4.484-22.5h0V22.5l11.712-6.748L18.016,9.006Z" transform="translate(-0.001 0.001)" fill="#fff"/>
  </g>
</svg>
