<svg width="87" height="72" viewBox="0 0 87 72" fill="none" xmlns="http://www.w3.org/2000/svg">
<path fill-rule="evenodd" clip-rule="evenodd" d="M72.6709 39.3578C75.0606 29.1945 76.1442 24.5857 76.3262 21.211C76.6695 14.846 74.3938 8.64055 68.53 5.61018C64.0883 3.31477 58.1588 2.2104 52.5833 1.17194L52.5831 1.1719C51.2918 0.931401 50.0195 0.694434 48.7891 0.447025C38.2294 -1.67627 35.9618 4.45388 35.9618 4.45388C44.8129 6.43167 51.0602 7.71184 59.944 9.52917C66.8532 10.9426 69.455 16.1814 68.2575 22.5278C65.9396 34.8122 63.8537 47.1711 60.3396 59.1869C59.2344 56.8184 57.9799 53.9397 55.7228 52.4268C49.7315 48.4109 46.9377 58.0425 45.4872 62.2372C45.2889 61.722 45.0964 61.1878 44.9009 60.6452C43.9354 57.9651 42.8959 55.0795 40.7134 53.2759C38.9942 51.855 37.0655 51.6271 35.3445 51.9435C34.1483 52.1633 24.338 55.8668 23.8605 56.0472C16.7681 58.2375 14.3439 58.4291 14.3439 58.4291C14.3439 58.4291 17.2509 65.7438 26.2425 63.1442C29.6296 62.046 32.8849 60.5616 36.2418 59.3767C36.8023 60.2913 37.3505 61.5905 37.9497 63.0108C39.9739 67.8085 42.5807 73.9873 48.2144 71.3822C50.7158 69.9304 52.3087 65.2946 53.429 61.9634C53.752 62.6441 54.0455 63.468 54.3543 64.3347C55.4213 67.33 56.6699 70.8346 59.9431 70.6924C64.1633 70.5089 67.2282 62.4214 68.2575 58.4197C70.0623 50.4523 71.5182 44.2604 72.6704 39.3598L72.6706 39.3589L72.6709 39.3578ZM58.4834 64.0317C58.4822 64.0332 58.4813 64.0343 58.4807 64.0351C58.4799 64.0361 58.4795 64.0366 58.4795 64.0366L58.4799 64.0361L58.4807 64.0351L58.4807 64.0351C58.4814 64.0343 58.4823 64.0332 58.4834 64.0317ZM47.2636 66.1053C47.2635 66.1063 47.2538 66.0963 47.2351 66.0723C47.2391 66.0766 47.2427 66.0804 47.2459 66.0839C47.2477 66.0859 47.2494 66.0878 47.2509 66.0895C47.2519 66.0906 47.2529 66.0917 47.2537 66.0927C47.2566 66.096 47.2588 66.0987 47.2604 66.1008C47.2626 66.1034 47.2636 66.105 47.2636 66.1053ZM1.67321 10.8082C2.21409 2.82372 9.74398 1.6982 9.74398 1.6982L6.79718 45.2001C6.79718 45.2001 -0.512281 43.0717 0.0286028 35.0872L1.67321 10.8082ZM86.7011 30.2106C88.4969 21.8765 81.6146 18.4427 81.6146 18.4427L79.1489 29.8857L74.2959 52.406L71.8302 63.8491C71.8302 63.8491 79.4445 63.8865 81.2403 55.5524L86.7011 30.2106ZM50.4288 24.5708C52.5922 15.3874 45.4789 13.7277 45.4789 13.7277C45.4789 13.7277 45.0733 17.2728 43.9578 21.5268C43.9549 21.5379 43.952 21.549 43.9492 21.56L43.9418 21.5579C40.1709 34.6833 34.4868 41.3368 21.9802 45.7593C15.4216 47.7501 10.0244 48.515 10.0244 48.515C10.0244 48.515 14.8042 55.1769 22.9919 52.8324C38.2098 48.4747 46.6793 40.0313 50.4288 24.5708ZM13.5325 2.14496L10.0508 45.1585C19.955 44.3257 38.2255 36.0872 38.9185 19.9378C39.6283 3.39418 21.7128 0.501845 13.5325 2.14496ZM16.8114 36.3484L19.2115 8.1449C23.213 7.85341 34.1185 11.4653 33.003 19.2983C31.6645 28.6971 25.2283 34.0525 16.8114 36.3484Z" fill="white"/>
</svg>
