<svg id="instagram" xmlns="http://www.w3.org/2000/svg" width="40" height="40" viewBox="0 0 40 40">
  <g id="Сгруппировать_3" data-name="Сгруппировать 3">
    <g id="Сгруппировать_2" data-name="Сгруппировать 2">
      <path id="Контур_3" data-name="Контур 3" d="M27.5,0h-15A12.5,12.5,0,0,0,0,12.5v15A12.5,12.5,0,0,0,12.5,40h15A12.5,12.5,0,0,0,40,27.5v-15A12.5,12.5,0,0,0,27.5,0Zm8.75,27.5a8.76,8.76,0,0,1-8.75,8.75h-15A8.76,8.76,0,0,1,3.75,27.5v-15A8.76,8.76,0,0,1,12.5,3.75h15a8.76,8.76,0,0,1,8.75,8.75Z" fill="#fff"/>
    </g>
  </g>
  <g id="Сгруппировать_5" data-name="Сгруппировать 5" transform="translate(10.115 10.115)">
    <g id="Сгруппировать_4" data-name="Сгруппировать 4">
      <path id="Контур_4" data-name="Контур 4" d="M137.885,128a9.885,9.885,0,1,0,9.885,9.885A9.886,9.886,0,0,0,137.885,128Zm0,16.064a6.178,6.178,0,1,1,6.178-6.178A6.187,6.187,0,0,1,137.885,144.064Z" transform="translate(-128 -128)" fill="#fff"/>
    </g>
  </g>
  <g id="Сгруппировать_7" data-name="Сгруппировать 7" transform="translate(29.442 7.924)">
    <g id="Сгруппировать_6" data-name="Сгруппировать 6">
      <circle id="Эллипс_1" data-name="Эллипс 1" cx="1.317" cy="1.317" r="1.317" fill="#fff"/>
    </g>
  </g>
</svg>
