<svg xmlns="http://www.w3.org/2000/svg" width="416" height="67" viewBox="0 0 416 67">
  <g id="телеграи" transform="translate(-752 -665)">
    <rect id="Прямоугольник_8" data-name="Прямоугольник 8" width="416" height="67" rx="20" transform="translate(752 665)" fill="#fff"/>
    <text id="_retrovsky" data-name="@retrovsky" transform="translate(893 708)" fill="#4a4a4a" font-size="26" font-family="GothamPro, Gotham Pro"><tspan x="-72.384" y="0">@retrovsky</tspan></text>
    <g id="telegram" transform="translate(770 681)">
      <circle id="Эллипс_3" data-name="Эллипс 3" cx="18" cy="18" r="18" fill="#039be5"/>
      <path id="Контур_9" data-name="Контур 9" d="M5.795,14,23.15,7.306c.806-.291,1.509.2,1.248,1.415v0L21.444,22.641c-.219.987-.806,1.227-1.626.762l-4.5-3.316-2.17,2.091a1.135,1.135,0,0,1-.907.442l.319-4.579,8.34-7.534c.363-.319-.081-.5-.559-.181L10.034,16.813,5.591,15.427c-.965-.306-.986-.965.2-1.43Z" transform="translate(2.442 3.612)" fill="#fff"/>
    </g>
  </g>
</svg>
