<svg width="27" height="30" viewBox="0 0 27 30" fill="none" xmlns="http://www.w3.org/2000/svg">
<path d="M26.9859 7.5C25.2738 7.5 23.6941 6.93281 22.4256 5.97598C20.9707 4.8791 19.9254 3.27012 19.5562 1.41563C19.4648 0.957422 19.4156 0.48457 19.4109 0H14.5201V13.3641L14.5142 20.6842C14.5142 22.6412 13.2398 24.3006 11.4732 24.8842C10.9605 25.0535 10.4068 25.1338 9.83026 25.1021C9.09432 25.0617 8.40467 24.8396 7.80526 24.4811C6.52967 23.7182 5.66483 22.3342 5.64139 20.751C5.60448 18.2766 7.60487 16.2592 10.0775 16.2592C10.5656 16.2592 11.0344 16.3389 11.4732 16.4836V12.8309V11.5178C11.0103 11.4492 10.5392 11.4135 10.0629 11.4135C7.35643 11.4135 4.82518 12.5385 3.01581 14.5652C1.64823 16.0969 0.827918 18.051 0.701355 20.1C0.535535 22.7918 1.5205 25.3506 3.43065 27.2385C3.71132 27.5156 4.00604 27.7729 4.31425 28.0102C5.95194 29.2705 7.95409 29.9537 10.0629 29.9537C10.5392 29.9537 11.0103 29.9186 11.4732 29.85C13.4432 29.5582 15.2607 28.6564 16.6951 27.2385C18.4576 25.4965 19.4314 23.1838 19.442 20.7223L19.4168 9.79102C20.2576 10.4396 21.1769 10.9764 22.1637 11.393C23.6982 12.0404 25.3254 12.3686 27 12.368V8.8166V7.49883C27.0012 7.5 26.9871 7.5 26.9859 7.5V7.5Z" fill="white"/>
</svg>
