<svg width="30" height="22" viewBox="0 0 30 22" fill="none" xmlns="http://www.w3.org/2000/svg">
<path d="M29.3819 4.13777C29.0362 2.89271 28.0229 1.91125 26.7378 1.576C24.3902 0.953735 14.9997 0.953735 14.9997 0.953735C14.9997 0.953735 5.60945 0.953735 3.26185 1.5524C2.00153 1.8873 0.963503 2.89289 0.617799 4.13777C0 6.41182 0 11.1279 0 11.1279C0 11.1279 0 15.8678 0.617799 18.1181C0.963869 19.3629 1.97681 20.3444 3.26203 20.6797C5.63417 21.3021 15 21.3021 15 21.3021C15 21.3021 24.3902 21.3021 26.7378 20.7034C28.0231 20.3683 29.0362 19.3869 29.3823 18.142C29.9999 15.8678 29.9999 11.1519 29.9999 11.1519C29.9999 11.1519 30.0246 6.41182 29.3819 4.13777V4.13777ZM12.0099 15.4848V6.77102L19.8186 11.1279L12.0099 15.4848Z" fill="white"/>
</svg>
